StickNoBills_0.ufo
<glyph name="exclam" format="1">
  <advance width="329"/>
  <unicode hex="0021"/>
  <outline>
    <contour>
      <point x="125" y="191" type="line"/>
      <point x="125" y="675" type="line"/>
      <point x="204" y="675" type="line"/>
      <point x="204" y="191" type="line"/>
    </contour>
    <contour>
      <point x="113" y="53" type="curve" smooth="yes"/>
      <point x="113" y="81.6491"/>
      <point x="135.112" y="104"/>
      <point x="163" y="104" type="curve" smooth="yes"/>
      <point x="190.888" y="104"/>
      <point x="213" y="81.6489"/>
      <point x="213" y="53" type="curve" smooth="yes"/>
      <point x="213" y="24.6663"/>
      <point x="191.333" y="3"/>
      <point x="163" y="3" type="curve" smooth="yes"/>
      <point x="134.666" y="3"/>
      <point x="113" y="24.6666"/>
    </contour>
  </outline>
</glyph>
<glyph name="quotedbl" format="1">
  <advance width="407"/>
  <unicode hex="0022"/>
  <outline>
    <contour>
      <point x="332" y="490" type="line"/>
      <point x="255" y="490" type="line"/>
      <point x="255" y="711" type="line"/>
      <point x="332" y="711" type="line"/>
    </contour>
    <contour>
      <point x="152" y="490" type="line"/>
      <point x="75" y="490" type="line"/>
      <point x="75" y="711" type="line"/>
      <point x="152" y="711" type="line"/>
    </contour>
  </outline>
</glyph>
<glyph name="numbersign" format="1">
  <advance width="888"/>
  <unicode hex="0023"/>
  <outline>
    <contour>
      <point x="536.512" y="429" type="line"/>
      <point x="381.014" y="429" type="line"/>
      <point x="353.218" y="271" type="line"/>
      <point x="510.178" y="271" type="line"/>
    </contour>
    <contour>
      <point x="314.002" y="47" type="line"/>
      <point x="243.764" y="47" type="line"/>
      <point x="270.764" y="201" type="line"/>
      <point x="131.693" y="201" type="line"/>
      <point x="146.363" y="272" type="line"/>
      <point x="284.146" y="272" type="line"/>
      <point x="310.557" y="429" type="line"/>
      <point x="164.955" y="429" type="line"/>
      <point x="177.864" y="500" type="line"/>
      <point x="324.068" y="500" type="line"/>
      <point x="351.068" y="657" type="line"/>
      <point x="421.18" y="657" type="line"/>
      <point x="393.18" y="499" type="line"/>
      <point x="550.09" y="499" type="line"/>
      <point x="577.09" y="657" type="line"/>
      <point x="647.18" y="657" type="line"/>
      <point x="619.18" y="499" type="line"/>
      <point x="757.768" y="499" type="line"/>
      <point x="746.619" y="428" type="line"/>
      <point x="607.048" y="428" type="line"/>
      <point x="579.17" y="271" type="line"/>
      <point x="723.006" y="271" type="line"/>
      <point x="712.444" y="200" type="line"/>
      <point x="567.025" y="200" type="line"/>
      <point x="540.025" y="47" type="line"/>
      <point x="470.575" y="47" type="line"/>
      <point x="496.575" y="201" type="line"/>
      <point x="341.002" y="201" type="line"/>
    </contour>
  </outline>
</glyph>
<glyph name="dollar" format="1">
  <advance width="401"/>
  <unicode hex="0024"/>
  <outline>
    <contour>
      <point x="157.5" y="-47" type="line"/>
      <point x="139.004" y="-47" type="line"/>
      <point x="139.004" y="6.28418" type="line"/>
      <point x="124.522" y="13" type="line" smooth="yes"/>
      <point x="74.5186" y="35.9961"/>
      <point x="40.0098" y="84.2666"/>
      <point x="30" y="117.832" type="curve"/>
      <point x="110.193" y="146.247" type="line"/>
      <point x="122.136" y="115.062"/>
      <point x="145.311" y="98.7734"/>
      <point x="157.5" y="90.2354" type="curve"/>
    </contour>
    <contour>
      <point x="249.404" y="682" type="line" smooth="yes"/>
      <point x="290.168" y="661.021"/>
      <point x="319.774" y="620.418"/>
      <point x="333.108" y="592.518" type="curve"/>
      <point x="252.262" y="565.775" type="line"/>
      <point x="242.552" y="588.78"/>
      <point x="232.729" y="599.2"/>
      <point x="225.591" y="605.414" type="curve"/>
      <point x="225.591" y="750" type="line"/>
      <point x="239.21" y="750" type="line"/>
      <point x="239.21" y="689.019" type="line"/>
    </contour>
    <contour>
      <point x="157.5" y="750" type="line"/>
      <point x="157.5" y="605.031" type="line"/>
      <point x="137.311" y="586.556"/>
      <point x="119.004" y="552.182"/>
      <point x="119.004" y="513" type="curve" smooth="yes"/>
      <point x="119.004" y="479.146"/>
      <point x="139.879" y="455.347"/>
      <point x="157.5" y="440.695" type="curve"/>
      <point x="157.5" y="338.471" type="line"/>
      <point x="153.359" y="341.117"/>
      <point x="148.563" y="343.327"/>
      <point x="143.689" y="345.602" type="curve"/>
      <point x="77.1621" y="377.46"/>
      <point x="35.0039" y="413.992"/>
      <point x="35.0039" y="508" type="curve" smooth="yes"/>
      <point x="35.0039" y="599.691"/>
      <point x="80.1289" y="651.293"/>
      <point x="125.701" y="679" type="curve" smooth="yes"/>
      <point x="139.004" y="686.043" type="line"/>
      <point x="139.004" y="750" type="line"/>
    </contour>
    <contour>
      <point x="225.591" y="390.813" type="line"/>
      <point x="235.162" y="384.328"/>
      <point x="242.494" y="378.769"/>
      <point x="252.48" y="372.362" type="curve"/>
      <point x="313.595" y="336.235"/>
      <point x="368.004" y="297.131"/>
      <point x="368.004" y="209" type="curve" smooth="yes"/>
      <point x="368.004" y="122.859"/>
      <point x="317.404" y="43.9834"/>
      <point x="251.193" y="12" type="curve" smooth="yes"/>
      <point x="239.21" y="5.51953" type="line"/>
      <point x="239.21" y="-47" type="line"/>
      <point x="225.591" y="-47" type="line"/>
      <point x="225.591" y="84.4502" type="line"/>
      <point x="244.781" y="98.6738"/>
      <point x="277.004" y="136.609"/>
      <point x="277.004" y="203" type="curve" smooth="yes"/>
      <point x="277.004" y="248.941"/>
      <point x="246.254" y="277.385"/>
      <point x="225.591" y="295.143" type="curve"/>
    </contour>
  </outline>
</glyph>
<glyph name="Percent_sign" format="1">
  <advance width="529"/>
  <unicode hex="0025"/>
  <outline>
    <contour>
      <point x="420" y="34" type="curve" smooth="yes"/>
      <point x="374.878" y="34"/>
      <point x="344.666" y="70.75"/>
      <point x="344.666" y="117" type="curve" smooth="yes"/>
      <point x="344.666" y="163.255"/>
      <point x="374.882" y="200"/>
      <point x="420" y="200" type="curve" smooth="yes"/>
      <point x="466.255" y="200"/>
      <point x="503" y="163.25"/>
      <point x="503" y="117" type="curve" smooth="yes"/>
      <point x="503" y="70.7451"/>
      <point x="466.25" y="34"/>
    </contour>
    <contour>
      <point x="109" y="492" type="curve" smooth="yes"/>
      <point x="62.7451" y="492"/>
      <point x="26" y="528.75"/>
      <point x="26" y="575" type="curve" smooth="yes"/>
      <point x="26" y="621.255"/>
      <point x="62.75" y="658"/>
      <point x="109" y="658" type="curve" smooth="yes"/>
      <point x="154.122" y="658"/>
      <point x="184.334" y="621.25"/>
      <point x="184.334" y="575" type="curve" smooth="yes"/>
      <point x="184.334" y="528.745"/>
      <point x="154.118" y="492"/>
    </contour>
    <contour>
      <point x="225.612" y="2" type="line"/>
      <point x="163.459" y="2" type="line"/>
      <point x="297.612" y="691" type="line"/>
      <point x="358.997" y="691" type="line"/>
    </contour>
  </outline>
</glyph>
<glyph name="ampersand" format="1">
  <advance width="687"/>
  <unicode hex="0026"/>
  <outline>
    <contour>
      <point x="342" y="347.133" type="line"/>
      <point x="433.86" y="237.711" type="line"/>
      <point x="452.137" y="266.65" type="line" smooth="yes"/>
      <point x="462.356" y="282.83"/>
      <point x="470.097" y="300.735"/>
      <point x="475.271" y="320" type="curve"/>
      <point x="564.085" y="320" type="line"/>
      <point x="552.261" y="268.165"/>
      <point x="532.383" y="234.073"/>
      <point x="500.761" y="195.964" type="curve" smooth="yes"/>
      <point x="487.277" y="179.714" type="line"/>
      <point x="606.537" y="41" type="line"/>
      <point x="475.656" y="41" type="line"/>
      <point x="419.359" y="108.077" type="line"/>
      <point x="400.107" y="90.4289" type="line" smooth="yes"/>
      <point x="386.426" y="77.8881"/>
      <point x="363.91" y="63.0396"/>
      <point x="342" y="52.4526" type="curve"/>
      <point x="342" y="155.655" type="line"/>
      <point x="344.216" y="157.519"/>
      <point x="345.636" y="158.761"/>
      <point x="348.27" y="161.019" type="curve" smooth="yes"/>
      <point x="366.989" y="177.064" type="line"/>
      <point x="342" y="207.051" type="line"/>
    </contour>
    <contour>
      <point x="342.336" y="379.857" type="line"/>
      <point x="342" y="473.966" type="line"/>
      <point x="355.524" y="485.544"/>
      <point x="369" y="503.664"/>
      <point x="369" y="533" type="curve" smooth="yes"/>
      <point x="369" y="555.19"/>
      <point x="364.075" y="578.977"/>
      <point x="342" y="595.872" type="curve"/>
      <point x="342" y="668.547" type="line"/>
      <point x="417.704" y="646.222"/>
      <point x="452" y="598.062"/>
      <point x="452" y="520" type="curve" smooth="yes"/>
      <point x="452" y="458.471"/>
      <point x="400.271" y="403.18"/>
      <point x="353.568" y="384.152" type="curve" smooth="yes"/>
    </contour>
    <contour>
      <point x="232" y="592.071" type="line"/>
      <point x="218.981" y="581.556"/>
      <point x="206" y="563.647"/>
      <point x="206" y="536" type="curve" smooth="yes"/>
      <point x="206" y="505.15"/>
      <point x="220.483" y="485.89"/>
      <point x="232" y="476.528" type="curve"/>
      <point x="232" y="329.422" type="line"/>
      <point x="216.484" y="315.768" type="line" smooth="yes"/>
      <point x="191.121" y="293.448"/>
      <point x="158" y="261.692"/>
      <point x="158" y="204" type="curve" smooth="yes"/>
      <point x="158" y="155.826"/>
      <point x="187.525" y="120.568"/>
      <point x="232" y="112.209" type="curve"/>
      <point x="232" y="28.9355" type="line"/>
      <point x="110.583" y="38.4741"/>
      <point x="51" y="112.803"/>
      <point x="51" y="214" type="curve" smooth="yes"/>
      <point x="51" y="294.801"/>
      <point x="98.2374" y="350.58"/>
      <point x="161.923" y="381.512" type="curve" smooth="yes"/>
      <point x="199.028" y="399.535" type="line"/>
      <point x="165.881" y="424.089" type="line" smooth="yes"/>
      <point x="148.05" y="437.297"/>
      <point x="119" y="495.034"/>
      <point x="119" y="528" type="curve" smooth="yes"/>
      <point x="119" y="599.685"/>
      <point x="156.739" y="646.098"/>
      <point x="232" y="669.867" type="curve"/>
    </contour>
  </outline>
</glyph>
<glyph name="quotesingle" format="1">
  <advance width="227"/>
  <unicode hex="0027"/>
  <outline>
    <contour>
      <point x="152" y="490" type="line"/>
      <point x="75" y="490" type="line"/>
      <point x="75" y="711" type="line"/>
      <point x="152" y="711" type="line"/>
    </contour>
  </outline>
</glyph>
<glyph name="parenleft" format="1">
  <advance width="262"/>
  <unicode hex="0028"/>
  <outline>
    <contour>
      <point x="187" y="697.217" type="curve"/>
      <point x="187" y="661.597" type="line"/>
      <point x="146.275" y="632.358"/>
      <point x="128.958" y="590.117"/>
      <point x="128" y="521.174" type="curve"/>
      <point x="128" y="202" type="line" smooth="yes"/>
      <point x="128" y="110.027"/>
      <point x="150.973" y="65.4719"/>
      <point x="188" y="37.7886" type="curve"/>
      <point x="188" y="1.94988" type="line"/>
      <point x="86.3551" y="54.0223"/>
      <point x="75" y="106.577"/>
      <point x="75" y="189" type="curve" smooth="yes"/>
      <point x="75" y="510" type="line" smooth="yes"/>
      <point x="75" y="625.715"/>
      <point x="115.1" y="663.598"/>
    </contour>
  </outline>
</glyph>
<glyph name="parenright" format="1">
  <advance width="330"/>
  <unicode hex="0029"/>
  <outline>
    <contour>
      <point x="125.62" y="709.051" type="line"/>
      <point x="208.76" y="671.662"/>
      <point x="255" y="624.267"/>
      <point x="255" y="510" type="curve" smooth="yes"/>
      <point x="255" y="189" type="line" smooth="yes"/>
      <point x="255" y="108.481"/>
      <point x="229.143" y="42.2413"/>
      <point x="126" y="-8.68144" type="curve"/>
      <point x="126" y="37.7886" type="line"/>
      <point x="164.033" y="66.2239"/>
      <point x="186" y="110.604"/>
      <point x="186" y="202" type="curve" smooth="yes"/>
      <point x="186" y="521.174" type="line"/>
      <point x="185.027" y="591.265"/>
      <point x="164.318" y="634.537"/>
      <point x="125.141" y="662.506" type="curve"/>
    </contour>
  </outline>
</glyph>
<glyph name="asterisk" format="1">
  <advance width="394"/>
  <unicode hex="002A"/>
  <outline>
    <contour>
      <point x="206" y="503" type="line"/>
      <point x="185" y="503" type="line"/>
      <point x="185" y="611.67" type="line"/>
      <point x="97.9685" y="551.516" type="line"/>
      <point x="86.3026" y="567.734" type="line"/>
      <point x="182.979" y="633.296" type="line"/>
      <point x="85.7528" y="697.377" type="line"/>
      <point x="98.1707" y="714.23" type="line"/>
      <point x="185" y="658.046" type="line"/>
      <point x="185" y="760" type="line"/>
      <point x="206" y="760" type="line"/>
      <point x="206" y="656.014" type="line"/>
      <point x="295.838" y="714.219" type="line"/>
      <point x="308.37" y="697.211" type="line"/>
      <point x="211.542" y="632.292" type="line"/>
      <point x="307.815" y="565.897" type="line"/>
      <point x="296.158" y="549.691" type="line"/>
      <point x="206" y="613.183" type="line"/>
    </contour>
  </outline>
</glyph>
<glyph name="plus" format="1">
  <advance width="475"/>
  <unicode hex="002B"/>
  <outline>
    <contour>
      <point x="400" y="332" type="line"/>
      <point x="400" y="255" type="line"/>
      <point x="275" y="255" type="line"/>
      <point x="275" y="112" type="line"/>
      <point x="198" y="112" type="line"/>
      <point x="198" y="255" type="line"/>
      <point x="75" y="255" type="line"/>
      <point x="75" y="332" type="line"/>
      <point x="198" y="332" type="line"/>
      <point x="198" y="473" type="line"/>
      <point x="275" y="473" type="line"/>
      <point x="275" y="332" type="line"/>
    </contour>
  </outline>
</glyph>
<glyph name="comma" format="1">
  <advance width="265"/>
  <unicode hex="002C"/>
  <outline>
    <contour>
      <point x="158.356" y="2" type="line"/>
      <point x="82.8155" y="2" type="line"/>
      <point x="107.644" y="104" type="line"/>
      <point x="183.184" y="104" type="line"/>
    </contour>
  </outline>
</glyph>
<glyph name="hyphen" format="1">
  <advance width="416"/>
  <unicode hex="002D"/>
  <outline>
    <contour>
      <point x="341" y="332" type="line"/>
      <point x="341" y="255" type="line"/>
      <point x="75" y="255" type="line"/>
      <point x="75" y="332" type="line"/>
    </contour>
  </outline>
</glyph>
<glyph name="period" format="1">
  <advance width="250"/>
  <unicode hex="002E"/>
  <outline>
    <contour>
      <point x="75" y="53" type="curve" smooth="yes"/>
      <point x="75" y="81.6491"/>
      <point x="97.1121" y="104"/>
      <point x="125" y="104" type="curve" smooth="yes"/>
      <point x="152.888" y="104"/>
      <point x="175" y="81.6489"/>
      <point x="175" y="53" type="curve" smooth="yes"/>
      <point x="175" y="24.6663"/>
      <point x="153.333" y="3"/>
      <point x="125" y="3" type="curve" smooth="yes"/>
      <point x="96.6663" y="3"/>
      <point x="75" y="24.6666"/>
    </contour>
  </outline>
</glyph>
<glyph name="slash" format="1">
  <advance width="401"/>
  <unicode hex="002F"/>
  <outline>
    <contour>
      <point x="81.6116" y="2" type="line"/>
      <point x="244.771" y="691" type="line"/>
      <point x="319.43" y="691" type="line"/>
      <point x="157.203" y="2" type="line"/>
    </contour>
  </outline>
</glyph>
<glyph name="zero" format="1">
  <advance width="368"/>
  <unicode hex="0030"/>
  <outline>
    <contour>
      <point x="217.885" y="589.549" type="curve"/>
      <point x="217.885" y="668.386" type="line"/>
      <point x="276.461" y="649.392"/>
      <point x="347" y="567.814"/>
      <point x="347" y="353" type="curve" smooth="yes"/>
      <point x="347" y="107.938"/>
      <point x="265.882" y="44.7764"/>
      <point x="218.501" y="29.4551" type="curve"/>
      <point x="218.501" y="107.456" type="line"/>
      <point x="278.279" y="146.137"/>
      <point x="272" y="260.376"/>
      <point x="272" y="339" type="curve" smooth="yes"/>
      <point x="272" y="398" type="line" smooth="yes"/>
      <point x="272" y="453.056"/>
      <point x="273.188" y="554.522"/>
    </contour>
    <contour>
      <point x="21" y="353" type="curve" smooth="yes"/>
      <point x="21" y="568.482"/>
      <point x="92.2754" y="649.615"/>
      <point x="150.115" y="668.386" type="curve"/>
      <point x="150.115" y="589.549" type="line"/>
      <point x="93.8027" y="553.925"/>
      <point x="96" y="452.224"/>
      <point x="96" y="398" type="curve" smooth="yes"/>
      <point x="96" y="339" type="line" smooth="yes"/>
      <point x="96" y="259.549"/>
      <point x="90.6328" y="145.579"/>
      <point x="149.499" y="107.456" type="curve"/>
      <point x="149.499" y="29.4551" type="line"/>
      <point x="101.405" y="44.9912"/>
      <point x="21" y="108.62"/>
    </contour>
  </outline>
</glyph>
<glyph name="one" format="1">
  <advance width="216"/>
  <unicode hex="0031"/>
  <outline>
    <contour>
      <point x="106" y="25" type="line"/>
      <point x="106" y="550.589" type="line"/>
      <point x="30" y="490.589" type="line"/>
      <point x="30" y="627.759" type="line"/>
      <point x="89.5654" y="674" type="line"/>
      <point x="186" y="674" type="line"/>
      <point x="186" y="25" type="line"/>
    </contour>
  </outline>
</glyph>
<glyph name="two" format="1">
  <advance width="380"/>
  <unicode hex="0032"/>
  <outline>
    <contour>
      <point x="276.369" y="497" type="line" smooth="yes"/>
      <point x="276.369" y="552.079"/>
      <point x="242.172" y="587.759"/>
      <point x="204.918" y="596.59" type="curve"/>
      <point x="204.918" y="674.342" type="line"/>
      <point x="312.206" y="664.976"/>
      <point x="348.503" y="563.495"/>
      <point x="349.369" y="496.838" type="curve"/>
      <point x="349.369" y="494" type="line" smooth="yes"/>
      <point x="349.369" y="401.176"/>
      <point x="310.672" y="378.933"/>
      <point x="248.975" y="335.44" type="curve" smooth="yes"/>
      <point x="199.49" y="288.65"/>
      <point x="173.519" y="254.559"/>
      <point x="151.864" y="204" type="curve"/>
      <point x="58.6807" y="204" type="line"/>
      <point x="116.467" y="296.989"/>
      <point x="174.408" y="339.231"/>
      <point x="193.343" y="364.921" type="curve"/>
      <point x="214.341" y="394.337"/>
      <point x="275.089" y="415.422"/>
      <point x="276.369" y="494.799" type="curve"/>
    </contour>
    <contour>
      <point x="24" y="539.489" type="line"/>
      <point x="37.9834" y="598.392"/>
      <point x="79.4717" y="649.559"/>
      <point x="136.369" y="667.962" type="curve"/>
      <point x="136.369" y="588.49" type="line"/>
      <point x="120.085" y="578.109"/>
      <point x="99.9287" y="558.119"/>
      <point x="91.7686" y="525.131" type="curve"/>
    </contour>
    <contour>
      <point x="39.3691" y="102" type="line"/>
      <point x="343.369" y="102" type="line"/>
      <point x="343.369" y="25" type="line"/>
      <point x="39.3691" y="25" type="line"/>
    </contour>
  </outline>
</glyph>
<glyph name="three" format="1">
  <advance width="384"/>
  <unicode hex="0033"/>
  <outline>
    <contour>
      <point x="26" y="88.1865" type="curve"/>
      <point x="92.4834" y="127.7" type="line"/>
      <point x="104.522" y="116.257"/>
      <point x="119.632" y="108.199"/>
      <point x="135.896" y="103.778" type="curve"/>
      <point x="135.896" y="25.2559" type="line"/>
      <point x="85.8213" y="30.6465"/>
      <point x="51.7148" y="50.5859"/>
    </contour>
    <contour>
      <point x="207.608" y="27.2061" type="curve"/>
      <point x="207.243" y="100.434" type="line"/>
      <point x="241.379" y="113.802"/>
      <point x="267.896" y="157.4"/>
      <point x="267.896" y="201" type="curve" smooth="yes"/>
      <point x="267.896" y="270.384"/>
      <point x="230.626" y="306.923"/>
      <point x="167.092" y="310.588" type="curve"/>
      <point x="167.092" y="385.456" type="line"/>
      <point x="235.485" y="389.734"/>
      <point x="267.896" y="431.439"/>
      <point x="267.896" y="499" type="curve" smooth="yes"/>
      <point x="267.896" y="557.598"/>
      <point x="227.45" y="588.818"/>
      <point x="205.922" y="596.622" type="curve"/>
      <point x="205.922" y="670.854" type="line"/>
      <point x="294.104" y="655.63"/>
      <point x="343.896" y="565.11"/>
      <point x="343.896" y="508" type="curve" smooth="yes"/>
      <point x="343.896" y="415.53"/>
      <point x="314.613" y="382.116"/>
      <point x="295.431" y="372.216" type="curve" smooth="yes"/>
      <point x="258.06" y="352.927" type="line"/>
      <point x="292.859" y="329.313" type="line" smooth="yes"/>
      <point x="314.231" y="314.811"/>
      <point x="348.896" y="275.831"/>
      <point x="348.896" y="199" type="curve" smooth="yes"/>
      <point x="348.896" y="104.036"/>
      <point x="264.377" y="40.0303"/>
    </contour>
    <contour>
      <point x="135.896" y="593.222" type="line"/>
      <point x="117.552" y="588.235"/>
      <point x="103.041" y="579.335"/>
      <point x="92.4834" y="569.3" type="curve"/>
      <point x="27.4668" y="607.941" type="line"/>
      <point x="53.7246" y="641.456"/>
      <point x="90.1787" y="664.849"/>
      <point x="135.896" y="671.306" type="curve"/>
    </contour>
  </outline>
</glyph>
<glyph name="four" format="1">
  <advance width="383"/>
  <unicode hex="0034"/>
  <outline>
    <contour>
      <point x="303" y="247" type="line"/>
      <point x="357" y="247" type="line"/>
      <point x="357" y="170" type="line"/>
      <point x="303" y="170" type="line"/>
      <point x="303" y="25" type="line"/>
      <point x="227.111" y="25" type="line"/>
      <point x="227.111" y="676" type="line"/>
      <point x="303" y="676" type="line"/>
    </contour>
    <contour>
      <point x="101.514" y="247" type="line"/>
      <point x="159.671" y="247" type="line"/>
      <point x="159.671" y="170" type="line"/>
      <point x="26" y="170" type="line"/>
      <point x="26" y="265.246" type="line"/>
      <point x="159.671" y="505.457" type="line"/>
      <point x="159.671" y="357.748" type="line"/>
    </contour>
  </outline>
</glyph>
<glyph name="five" format="1">
  <advance width="392"/>
  <unicode hex="0035"/>
  <outline>
    <contour>
      <point x="35.5342" y="99.3105" type="curve"/>
      <point x="98.2695" y="140.728" type="line"/>
      <point x="114.843" y="122.372"/>
      <point x="134.456" y="112.521"/>
      <point x="151.433" y="106.53" type="curve"/>
      <point x="151.433" y="26.5938" type="line"/>
      <point x="99.2197" y="33.8652"/>
      <point x="61.1924" y="61.8633"/>
    </contour>
    <contour>
      <point x="219.081" y="343.299" type="curve"/>
      <point x="219.081" y="420.117" type="line"/>
      <point x="315.603" y="405.542"/>
      <point x="364.806" y="316.947"/>
      <point x="364.806" y="223" type="curve" smooth="yes"/>
      <point x="364.806" y="106.939"/>
      <point x="288.84" y="40.042"/>
      <point x="219.081" y="27.2207" type="curve"/>
      <point x="219.081" y="106.869" type="line"/>
      <point x="257.306" y="125.149"/>
      <point x="286.806" y="170.613"/>
      <point x="286.806" y="224" type="curve" smooth="yes"/>
      <point x="286.806" y="283.854"/>
      <point x="247.559" y="328.037"/>
    </contour>
    <contour>
      <point x="307.806" y="675" type="line"/>
      <point x="307.806" y="598.896" type="line"/>
      <point x="121.982" y="597.904" type="line"/>
      <point x="104.758" y="409.87" type="line"/>
      <point x="138.428" y="417.641" type="line" smooth="yes"/>
      <point x="142.925" y="418.678"/>
      <point x="147.757" y="419.564"/>
      <point x="151.433" y="420.296" type="curve"/>
      <point x="151.433" y="344.628" type="line"/>
      <point x="132.021" y="338.462"/>
      <point x="116.73" y="327.869"/>
      <point x="105.649" y="317.961" type="curve"/>
      <point x="26" y="367.198" type="line"/>
      <point x="51.7988" y="675" type="line"/>
    </contour>
  </outline>
</glyph>
<glyph name="six" format="1">
  <advance width="397"/>
  <unicode hex="0036"/>
  <outline>
    <contour>
      <point x="26" y="358" type="curve" smooth="yes"/>
      <point x="26" y="468.738"/>
      <point x="54.4326" y="631.335"/>
      <point x="168.244" y="666.508" type="curve"/>
      <point x="168.244" y="590.873" type="line"/>
      <point x="106.793" y="559.363"/>
      <point x="100" y="442.481"/>
      <point x="100" y="399" type="curve" smooth="yes"/>
      <point x="100" y="347.411" type="line"/>
      <point x="140.491" y="379.378" type="line" smooth="yes"/>
      <point x="149.301" y="386.501"/>
      <point x="159.173" y="393.589"/>
      <point x="168.244" y="396.927" type="curve"/>
      <point x="168.244" y="325.465" type="line"/>
      <point x="148.182" y="313.255"/>
      <point x="110" y="280.68"/>
      <point x="110" y="209" type="curve" smooth="yes"/>
      <point x="110" y="165.162"/>
      <point x="137.851" y="120.755"/>
      <point x="168.244" y="104.702" type="curve"/>
      <point x="168.244" y="25.54" type="line"/>
      <point x="52.6826" y="41.9014"/>
      <point x="26" y="191.936"/>
    </contour>
    <contour>
      <point x="340.304" y="606.988" type="curve"/>
      <point x="284.67" y="570.095" type="line"/>
      <point x="270.061" y="584.45"/>
      <point x="252.747" y="593.958"/>
      <point x="237.401" y="597.051" type="curve"/>
      <point x="237.401" y="671.412" type="line"/>
      <point x="279.657" y="665.032"/>
      <point x="314.081" y="641.673"/>
    </contour>
    <contour>
      <point x="237.96" y="327.412" type="curve"/>
      <point x="237.554" y="398.39" type="line"/>
      <point x="321.837" y="386.545"/>
      <point x="371" y="309.917"/>
      <point x="371" y="209" type="curve" smooth="yes"/>
      <point x="371" y="106.9"/>
      <point x="306.992" y="39.4053"/>
      <point x="237.401" y="26.2812" type="curve"/>
      <point x="237.401" y="103.359" type="line"/>
      <point x="270.594" y="117.234"/>
      <point x="306" y="154.696"/>
      <point x="306" y="208" type="curve" smooth="yes"/>
      <point x="306" y="284.021"/>
      <point x="262.176" y="316.07"/>
    </contour>
  </outline>
</glyph>
<glyph name="seven" format="1">
  <advance width="335"/>
  <unicode hex="0037"/>
  <outline>
    <contour>
      <point x="138.973" y="25" type="line"/>
      <point x="148.738" y="165.213"/>
      <point x="160.439" y="288.035"/>
      <point x="177.333" y="425" type="curve"/>
      <point x="248.814" y="425" type="line"/>
      <point x="215.372" y="291.528"/>
      <point x="190.868" y="161.416"/>
      <point x="181.219" y="25" type="curve"/>
    </contour>
    <contour>
      <point x="20" y="597" type="line"/>
      <point x="20" y="673" type="line"/>
      <point x="309" y="673" type="line"/>
      <point x="309" y="582.71" type="line"/>
      <point x="298.024" y="569.257"/>
      <point x="287.509" y="551.136"/>
      <point x="279.616" y="535" type="curve"/>
      <point x="197.485" y="535" type="line"/>
      <point x="221.485" y="597" type="line"/>
    </contour>
  </outline>
</glyph>
<glyph name="eight" format="1">
  <advance width="386"/>
  <unicode hex="0038"/>
  <outline>
    <contour>
      <point x="104" y="201" type="curve" smooth="yes"/>
      <point x="104" y="159.801"/>
      <point x="128.855" y="124.614"/>
      <point x="157.167" y="107.968" type="curve"/>
      <point x="156.767" y="29.5322" type="line"/>
      <point x="108.36" y="45.4219"/>
      <point x="26" y="95.9434"/>
      <point x="26" y="199" type="curve" smooth="yes"/>
      <point x="26" y="261.028"/>
      <point x="61.2568" y="315.569"/>
      <point x="80.0371" y="328.313" type="curve" smooth="yes"/>
      <point x="128.474" y="361.181" type="line"/>
      <point x="74.8516" y="372.671" type="line"/>
      <point x="62.5078" y="384.766"/>
      <point x="33" y="435.568"/>
      <point x="33" y="499" type="curve" smooth="yes"/>
      <point x="33" y="588.611"/>
      <point x="106.395" y="653.447"/>
      <point x="158.531" y="669.29" type="curve"/>
      <point x="158.531" y="589.354" type="line"/>
      <point x="137.291" y="577.487"/>
      <point x="107" y="549.171"/>
      <point x="107" y="497" type="curve" smooth="yes"/>
      <point x="107" y="446.544"/>
      <point x="127.695" y="412.233"/>
      <point x="157.893" y="395.781" type="curve"/>
      <point x="157.893" y="300.422" type="line"/>
      <point x="128.465" y="284.251"/>
      <point x="104" y="251.559"/>
    </contour>
    <contour>
      <point x="229.233" y="29.5322" type="curve"/>
      <point x="228.833" y="107.968" type="line"/>
      <point x="258.649" y="125.373"/>
      <point x="282" y="160.378"/>
      <point x="282" y="201" type="curve" smooth="yes"/>
      <point x="282" y="252.197"/>
      <point x="256.102" y="284.922"/>
      <point x="228.107" y="300.422" type="curve"/>
      <point x="228.107" y="395.781" type="line"/>
      <point x="259.613" y="412.844"/>
      <point x="279" y="447.209"/>
      <point x="279" y="497" type="curve" smooth="yes"/>
      <point x="279" y="549.886"/>
      <point x="247.166" y="578.173"/>
      <point x="227.469" y="589.354" type="curve"/>
      <point x="227.469" y="669.275" type="line"/>
      <point x="280.368" y="653.129"/>
      <point x="352" y="588.214"/>
      <point x="352" y="499" type="curve" smooth="yes"/>
      <point x="352" y="434.984"/>
      <point x="322.333" y="383.871"/>
      <point x="311.062" y="372.652" type="curve"/>
      <point x="257.526" y="361.181" type="line"/>
      <point x="305.963" y="328.313" type="line" smooth="yes"/>
      <point x="324.742" y="315.569"/>
      <point x="360" y="261.027"/>
      <point x="360" y="199" type="curve" smooth="yes"/>
      <point x="360" y="95.4717"/>
      <point x="276.527" y="45.0879"/>
    </contour>
  </outline>
</glyph>
<glyph name="nine" format="1">
  <advance width="404"/>
  <unicode hex="0039"/>
  <outline>
    <contour>
      <point x="378" y="341" type="curve" smooth="yes"/>
      <point x="378" y="228.627"/>
      <point x="344.359" y="52.4502"/>
      <point x="232.599" y="29.5557" type="curve"/>
      <point x="232.599" y="108.893" type="line"/>
      <point x="300.047" y="143.733"/>
      <point x="299" y="255.128"/>
      <point x="299" y="300" type="curve" smooth="yes"/>
      <point x="299" y="351.589" type="line"/>
      <point x="258.509" y="319.622" type="line" smooth="yes"/>
      <point x="251.131" y="312.314"/>
      <point x="242.345" y="305.867"/>
      <point x="232.599" y="302.143" type="curve"/>
      <point x="232.599" y="373.535" type="line"/>
      <point x="252.875" y="385.745"/>
      <point x="290" y="418.32"/>
      <point x="290" y="490" type="curve" smooth="yes"/>
      <point x="290" y="533.838"/>
      <point x="262.149" y="578.245"/>
      <point x="232.599" y="594.298" type="curve"/>
      <point x="232.599" y="673.465" type="line"/>
      <point x="348.034" y="657.118"/>
      <point x="378" y="506.505"/>
    </contour>
    <contour>
      <point x="51.7549" y="106.848" type="curve"/>
      <point x="111.357" y="144.776" type="line"/>
      <point x="125.143" y="128.102"/>
      <point x="141.617" y="113.659"/>
      <point x="161.881" y="106.278" type="curve"/>
      <point x="161.881" y="28.0225" type="line"/>
      <point x="119.688" y="35.958"/>
      <point x="78.3711" y="66.9678"/>
    </contour>
    <contour>
      <point x="161.308" y="371.632" type="curve"/>
      <point x="161.726" y="300.378" type="line"/>
      <point x="75.875" y="310.905"/>
      <point x="26" y="377.582"/>
      <point x="26" y="485" type="curve" smooth="yes"/>
      <point x="26" y="586.865"/>
      <point x="92.3262" y="658.556"/>
      <point x="161.881" y="672.599" type="curve"/>
      <point x="161.881" y="595.617" type="line"/>
      <point x="129.166" y="581.479"/>
      <point x="95" y="543.893"/>
      <point x="95" y="491" type="curve" smooth="yes"/>
      <point x="95" y="415.338"/>
      <point x="137.659" y="383.212"/>
    </contour>
  </outline>
</glyph>
<glyph name="colon" format="1">
  <advance width="250"/>
  <unicode hex="003A"/>
  <outline>
    <contour>
      <point x="75" y="360" type="curve" smooth="yes"/>
      <point x="75" y="388.649"/>
      <point x="97.1121" y="411"/>
      <point x="125" y="411" type="curve" smooth="yes"/>
      <point x="152.888" y="411"/>
      <point x="175" y="388.649"/>
      <point x="175" y="360" type="curve" smooth="yes"/>
      <point x="175" y="331.666"/>
      <point x="153.333" y="310"/>
      <point x="125" y="310" type="curve" smooth="yes"/>
      <point x="96.6663" y="310"/>
      <point x="75" y="331.667"/>
    </contour>
    <contour>
      <point x="75" y="70" type="curve" smooth="yes"/>
      <point x="75" y="98.6491"/>
      <point x="97.1121" y="121"/>
      <point x="125" y="121" type="curve" smooth="yes"/>
      <point x="152.888" y="121"/>
      <point x="175" y="98.6489"/>
      <point x="175" y="70" type="curve" smooth="yes"/>
      <point x="175" y="41.6663"/>
      <point x="153.333" y="20"/>
      <point x="125" y="20" type="curve" smooth="yes"/>
      <point x="96.6663" y="20"/>
      <point x="75" y="41.6666"/>
    </contour>
  </outline>
</glyph>
<glyph name="semicolon" format="1">
  <advance width="291"/>
  <unicode hex="003B"/>
  <outline>
    <contour>
      <point x="157.356" y="2" type="line"/>
      <point x="81.8155" y="2" type="line"/>
      <point x="106.644" y="104" type="line"/>
      <point x="182.184" y="104" type="line"/>
    </contour>
    <contour>
      <point x="116" y="360" type="curve" smooth="yes"/>
      <point x="116" y="388.649"/>
      <point x="138.112" y="411"/>
      <point x="166" y="411" type="curve" smooth="yes"/>
      <point x="193.888" y="411"/>
      <point x="216" y="388.649"/>
      <point x="216" y="360" type="curve" smooth="yes"/>
      <point x="216" y="331.666"/>
      <point x="194.333" y="310"/>
      <point x="166" y="310" type="curve" smooth="yes"/>
      <point x="137.666" y="310"/>
      <point x="116" y="331.667"/>
    </contour>
  </outline>
</glyph>
<glyph name="less" format="1">
  <advance width="414"/>
  <unicode hex="003C"/>
  <outline>
    <contour>
      <point x="359" y="459.447" type="line"/>
      <point x="359" y="386.266" type="line"/>
      <point x="148.793" y="293.106" type="line"/>
      <point x="359" y="190.391" type="line"/>
      <point x="359" y="119.656" type="line"/>
      <point x="55" y="273.373" type="line"/>
      <point x="55" y="306.588" type="line"/>
    </contour>
  </outline>
</glyph>
<glyph name="equal" format="1">
  <advance width="418"/>
  <unicode hex="003D"/>
  <outline>
    <contour>
      <point x="343" y="427" type="line"/>
      <point x="343" y="350" type="line"/>
      <point x="75" y="350" type="line"/>
      <point x="75" y="427" type="line"/>
    </contour>
    <contour>
      <point x="343" y="233" type="line"/>
      <point x="343" y="156" type="line"/>
      <point x="75" y="156" type="line"/>
      <point x="75" y="233" type="line"/>
    </contour>
  </outline>
</glyph>
<glyph name="greater" format="1">
  <advance width="414"/>
  <unicode hex="003E"/>
  <outline>
    <contour>
      <point x="55" y="459.447" type="line"/>
      <point x="359" y="306.588" type="line"/>
      <point x="359" y="273.373" type="line"/>
      <point x="55" y="119.656" type="line"/>
      <point x="55" y="190.391" type="line"/>
      <point x="265.207" y="293.106" type="line"/>
      <point x="55" y="386.266" type="line"/>
    </contour>
  </outline>
</glyph>
<glyph name="question" format="1">
  <advance width="460"/>
  <unicode hex="003F"/>
  <outline>
    <contour>
      <point x="111.579" y="562.444" type="curve"/>
      <point x="63.5604" y="612.22" type="line"/>
      <point x="92.4564" y="644.462"/>
      <point x="134.245" y="678"/>
      <point x="218" y="678" type="curve" smooth="yes"/>
      <point x="332.979" y="678"/>
      <point x="401.025" y="607.268"/>
      <point x="405" y="490.619" type="curve"/>
      <point x="405" y="481" type="line" smooth="yes"/>
      <point x="405" y="312.89"/>
      <point x="264.817" y="301.264"/>
      <point x="260.971" y="300.918" type="curve"/>
      <point x="238" y="299.09" type="line"/>
      <point x="238" y="191" type="line"/>
      <point x="159" y="191" type="line"/>
      <point x="159" y="361.624" type="line"/>
      <point x="261.735" y="365.353"/>
      <point x="327" y="389.303"/>
      <point x="327" y="493" type="curve" smooth="yes"/>
      <point x="327" y="562.439"/>
      <point x="266.257" y="600"/>
      <point x="210" y="600" type="curve" smooth="yes"/>
      <point x="170.143" y="600"/>
      <point x="136.458" y="584.58"/>
    </contour>
    <contour>
      <point x="147" y="53" type="curve" smooth="yes"/>
      <point x="147" y="81.6491"/>
      <point x="169.112" y="104"/>
      <point x="197" y="104" type="curve" smooth="yes"/>
      <point x="225.203" y="104"/>
      <point x="248" y="81.2024"/>
      <point x="248" y="53" type="curve" smooth="yes"/>
      <point x="248" y="25.1118"/>
      <point x="225.649" y="3"/>
      <point x="197" y="3" type="curve" smooth="yes"/>
      <point x="168.666" y="3"/>
      <point x="147" y="24.6666"/>
    </contour>
  </outline>
</glyph>
<glyph name="at" format="1">
  <advance width="803"/>
  <unicode hex="0040"/>
  <outline>
    <contour>
      <point x="658.144" y="67.2018" type="curve"/>
      <point x="685.399" y="17.5987" type="line"/>
      <point x="627.541" y="-27.8744"/>
      <point x="523.101" y="-62"/>
      <point x="423" y="-62" type="curve" smooth="yes"/>
      <point x="205.75" y="-62"/>
      <point x="41" y="61.698"/>
      <point x="41" y="309" type="curve" smooth="yes"/>
      <point x="41" y="518.855"/>
      <point x="203.705" y="690"/>
      <point x="448" y="690" type="curve" smooth="yes"/>
      <point x="601.352" y="690"/>
      <point x="761" y="593.926"/>
      <point x="761" y="412" type="curve" smooth="yes"/>
      <point x="761" y="273.903"/>
      <point x="702.81" y="198.526"/>
      <point x="632.785" y="164.015" type="curve" smooth="yes"/>
      <point x="601.068" y="148.384"/>
      <point x="566.157" y="141"/>
      <point x="532" y="141" type="curve" smooth="yes"/>
      <point x="502.573" y="141"/>
      <point x="481.305" y="158.068"/>
      <point x="476.077" y="170.615" type="curve" smooth="yes"/>
      <point x="457.642" y="214.86" type="line"/>
      <point x="431.908" y="174.422" type="line" smooth="yes"/>
      <point x="423.292" y="160.882"/>
      <point x="400.843" y="141"/>
      <point x="344" y="141" type="curve" smooth="yes"/>
      <point x="286.348" y="141"/>
      <point x="230" y="202.25"/>
      <point x="230" y="289" type="curve" smooth="yes"/>
      <point x="230" y="429.11"/>
      <point x="339.86" y="494"/>
      <point x="409" y="494" type="curve" smooth="yes"/>
      <point x="464.937" y="494"/>
      <point x="477.497" y="475.118"/>
      <point x="491.762" y="459.901" type="curve" smooth="yes"/>
      <point x="521.583" y="428.092" type="line"/>
      <point x="536.667" y="479" type="line"/>
      <point x="569.822" y="479" type="line"/>
      <point x="527.827" y="314.379" type="line"/>
      <point x="524.696" y="302.901"/>
      <point x="520" y="284.343"/>
      <point x="520" y="266" type="curve" smooth="yes"/>
      <point x="520" y="246.662"/>
      <point x="529.626" y="215"/>
      <point x="563" y="215" type="curve" smooth="yes"/>
      <point x="616.287" y="215"/>
      <point x="691" y="271.611"/>
      <point x="691" y="412" type="curve" smooth="yes"/>
      <point x="691" y="462.613"/>
      <point x="671.898" y="506.341"/>
      <point x="642.852" y="540.175" type="curve" smooth="yes"/>
      <point x="594.568" y="596.417"/>
      <point x="519.419" y="627"/>
      <point x="451" y="627" type="curve" smooth="yes"/>
      <point x="272.749" y="627"/>
      <point x="111" y="497.169"/>
      <point x="111" y="312" type="curve" smooth="yes"/>
      <point x="111" y="108.616"/>
      <point x="247.699" y="-3"/>
      <point x="414" y="-3" type="curve" smooth="yes"/>
      <point x="497.562" y="-3"/>
      <point x="580.703" y="19.246"/>
    </contour>
  </outline>
</glyph>
<glyph name="A" format="1">
  <advance width="416"/>
  <unicode hex="0041"/>
  <outline>
    <contour>
      <point x="254.976" y="198" type="line"/>
      <point x="183.606" y="674" type="line"/>
      <point x="243.223" y="674" type="line"/>
      <point x="377.875" y="25" type="line"/>
      <point x="291.652" y="25" type="line"/>
      <point x="271.652" y="110" type="line"/>
      <point x="210.049" y="110" type="line"/>
      <point x="223.052" y="198" type="line"/>
    </contour>
    <contour>
      <point x="26" y="25" type="line"/>
      <point x="131.066" y="499.02" type="line"/>
      <point x="165.461" y="302.052" type="line"/>
      <point x="112.726" y="25" type="line"/>
    </contour>
  </outline>
</glyph>
<glyph name="B" format="1">
  <advance width="384"/>
  <unicode hex="0042"/>
  <outline>
    <contour>
      <point x="26" y="25" type="line"/>
      <point x="26" y="675" type="line"/>
      <point x="117" y="675" type="line"/>
      <point x="117" y="25" type="line"/>
    </contour>
    <contour>
      <point x="194.532" y="23.041" type="curve"/>
      <point x="194.532" y="98.5244" type="line"/>
      <point x="254.684" y="109.547"/>
      <point x="274" y="173.448"/>
      <point x="274" y="205" type="curve" smooth="yes"/>
      <point x="274" y="232.499"/>
      <point x="257.548" y="300.44"/>
      <point x="194.532" y="312.458" type="curve"/>
      <point x="194.532" y="387.836" type="line"/>
      <point x="231.814" y="397.071"/>
      <point x="272" y="438.78"/>
      <point x="272" y="497" type="curve" smooth="yes"/>
      <point x="272" y="556.735"/>
      <point x="228.398" y="592.238"/>
      <point x="194.532" y="600.048" type="curve"/>
      <point x="194.532" y="675.998" type="line"/>
      <point x="305.588" y="675.362"/>
      <point x="354" y="562.92"/>
      <point x="354" y="514" type="curve" smooth="yes"/>
      <point x="354" y="513.136" type="line"/>
      <point x="353.074" y="427.923"/>
      <point x="324.479" y="393.898"/>
      <point x="295.092" y="372.068" type="curve" smooth="yes"/>
      <point x="268.89" y="352.604" type="line"/>
      <point x="294.509" y="332.378" type="line" smooth="yes"/>
      <point x="329.835" y="304.489"/>
      <point x="358" y="276.548"/>
      <point x="358" y="201" type="curve" smooth="yes"/>
      <point x="358" y="197.112" type="line"/>
      <point x="357.131" y="100.657"/>
      <point x="278.175" y="23"/>
      <point x="196.431" y="23" type="curve" smooth="yes"/>
      <point x="195.839" y="23"/>
      <point x="194.984" y="23.0254"/>
    </contour>
  </outline>
</glyph>
<glyph name="C" format="1">
  <advance width="394"/>
  <unicode hex="0043"/>
  <outline>
    <contour>
      <point x="32" y="518" type="line" smooth="yes"/>
      <point x="32" y="565.105"/>
      <point x="73.917" y="664.95"/>
      <point x="170.325" y="678.474" type="curve"/>
      <point x="170.325" y="585.278" type="line"/>
      <point x="133.687" y="571.521"/>
      <point x="123" y="531.033"/>
      <point x="123" y="518" type="curve" smooth="yes"/>
      <point x="123" y="181" type="line" smooth="yes"/>
      <point x="123" y="166.448"/>
      <point x="134.02" y="128.161"/>
      <point x="170.325" y="114.324" type="curve"/>
      <point x="170.325" y="21.5127" type="line"/>
      <point x="72.5889" y="35.1426"/>
      <point x="32" y="134.524"/>
      <point x="32" y="181" type="curve" smooth="yes"/>
    </contour>
    <contour>
      <point x="236.919" y="22.3135" type="curve"/>
      <point x="236.919" y="118.375" type="line"/>
      <point x="245.575" y="124.141"/>
      <point x="263.481" y="134.309"/>
      <point x="273.003" y="156.208" type="curve"/>
      <point x="277.084" y="166.001"/>
      <point x="278.694" y="175.215"/>
      <point x="279.46" y="183.446" type="curve"/>
      <point x="366.775" y="162.566" type="line"/>
      <point x="357.565" y="90.2012"/>
      <point x="297.04" y="34.2334"/>
    </contour>
    <contour>
      <point x="273.003" y="541.792" type="curve"/>
      <point x="263.289" y="564.136"/>
      <point x="244.02" y="575.204"/>
      <point x="236.919" y="580.793" type="curve"/>
      <point x="236.919" y="677.306" type="line"/>
      <point x="296.706" y="663.746"/>
      <point x="356.851" y="600.04"/>
      <point x="366.581" y="534.945" type="curve"/>
      <point x="279.629" y="512.262" type="line"/>
      <point x="278.832" y="523.216"/>
      <point x="277.492" y="531.019"/>
    </contour>
  </outline>
</glyph>
<glyph name="D" format="1">
  <advance width="352"/>
  <unicode hex="0044"/>
  <outline>
    <contour>
      <point x="123" y="25" type="line"/>
      <point x="32" y="25" type="line"/>
      <point x="32" y="675" type="line"/>
      <point x="123" y="675" type="line"/>
    </contour>
    <contour>
      <point x="324" y="197" type="line" smooth="yes"/>
      <point x="324" y="87.1719"/>
      <point x="236.911" y="39.6152"/>
      <point x="189.531" y="27.7314" type="curve"/>
      <point x="189.531" y="121.174" type="line"/>
      <point x="200.048" y="129.098"/>
      <point x="232.032" y="150.303"/>
      <point x="233" y="196.739" type="curve"/>
      <point x="233" y="503" type="line" smooth="yes"/>
      <point x="233" y="513.691"/>
      <point x="226.352" y="562.617"/>
      <point x="189.531" y="579.96" type="curve"/>
      <point x="189.531" y="673.379" type="line"/>
      <point x="282.452" y="658.838"/>
      <point x="324" y="553.232"/>
      <point x="324" y="503" type="curve" smooth="yes"/>
    </contour>
  </outline>
</glyph>
<glyph name="E" format="1">
  <advance width="372"/>
  <unicode hex="0045"/>
  <outline>
    <contour>
      <point x="123" y="116" type="line"/>
      <point x="346" y="116" type="line"/>
      <point x="346" y="25" type="line"/>
      <point x="32" y="25" type="line"/>
      <point x="32" y="675" type="line"/>
      <point x="346" y="675" type="line"/>
      <point x="346" y="585" type="line"/>
      <point x="123" y="585" type="line"/>
      <point x="123" y="393" type="line"/>
      <point x="252" y="393" type="line"/>
      <point x="252" y="302" type="line"/>
      <point x="123" y="302" type="line"/>
    </contour>
  </outline>
</glyph>
<glyph name="F" format="1">
  <advance width="372"/>
  <unicode hex="0046"/>
  <outline>
    <contour>
      <point x="123" y="393" type="line"/>
      <point x="252" y="393" type="line"/>
      <point x="252" y="302" type="line"/>
      <point x="123" y="302" type="line"/>
      <point x="123" y="26" type="line"/>
      <point x="32" y="26" type="line"/>
      <point x="32" y="675" type="line"/>
      <point x="346" y="675" type="line"/>
      <point x="346" y="585" type="line"/>
      <point x="123" y="585" type="line"/>
    </contour>
  </outline>
</glyph>
<glyph name="G" format="1">
  <advance width="393"/>
  <unicode hex="0047"/>
  <outline>
    <contour>
      <point x="163.698" y="116.868" type="curve"/>
      <point x="163.698" y="22.9023" type="line"/>
      <point x="111.495" y="35.5352"/>
      <point x="26" y="85.2695"/>
      <point x="26" y="192" type="curve" smooth="yes"/>
      <point x="26" y="522.4" type="line"/>
      <point x="33.3438" y="576.931"/>
      <point x="77.8516" y="665.341"/>
      <point x="163.698" y="678.35" type="curve"/>
      <point x="163.698" y="584.735" type="line"/>
      <point x="122.682" y="566.622"/>
      <point x="117" y="518.6"/>
      <point x="117" y="508" type="curve" smooth="yes"/>
      <point x="117" y="191.729" type="line"/>
      <point x="118.003" y="145.577"/>
      <point x="151.45" y="124.442"/>
    </contour>
    <contour>
      <point x="230.352" y="328" type="line"/>
      <point x="361" y="328" type="line"/>
      <point x="361" y="176" type="line" smooth="yes"/>
      <point x="361" y="120.561"/>
      <point x="290.42" y="41.9219"/>
      <point x="230.352" y="23.8857" type="curve"/>
      <point x="230.352" y="119.729" type="line"/>
      <point x="243.705" y="130.675"/>
      <point x="269" y="152.713"/>
      <point x="269" y="190" type="curve" smooth="yes"/>
      <point x="269" y="248" type="line"/>
      <point x="230.352" y="248" type="line"/>
    </contour>
    <contour>
      <point x="266.003" y="541.792" type="curve"/>
      <point x="256.289" y="564.136"/>
      <point x="237.415" y="575.204"/>
      <point x="230.352" y="580.793" type="curve"/>
      <point x="230.352" y="677.36" type="line"/>
      <point x="291.128" y="663.629"/>
      <point x="350.782" y="599.591"/>
      <point x="359.871" y="532.996" type="curve"/>
      <point x="272.986" y="500.887" type="line"/>
      <point x="272.858" y="514.435"/>
      <point x="272.375" y="526.499"/>
    </contour>
  </outline>
</glyph>
<glyph name="H" format="1">
  <advance width="358"/>
  <unicode hex="0048"/>
  <outline>
    <contour>
      <point x="235" y="396" type="line"/>
      <point x="235" y="675" type="line"/>
      <point x="326" y="675" type="line"/>
      <point x="326" y="25" type="line"/>
      <point x="235" y="25" type="line"/>
      <point x="235" y="308" type="line"/>
      <point x="206" y="308" type="line"/>
      <point x="206" y="396" type="line"/>
    </contour>
    <contour>
      <point x="123" y="396" type="line"/>
      <point x="152" y="396" type="line"/>
      <point x="152" y="308" type="line"/>
      <point x="123" y="308" type="line"/>
      <point x="123" y="25" type="line"/>
      <point x="32" y="25" type="line"/>
      <point x="32" y="675" type="line"/>
      <point x="123" y="675" type="line"/>
    </contour>
  </outline>
</glyph>
<glyph name="I" format="1">
  <advance width="159"/>
  <unicode hex="0049"/>
  <outline>
    <contour>
      <point x="34" y="25" type="line"/>
      <point x="34" y="675" type="line"/>
      <point x="125" y="675" type="line"/>
      <point x="125" y="25" type="line"/>
    </contour>
  </outline>
</glyph>
<glyph name="J" format="1">
  <advance width="395"/>
  <unicode hex="004A"/>
  <outline>
    <contour>
      <point x="363" y="193" type="line" smooth="yes"/>
      <point x="363" y="85.7275"/>
      <point x="276.197" y="35.5078"/>
      <point x="225.185" y="22.959" type="curve"/>
      <point x="225.185" y="117.772" type="line"/>
      <point x="238.549" y="125.745"/>
      <point x="272.002" y="146.827"/>
      <point x="273" y="192.729" type="curve"/>
      <point x="273" y="675" type="line"/>
      <point x="363" y="675" type="line"/>
    </contour>
    <contour>
      <point x="158.001" y="118.88" type="curve"/>
      <point x="158.001" y="23.3545" type="line"/>
      <point x="104.803" y="37.5215"/>
      <point x="26" y="90.3223"/>
      <point x="26" y="193" type="curve" smooth="yes"/>
      <point x="26" y="217" type="line"/>
      <point x="117" y="217" type="line"/>
      <point x="117" y="192.729" type="line"/>
      <point x="117.931" y="149.897"/>
      <point x="145.277" y="127.485"/>
    </contour>
  </outline>
</glyph>
<glyph name="K" format="1">
  <advance width="375"/>
  <unicode hex="004B"/>
  <outline>
    <contour>
      <point x="26" y="25" type="line"/>
      <point x="26" y="675" type="line"/>
      <point x="117" y="675" type="line"/>
      <point x="117" y="25" type="line"/>
    </contour>
    <contour>
      <point x="184.64" y="341.362" type="line"/>
      <point x="257.636" y="675" type="line"/>
      <point x="344.552" y="675" type="line"/>
      <point x="245.837" y="340.674" type="line"/>
      <point x="347.667" y="25" type="line"/>
      <point x="262.103" y="25" type="line"/>
    </contour>
  </outline>
</glyph>
<glyph name="L" format="1">
  <advance width="378"/>
  <unicode hex="004C"/>
  <outline>
    <contour>
      <point x="117" y="114" type="line"/>
      <point x="352" y="114" type="line"/>
      <point x="352" y="25" type="line"/>
      <point x="26" y="25" type="line"/>
      <point x="26" y="675" type="line"/>
      <point x="117" y="675" type="line"/>
    </contour>
  </outline>
</glyph>
<glyph name="M" format="1">
  <advance width="576"/>
  <unicode hex="004D"/>
  <outline>
    <contour>
      <point x="453" y="25" type="line"/>
      <point x="453" y="675" type="line"/>
      <point x="544" y="675" type="line"/>
      <point x="544" y="25" type="line"/>
    </contour>
    <contour>
      <point x="32" y="612.994" type="line"/>
      <point x="32" y="675" type="line"/>
      <point x="100.27" y="675" type="line"/>
      <point x="283.09" y="173.461" type="line"/>
      <point x="360.403" y="380.516" type="line"/>
      <point x="360.403" y="156.297" type="line"/>
      <point x="311.356" y="25" type="line"/>
      <point x="257.418" y="25" type="line"/>
    </contour>
    <contour>
      <point x="123" y="25" type="line"/>
      <point x="32" y="25" type="line"/>
      <point x="32" y="340.541" type="line"/>
      <point x="123" y="122.003" type="line"/>
    </contour>
  </outline>
</glyph>
<glyph name="N" format="1">
  <advance width="409"/>
  <unicode hex="004E"/>
  <outline>
    <contour>
      <point x="32" y="615.138" type="line"/>
      <point x="32" y="675" type="line"/>
      <point x="108.089" y="675" type="line"/>
      <point x="377" y="160.876" type="line"/>
      <point x="377" y="25" type="line"/>
      <point x="348.895" y="25" type="line"/>
    </contour>
    <contour>
      <point x="286" y="675" type="line"/>
      <point x="377" y="675" type="line"/>
      <point x="377" y="358.715" type="line"/>
      <point x="286" y="505.136" type="line"/>
    </contour>
    <contour>
      <point x="123" y="25" type="line"/>
      <point x="32" y="25" type="line"/>
      <point x="32" y="417.285" type="line"/>
      <point x="123" y="270.864" type="line"/>
    </contour>
  </outline>
</glyph>
<glyph name="O" format="1">
  <advance width="408"/>
  <unicode hex="004F"/>
  <outline>
    <contour>
      <point x="378" y="195" type="line" smooth="yes"/>
      <point x="378" y="87.9307"/>
      <point x="291.005" y="36.2793"/>
      <point x="238.922" y="23.0596" type="curve"/>
      <point x="238.922" y="118.262" type="line"/>
      <point x="253.236" y="127.17"/>
      <point x="286.002" y="148.806"/>
      <point x="287" y="194.729" type="curve"/>
      <point x="287" y="508" type="line" smooth="yes"/>
      <point x="287" y="520.073"/>
      <point x="278.376" y="567.472"/>
      <point x="238.922" y="584.753" type="curve"/>
      <point x="238.922" y="678.248" type="line"/>
      <point x="328.224" y="664.309"/>
      <point x="378" y="566.839"/>
      <point x="378" y="524" type="curve" smooth="yes"/>
    </contour>
    <contour>
      <point x="168.407" y="118.278" type="curve"/>
      <point x="168.407" y="23.0723" type="line"/>
      <point x="115.186" y="36.5469"/>
      <point x="30" y="88.3379"/>
      <point x="30" y="195" type="curve" smooth="yes"/>
      <point x="30" y="524" type="line" smooth="yes"/>
      <point x="30" y="568.491"/>
      <point x="79.9219" y="664.603"/>
      <point x="169.078" y="678.291" type="curve"/>
      <point x="169.078" y="584.753" type="line"/>
      <point x="127.792" y="566.804"/>
      <point x="121" y="519.406"/>
      <point x="121" y="508" type="curve" smooth="yes"/>
      <point x="121" y="195" type="line" smooth="yes"/>
      <point x="121" y="148.188"/>
      <point x="156.175" y="125.785"/>
    </contour>
  </outline>
</glyph>
<glyph name="P" format="1">
  <advance width="374"/>
  <unicode hex="0050"/>
  <outline>
    <contour>
      <point x="26" y="25" type="line"/>
      <point x="26" y="675" type="line"/>
      <point x="117" y="675" type="line"/>
      <point x="117" y="25" type="line"/>
    </contour>
    <contour>
      <point x="192.435" y="343.484" type="curve"/>
      <point x="192.435" y="432" type="line"/>
      <point x="197.267" y="432" type="line" smooth="yes"/>
      <point x="201.529" y="432"/>
      <point x="255" y="435.196"/>
      <point x="255" y="508" type="curve" smooth="yes"/>
      <point x="255" y="580.509"/>
      <point x="203.63" y="586"/>
      <point x="197.267" y="586" type="curve" smooth="yes"/>
      <point x="192.435" y="586" type="line"/>
      <point x="192.435" y="674.476" type="line"/>
      <point x="319.628" y="667.842"/>
      <point x="348" y="610.021"/>
      <point x="348" y="512" type="curve" smooth="yes"/>
      <point x="348" y="389.467"/>
      <point x="300.085" y="348.73"/>
    </contour>
  </outline>
</glyph>
<glyph name="Q" format="1">
  <advance width="400"/>
  <unicode hex="0051"/>
  <outline>
    <contour>
      <point x="314.142" y="41.3271" type="curve" smooth="yes"/>
      <point x="296.284" y="26.6738" type="line"/>
      <point x="349.938" y="-50.3916" type="line"/>
      <point x="279.491" y="-97.5654" type="line"/>
      <point x="234.922" y="-22.1553" type="line"/>
      <point x="234.922" y="93.2617" type="line"/>
      <point x="249.236" y="102.17"/>
      <point x="282.002" y="123.806"/>
      <point x="283" y="169.729" type="curve"/>
      <point x="283" y="483" type="line" smooth="yes"/>
      <point x="283" y="495.073"/>
      <point x="274.376" y="542.472"/>
      <point x="234.922" y="559.753" type="curve"/>
      <point x="234.922" y="653.248" type="line"/>
      <point x="324.224" y="639.309"/>
      <point x="374" y="541.839"/>
      <point x="374" y="499" type="curve" smooth="yes"/>
      <point x="374" y="170" type="line" smooth="yes"/>
      <point x="374" y="109.945"/>
      <point x="348.405" y="69.4395"/>
    </contour>
    <contour>
      <point x="164.407" y="118.278" type="curve"/>
      <point x="164.407" y="23.0723" type="line"/>
      <point x="111.186" y="36.5469"/>
      <point x="26" y="88.3379"/>
      <point x="26" y="195" type="curve" smooth="yes"/>
      <point x="26" y="524" type="line" smooth="yes"/>
      <point x="26" y="568.491"/>
      <point x="75.9219" y="664.603"/>
      <point x="165.078" y="678.291" type="curve"/>
      <point x="165.078" y="584.753" type="line"/>
      <point x="123.792" y="566.804"/>
      <point x="117" y="519.406"/>
      <point x="117" y="508" type="curve" smooth="yes"/>
      <point x="117" y="195" type="line" smooth="yes"/>
      <point x="117" y="148.188"/>
      <point x="152.175" y="125.785"/>
    </contour>
  </outline>
</glyph>
<glyph name="R" format="1">
  <advance width="395"/>
  <unicode hex="0052"/>
  <outline>
    <contour>
      <point x="32" y="25" type="line"/>
      <point x="32" y="675" type="line"/>
      <point x="123" y="675" type="line"/>
      <point x="123" y="25" type="line"/>
    </contour>
    <contour>
      <point x="201.096" y="309.445" type="curve"/>
      <point x="201.096" y="386.43" type="line"/>
      <point x="243.136" y="391.263"/>
      <point x="276" y="438.107"/>
      <point x="276" y="488" type="curve" smooth="yes"/>
      <point x="276" y="547.27"/>
      <point x="235.766" y="586.415"/>
      <point x="201.096" y="591.481" type="curve"/>
      <point x="201.096" y="674.125" type="line"/>
      <point x="297.613" y="665.425"/>
      <point x="353" y="596.534"/>
      <point x="353" y="496" type="curve" smooth="yes"/>
      <point x="353" y="433.138"/>
      <point x="334.96" y="396.659"/>
      <point x="297.667" y="373.148" type="curve" smooth="yes"/>
      <point x="266.953" y="353.785" type="line"/>
      <point x="296" y="332" type="line" smooth="yes"/>
      <point x="323.638" y="311.271"/>
      <point x="348.567" y="258.03"/>
      <point x="352.076" y="215.048" type="curve" smooth="yes"/>
      <point x="366.965" y="25" type="line"/>
      <point x="290.981" y="25" type="line"/>
      <point x="277.907" y="180.153" type="line"/>
      <point x="271.298" y="254.749"/>
      <point x="244.565" y="301.112"/>
    </contour>
  </outline>
</glyph>
<glyph name="S" format="1">
  <advance width="397"/>
  <unicode hex="0053"/>
  <outline>
    <contour>
      <point x="160.537" y="111.64" type="curve"/>
      <point x="160.537" y="24.2246" type="line"/>
      <point x="94.5996" y="36.7998"/>
      <point x="45.5898" y="98.7305"/>
      <point x="33" y="141.377" type="curve"/>
      <point x="113.249" y="169.812" type="line"/>
      <point x="125.191" y="137.424"/>
      <point x="148.366" y="120.507"/>
    </contour>
    <contour>
      <point x="228.643" y="583.946" type="curve"/>
      <point x="228.643" y="672.466" type="line"/>
      <point x="277.154" y="659.969"/>
      <point x="319.154" y="605.707"/>
      <point x="336.352" y="568.845" type="curve"/>
      <point x="255.317" y="542.04" type="line"/>
      <point x="245.607" y="566.36"/>
      <point x="235.782" y="577.378"/>
    </contour>
    <contour>
      <point x="38.0596" y="508" type="curve" smooth="yes"/>
      <point x="38.0596" y="608.775"/>
      <point x="112.041" y="656.425"/>
      <point x="160.537" y="670.715" type="curve"/>
      <point x="160.537" y="583.848" type="line"/>
      <point x="140.366" y="569.625"/>
      <point x="122.06" y="543.163"/>
      <point x="122.06" y="513" type="curve" smooth="yes"/>
      <point x="122.06" y="420.502"/>
      <point x="219.356" y="403.282"/>
      <point x="255.299" y="372.502" type="curve"/>
      <point x="315.793" y="336.8"/>
      <point x="371.06" y="297.373"/>
      <point x="371.06" y="209" type="curve" smooth="yes"/>
      <point x="371.06" y="118.136"/>
      <point x="300.16" y="37.7324"/>
      <point x="228.643" y="24.0566" type="curve"/>
      <point x="228.643" y="107.772" type="line"/>
      <point x="247.836" y="119.198"/>
      <point x="280.06" y="149.67"/>
      <point x="280.06" y="203" type="curve" smooth="yes"/>
      <point x="280.06" y="303.427"/>
      <point x="180.057" y="323.171"/>
      <point x="146.857" y="345.548" type="curve" smooth="yes"/>
      <point x="80.1182" y="377.507"/>
      <point x="38.0596" y="413.975"/>
    </contour>
  </outline>
</glyph>
<glyph name="T" format="1">
  <advance width="385"/>
  <unicode hex="0054"/>
  <outline>
    <contour>
      <point x="26" y="675" type="line"/>
      <point x="359" y="675" type="line"/>
      <point x="359" y="587" type="line"/>
      <point x="221.423" y="587" type="line"/>
      <point x="221.423" y="25" type="line"/>
      <point x="163.577" y="25" type="line"/>
      <point x="163.577" y="587" type="line"/>
      <point x="26" y="587" type="line"/>
    </contour>
  </outline>
</glyph>
<glyph name="U" format="1">
  <advance width="412"/>
  <unicode hex="0055"/>
  <outline>
    <contour>
      <point x="379" y="193" type="line" smooth="yes"/>
      <point x="379" y="84.6768"/>
      <point x="293.121" y="35.2998"/>
      <point x="240.643" y="22.8398" type="curve"/>
      <point x="240.643" y="117.772" type="line"/>
      <point x="254.492" y="125.745"/>
      <point x="288.002" y="146.827"/>
      <point x="289" y="192.729" type="curve"/>
      <point x="289" y="675" type="line"/>
      <point x="379" y="675" type="line"/>
    </contour>
    <contour>
      <point x="171.026" y="117.772" type="curve"/>
      <point x="171.026" y="22.9473" type="line"/>
      <point x="118.409" y="35.7188"/>
      <point x="32" y="86.2695"/>
      <point x="32" y="193" type="curve" smooth="yes"/>
      <point x="32" y="675" type="line"/>
      <point x="123" y="675" type="line"/>
      <point x="123" y="192.729" type="line"/>
      <point x="124.015" y="146.06"/>
      <point x="158.412" y="125.035"/>
    </contour>
  </outline>
</glyph>
<glyph name="V" format="1">
  <advance width="408"/>
  <unicode hex="0056"/>
  <outline>
    <contour>
      <point x="273.397" y="675" type="line"/>
      <point x="364.975" y="675" type="line"/>
      <point x="334.167" y="573.547"/>
      <point x="302.733" y="467.606"/>
      <point x="270.87" y="360.975" type="curve"/>
      <point x="231.48" y="513.987" type="line"/>
    </contour>
    <contour>
      <point x="191.59" y="25" type="line"/>
      <point x="26" y="675" type="line"/>
      <point x="118" y="675" type="line"/>
      <point x="227.401" y="158.502" type="line"/>
      <point x="198.254" y="25" type="line"/>
    </contour>
  </outline>
</glyph>
<glyph name="W" format="1">
  <advance width="625"/>
  <unicode hex="0057"/>
  <outline>
    <contour>
      <point x="490.397" y="675" type="line"/>
      <point x="582.119" y="675" type="line"/>
      <point x="487.891" y="360.905" type="line"/>
      <point x="445.069" y="513.987" type="line"/>
    </contour>
    <contour>
      <point x="388.841" y="25" type="line"/>
      <point x="226.496" y="675" type="line"/>
      <point x="305.702" y="675" type="line"/>
      <point x="435.391" y="158.449" type="line"/>
      <point x="397.565" y="25" type="line"/>
    </contour>
    <contour>
      <point x="205.395" y="25" type="line"/>
      <point x="26" y="675" type="line"/>
      <point x="117.967" y="675" type="line"/>
      <point x="251.945" y="158.449" type="line"/>
      <point x="214.119" y="25" type="line"/>
    </contour>
  </outline>
</glyph>
<glyph name="X" format="1">
  <advance width="364"/>
  <unicode hex="0058"/>
  <outline>
    <contour>
      <point x="220.191" y="675" type="line"/>
      <point x="304.102" y="675" type="line"/>
      <point x="191.143" y="360.872" type="line"/>
      <point x="315.733" y="25" type="line"/>
      <point x="224.351" y="25" type="line"/>
      <point x="170.866" y="239.865" type="line"/>
      <point x="117.383" y="25" type="line"/>
      <point x="26" y="25" type="line"/>
      <point x="150.589" y="360.872" type="line"/>
      <point x="37.6309" y="675" type="line"/>
      <point x="121.541" y="675" type="line"/>
      <point x="170.866" y="476.8" type="line"/>
    </contour>
  </outline>
</glyph>
<glyph name="Y" format="1">
  <advance width="379"/>
  <unicode hex="0059"/>
  <outline>
    <contour>
      <point x="256.594" y="405.541" type="line"/>
      <point x="212.371" y="564.918" type="line"/>
      <point x="243.443" y="675" type="line"/>
      <point x="336.19" y="675" type="line"/>
    </contour>
    <contour>
      <point x="148.643" y="255.58" type="line"/>
      <point x="26" y="675" type="line"/>
      <point x="120.878" y="675" type="line"/>
      <point x="202.799" y="249.438" type="line"/>
      <point x="202.799" y="25" type="line"/>
      <point x="148.643" y="25" type="line"/>
    </contour>
  </outline>
</glyph>
<glyph name="Z" format="1">
  <advance width="368"/>
  <unicode hex="005A"/>
  <outline>
    <contour>
      <point x="342" y="568.914" type="line"/>
      <point x="116.506" y="119" type="line"/>
      <point x="342" y="119" type="line"/>
      <point x="342" y="25" type="line"/>
      <point x="26" y="25" type="line"/>
      <point x="26" y="135.086" type="line"/>
      <point x="251.494" y="585" type="line"/>
      <point x="26" y="585" type="line"/>
      <point x="26" y="675" type="line"/>
      <point x="342" y="675" type="line"/>
    </contour>
  </outline>
</glyph>
<glyph name="bracketleft" format="1">
  <advance width="258"/>
  <unicode hex="005B"/>
  <outline>
    <contour>
      <point x="219" y="714" type="line"/>
      <point x="219" y="654" type="line"/>
      <point x="158.135" y="654" type="line"/>
      <point x="154.864" y="49" type="line"/>
      <point x="219" y="49" type="line"/>
      <point x="219" y="-11" type="line"/>
      <point x="75" y="-11" type="line"/>
      <point x="75" y="714" type="line"/>
    </contour>
  </outline>
</glyph>
<glyph name="backslash" format="1">
  <advance width="402"/>
  <unicode hex="005C"/>
  <outline>
    <contour>
      <point x="319.388" y="2" type="line"/>
      <point x="243.797" y="2" type="line"/>
      <point x="81.57" y="691" type="line"/>
      <point x="156.229" y="691" type="line"/>
    </contour>
  </outline>
</glyph>
<glyph name="bracketright" format="1">
  <advance width="258"/>
  <unicode hex="005D"/>
  <outline>
    <contour>
      <point x="39" y="714" type="line"/>
      <point x="183" y="714" type="line"/>
      <point x="183" y="-11" type="line"/>
      <point x="39" y="-11" type="line"/>
      <point x="39" y="49" type="line"/>
      <point x="103.136" y="49" type="line"/>
      <point x="99.8652" y="654" type="line"/>
      <point x="39" y="654" type="line"/>
    </contour>
  </outline>
</glyph>
<glyph name="asciicircum" format="1">
  <advance width="374"/>
  <unicode hex="005E"/>
  <outline>
    <contour>
      <point x="67.5732" y="485" type="line"/>
      <point x="191.404" y="731" type="line"/>
      <point x="248.596" y="731" type="line"/>
      <point x="372.427" y="485" type="line"/>
      <point x="305.499" y="485" type="line"/>
      <point x="218.841" y="659.537" type="line"/>
      <point x="133.403" y="485" type="line"/>
    </contour>
  </outline>
</glyph>
<glyph name="underscore" format="1">
  <advance width="510"/>
  <unicode hex="005F"/>
  <outline>
    <contour>
      <point x="455" y="-180" type="line"/>
      <point x="55" y="-180" type="line"/>
      <point x="55" y="-123" type="line"/>
      <point x="455" y="-123" type="line"/>
    </contour>
  </outline>
</glyph>
<glyph name="grave" format="1">
  <advance width="263"/>
  <unicode hex="0060"/>
  <outline>
    <contour>
      <point x="137.727" y="630" type="line"/>
      <point x="88.7403" y="732" type="line"/>
      <point x="156.356" y="732" type="line"/>
      <point x="181.184" y="630" type="line"/>
    </contour>
  </outline>
</glyph>
<glyph name="a" format="1">
  <advance width="335"/>
  <unicode hex="0061"/>
  <outline>
    <contour>
      <point x="131" y="491.666" type="curve"/>
      <point x="131" y="427.491" type="line"/>
      <point x="111.713" y="420.021"/>
      <point x="97.8809" y="403.42"/>
      <point x="92.0098" y="383.749" type="curve"/>
      <point x="34.4746" y="405.667" type="line"/>
      <point x="42.8184" y="446.239"/>
      <point x="86.0215" y="482.239"/>
    </contour>
    <contour>
      <point x="183.168" y="428.343" type="curve"/>
      <point x="183.168" y="492.208" type="line"/>
      <point x="249.218" y="480.104"/>
      <point x="284" y="408.47"/>
      <point x="284" y="380" type="curve" smooth="yes"/>
      <point x="284" y="143" type="line" smooth="yes"/>
      <point x="284" y="137.155"/>
      <point x="283.498" y="116.703"/>
      <point x="301.225" y="100.569" type="curve" smooth="yes"/>
      <point x="303.713" y="98.3047"/>
      <point x="307.7" y="95.6699"/>
      <point x="310" y="94.3164" type="curve"/>
      <point x="310" y="27.7793" type="line"/>
      <point x="289.049" y="31.3564"/>
      <point x="273.753" y="39.2217"/>
      <point x="262.191" y="49.0488" type="curve" smooth="yes"/>
      <point x="246.652" y="62.2568" type="line"/>
      <point x="230.593" y="49.6875" type="line" smooth="yes"/>
      <point x="216.598" y="38.7354"/>
      <point x="199.019" y="30.959"/>
      <point x="183.601" y="27.7002" type="curve"/>
      <point x="183.601" y="92.4355" type="line"/>
      <point x="213.505" y="106.768"/>
      <point x="218" y="139.579"/>
      <point x="218" y="149" type="curve" smooth="yes"/>
      <point x="218" y="270.361" type="line"/>
      <point x="184.24" y="248.636" type="line" smooth="yes"/>
      <point x="170.001" y="229.613"/>
      <point x="125.405" y="216.653"/>
      <point x="102.819" y="205.36" type="curve" smooth="yes"/>
      <point x="89.0752" y="198.488"/>
      <point x="77" y="182.839"/>
      <point x="77" y="162" type="curve" smooth="yes"/>
      <point x="77" y="149" type="line" smooth="yes"/>
      <point x="77" y="121.594"/>
      <point x="93.7568" y="92.6289"/>
      <point x="130" y="88.3682" type="curve"/>
      <point x="130" y="27.6572" type="line"/>
      <point x="59.2432" y="37.6621"/>
      <point x="26" y="85.0264"/>
      <point x="26" y="121" type="curve" smooth="yes"/>
      <point x="26" y="167" type="line" smooth="yes"/>
      <point x="26" y="196.085"/>
      <point x="30.0195" y="216.789"/>
      <point x="62.4844" y="235.34" type="curve"/>
      <point x="86.0674" y="249.051"/>
      <point x="218" y="279.771"/>
      <point x="218" y="351" type="curve" smooth="yes"/>
      <point x="218" y="363" type="line" smooth="yes"/>
      <point x="218" y="375.828"/>
      <point x="218.869" y="394.385"/>
      <point x="205.394" y="410.893" type="curve" smooth="yes"/>
      <point x="198.347" y="419.525"/>
      <point x="187.958" y="425.206"/>
    </contour>
  </outline>
</glyph>
<glyph name="b" format="1">
  <advance width="364"/>
  <unicode hex="0062"/>
  <outline>
    <contour>
      <point x="270" y="143" type="curve" smooth="yes"/>
      <point x="270" y="373" type="line" smooth="yes"/>
      <point x="270" y="387.455"/>
      <point x="256.383" y="421.373"/>
      <point x="212.463" y="423" type="curve"/>
      <point x="203" y="423" type="line"/>
      <point x="203" y="491" type="line"/>
      <point x="211" y="491" type="line" smooth="yes"/>
      <point x="295.997" y="491"/>
      <point x="336.986" y="410.104"/>
      <point x="338" y="376.691" type="curve"/>
      <point x="338" y="141" type="line" smooth="yes"/>
      <point x="338" y="108.513"/>
      <point x="296.526" y="25"/>
      <point x="211" y="25" type="curve" smooth="yes"/>
      <point x="203" y="25" type="line"/>
      <point x="203" y="93" type="line"/>
      <point x="211" y="93" type="line" smooth="yes"/>
      <point x="256.493" y="93"/>
      <point x="270" y="130.009"/>
    </contour>
    <contour>
      <point x="105" y="50" type="line"/>
      <point x="30" y="50" type="line"/>
      <point x="30" y="699" type="line"/>
      <point x="105" y="699" type="line"/>
    </contour>
  </outline>
</glyph>
<glyph name="c" format="1">
  <advance width="368"/>
  <unicode hex="0063"/>
  <outline>
    <contour>
      <point x="30" y="141" type="curve" smooth="yes"/>
      <point x="30" y="376.682" type="line" smooth="yes"/>
      <point x="30.9492" y="407.358"/>
      <point x="66.8125" y="479.027"/>
      <point x="141" y="489.733" type="curve"/>
      <point x="141" y="422.699" type="line"/>
      <point x="105.922" y="412.622"/>
      <point x="99" y="387.034"/>
      <point x="99" y="375" type="curve" smooth="yes"/>
      <point x="99" y="141" type="line" smooth="yes"/>
      <point x="99" y="126.395"/>
      <point x="111.027" y="100.076"/>
      <point x="149" y="91.8018" type="curve"/>
      <point x="149" y="26.1709" type="line"/>
      <point x="64.583" y="36.5107"/>
      <point x="30" y="112.027"/>
    </contour>
    <contour>
      <point x="341.069" y="127.082" type="line"/>
      <point x="333.851" y="78.9639"/>
      <point x="290.521" y="35.1875"/>
      <point x="243" y="25.7412" type="curve"/>
      <point x="243" y="94.7539" type="line"/>
      <point x="253.247" y="98.3291"/>
      <point x="267.417" y="106.074"/>
      <point x="274.609" y="121.269" type="curve"/>
      <point x="280.284" y="133.352"/>
      <point x="280.749" y="141.9"/>
      <point x="280.966" y="149.824" type="curve"/>
    </contour>
    <contour>
      <point x="269.959" y="366.174" type="line"/>
      <point x="269.813" y="373.069"/>
      <point x="266.768" y="387.023"/>
      <point x="264.412" y="392" type="curve" smooth="yes"/>
      <point x="254.649" y="413.897"/>
      <point x="239.829" y="417.749"/>
      <point x="233" y="420.162" type="curve"/>
      <point x="233" y="489.095" type="line"/>
      <point x="281.495" y="479.201"/>
      <point x="323.097" y="435.104"/>
      <point x="330.067" y="388.917" type="curve"/>
    </contour>
  </outline>
</glyph>
<glyph name="d" format="1">
  <advance width="364"/>
  <unicode hex="0064"/>
  <outline>
    <contour>
      <point x="334" y="698" type="line"/>
      <point x="334" y="50" type="line"/>
      <point x="258" y="50" type="line"/>
      <point x="258" y="698" type="line"/>
    </contour>
    <contour>
      <point x="30" y="376.693" type="line"/>
      <point x="31.0508" y="411.455"/>
      <point x="71.8467" y="491"/>
      <point x="155" y="491" type="curve" smooth="yes"/>
      <point x="160" y="491" type="line"/>
      <point x="160" y="423" type="line"/>
      <point x="154.537" y="423" type="line"/>
      <point x="109.813" y="421.344"/>
      <point x="98" y="385.796"/>
      <point x="98" y="373" type="curve" smooth="yes"/>
      <point x="98" y="143" type="line" smooth="yes"/>
      <point x="98" y="129.063"/>
      <point x="112.044" y="93"/>
      <point x="157" y="93" type="curve" smooth="yes"/>
      <point x="160" y="93" type="line"/>
      <point x="160" y="25" type="line"/>
      <point x="157" y="25" type="line" smooth="yes"/>
      <point x="70.5029" y="25"/>
      <point x="30" y="108.332"/>
      <point x="30" y="141" type="curve" smooth="yes"/>
    </contour>
  </outline>
</glyph>
<glyph name="e" format="1">
  <advance width="374"/>
  <unicode hex="0065"/>
  <outline>
    <contour>
      <point x="341.27" y="105.17" type="line"/>
      <point x="323.164" y="65.9482"/>
      <point x="280.461" y="34.0781"/>
      <point x="236" y="26.5732" type="curve"/>
      <point x="236" y="88.6621" type="line"/>
      <point x="260.361" y="94.7812"/>
      <point x="277.39" y="107.805"/>
      <point x="288.342" y="124.951" type="curve"/>
    </contour>
    <contour>
      <point x="283" y="369" type="line" smooth="yes"/>
      <point x="283" y="403.91"/>
      <point x="255.366" y="420.838"/>
      <point x="236" y="424.963" type="curve"/>
      <point x="236" y="489.095" type="line"/>
      <point x="292.627" y="477.876"/>
      <point x="347" y="424.886"/>
      <point x="347" y="378" type="curve" smooth="yes"/>
      <point x="347" y="233" type="line"/>
      <point x="98" y="233" type="line"/>
      <point x="98" y="141" type="line" smooth="yes"/>
      <point x="98" y="128.808"/>
      <point x="106.484" y="98.8613"/>
      <point x="138" y="86.7432" type="curve"/>
      <point x="138" y="26.4502" type="line"/>
      <point x="63.502" y="37.7695"/>
      <point x="26" y="111.745"/>
      <point x="26" y="141" type="curve" smooth="yes"/>
      <point x="26" y="376.688" type="line"/>
      <point x="26.9463" y="407.261"/>
      <point x="65.9844" y="478.632"/>
      <point x="137" y="489.52" type="curve"/>
      <point x="137" y="421.804" type="line"/>
      <point x="106.69" y="412.218"/>
      <point x="98" y="384.909"/>
      <point x="98" y="369" type="curve" smooth="yes"/>
      <point x="98" y="299" type="line"/>
      <point x="283" y="299" type="line"/>
    </contour>
  </outline>
</glyph>
<glyph name="f" format="1">
  <advance width="254"/>
  <unicode hex="0066"/>
  <outline>
    <contour>
      <point x="89" y="516" type="line"/>
      <point x="89" y="577" type="line" smooth="yes"/>
      <point x="89" y="610.218"/>
      <point x="132.559" y="695.169"/>
      <point x="218.121" y="696" type="curve"/>
      <point x="247.573" y="696" type="line"/>
      <point x="232.112" y="629" type="line"/>
      <point x="218.554" y="629" type="line"/>
      <point x="172.274" y="627.347"/>
      <point x="161" y="589.521"/>
      <point x="161" y="577" type="curve" smooth="yes"/>
      <point x="161" y="514.618" type="line"/>
      <point x="227" y="515.618" type="line"/>
      <point x="227" y="450" type="line"/>
      <point x="161" y="450" type="line"/>
      <point x="161" y="50" type="line"/>
      <point x="89" y="50" type="line"/>
      <point x="89" y="450" type="line"/>
      <point x="26" y="450" type="line"/>
      <point x="26" y="516" type="line"/>
    </contour>
  </outline>
</glyph>
<glyph name="g" format="1">
  <advance width="365"/>
  <unicode hex="0067"/>
  <outline>
    <contour>
      <point x="27.9805" y="377.682" type="line"/>
      <point x="28.9141" y="407.776"/>
      <point x="64.0078" y="477.366"/>
      <point x="134.98" y="489.268" type="curve"/>
      <point x="134.98" y="424.857" type="line"/>
      <point x="100.996" y="413.426"/>
      <point x="92.9805" y="388.821"/>
      <point x="92.9805" y="375" type="curve" smooth="yes"/>
      <point x="92.9805" y="140" type="line" smooth="yes"/>
      <point x="92.9805" y="124.366"/>
      <point x="104.529" y="100.662"/>
      <point x="134.98" y="90.2617" type="curve"/>
      <point x="134.98" y="25.7568" type="line"/>
      <point x="61.9697" y="38.1172"/>
      <point x="27.9805" y="111.141"/>
      <point x="27.9805" y="139" type="curve" smooth="yes"/>
    </contour>
    <contour>
      <point x="331.98" y="-65" type="line" smooth="yes"/>
      <point x="331.98" y="-96.0273"/>
      <point x="289.804" y="-180.166"/>
      <point x="203.859" y="-181" type="curve" smooth="yes"/>
      <point x="26" y="-181" type="line"/>
      <point x="41.5" y="-119" type="line"/>
      <point x="202.384" y="-119" type="line"/>
      <point x="250.196" y="-117.458"/>
      <point x="264.98" y="-80.0791"/>
      <point x="264.98" y="-65" type="curve" smooth="yes"/>
      <point x="264.98" y="10.0195" type="line"/>
      <point x="233.917" y="2.25391" type="line" smooth="yes"/>
      <point x="230.871" y="1.49219"/>
      <point x="226.015" y="0.613281"/>
      <point x="223.98" y="0.322266" type="curve"/>
      <point x="223.98" y="62.8193" type="line"/>
      <point x="256.355" y="74.2393"/>
      <point x="264.98" y="100.799"/>
      <point x="264.98" y="114" type="curve" smooth="yes"/>
      <point x="264.98" y="349" type="line" smooth="yes"/>
      <point x="264.98" y="362.876"/>
      <point x="255.652" y="388.241"/>
      <point x="223.98" y="399.638" type="curve"/>
      <point x="223.98" y="463.976" type="line"/>
      <point x="228.05" y="463.236"/>
      <point x="230.5" y="462.673"/>
      <point x="233.402" y="461.881" type="curve" smooth="yes"/>
      <point x="264.98" y="453.269" type="line"/>
      <point x="264.98" y="466" type="line"/>
      <point x="331.98" y="466" type="line"/>
    </contour>
  </outline>
</glyph>
<glyph name="h" format="1">
  <advance width="371"/>
  <unicode hex="0068"/>
  <outline>
    <contour>
      <point x="238" y="419.7" type="curve"/>
      <point x="238" y="483.72" type="line"/>
      <point x="309.407" y="471.885"/>
      <point x="345" y="424.079"/>
      <point x="345" y="374" type="curve" smooth="yes"/>
      <point x="345" y="26" type="line"/>
      <point x="281" y="26" type="line"/>
      <point x="281" y="365" type="line" smooth="yes"/>
      <point x="281" y="378.105"/>
      <point x="271.578" y="407.356"/>
    </contour>
    <contour>
      <point x="95" y="390" type="curve" smooth="yes"/>
      <point x="95" y="51" type="line"/>
      <point x="30" y="51" type="line"/>
      <point x="30" y="698" type="line"/>
      <point x="94" y="698" type="line"/>
      <point x="94" y="495.314" type="line"/>
      <point x="128.947" y="506.963" type="line"/>
      <point x="133.633" y="508.057"/>
      <point x="138.358" y="508.842"/>
      <point x="143" y="509.466" type="curve"/>
      <point x="143" y="444.648" type="line"/>
      <point x="110.562" y="432.646"/>
      <point x="95" y="410.364"/>
    </contour>
  </outline>
</glyph>
<glyph name="i" format="1">
  <advance width="149"/>
  <unicode hex="0069"/>
  <outline>
    <contour>
      <point x="111" y="491" type="line"/>
      <point x="111" y="25" type="line"/>
      <point x="39" y="25" type="line"/>
      <point x="39" y="491" type="line"/>
    </contour>
    <contour>
      <point x="74" y="703" type="curve" smooth="yes"/>
      <point x="100.119" y="703"/>
      <point x="122" y="681.119"/>
      <point x="122" y="655" type="curve" smooth="yes"/>
      <point x="122" y="630.149"/>
      <point x="100.277" y="608"/>
      <point x="74" y="608" type="curve" smooth="yes"/>
      <point x="47.7227" y="608"/>
      <point x="26" y="630.149"/>
      <point x="26" y="655" type="curve" smooth="yes"/>
      <point x="26" y="681.119"/>
      <point x="47.8809" y="703"/>
    </contour>
  </outline>
</glyph>
<glyph name="j" format="1">
  <advance width="144"/>
  <unicode hex="006A"/>
  <outline>
    <contour>
      <point x="65.5732" y="702" type="curve" smooth="yes"/>
      <point x="91.2373" y="702"/>
      <point x="113.573" y="679.444"/>
      <point x="113.573" y="653" type="curve" smooth="yes"/>
      <point x="113.573" y="627.208"/>
      <point x="92.1572" y="606"/>
      <point x="65.5732" y="606" type="curve" smooth="yes"/>
      <point x="38.9902" y="606"/>
      <point x="17.5732" y="627.208"/>
      <point x="17.5732" y="653" type="curve" smooth="yes"/>
      <point x="17.5732" y="679.444"/>
      <point x="39.9102" y="702"/>
    </contour>
    <contour>
      <point x="102.573" y="466" type="line"/>
      <point x="102.573" y="-63" type="line" smooth="yes"/>
      <point x="102.573" y="-98.5791"/>
      <point x="60.1201" y="-181"/>
      <point x="-24.4268" y="-181" type="curve" smooth="yes"/>
      <point x="-50" y="-181" type="line"/>
      <point x="-34.5381" y="-114" type="line"/>
      <point x="-26.9805" y="-114" type="line"/>
      <point x="19.0107" y="-112.357"/>
      <point x="30.5732" y="-75.3936"/>
      <point x="30.5732" y="-63" type="curve" smooth="yes"/>
      <point x="30.5732" y="466" type="line"/>
    </contour>
  </outline>
</glyph>
<glyph name="k" format="1">
  <advance width="352"/>
  <unicode hex="006B"/>
  <outline>
    <contour>
      <point x="314.425" y="25" type="line"/>
      <point x="237.317" y="25" type="line"/>
      <point x="167.013" y="257.045" type="line"/>
      <point x="236.376" y="489" type="line"/>
      <point x="314.425" y="489" type="line"/>
      <point x="210.611" y="257" type="line"/>
    </contour>
    <contour>
      <point x="105" y="698" type="line"/>
      <point x="105" y="50" type="line"/>
      <point x="30" y="50" type="line"/>
      <point x="30" y="698" type="line"/>
    </contour>
  </outline>
</glyph>
<glyph name="l" format="1">
  <advance width="134"/>
  <unicode hex="006C"/>
  <outline>
    <contour>
      <point x="111" y="698" type="line"/>
      <point x="111" y="50" type="line"/>
      <point x="30" y="50" type="line"/>
      <point x="30" y="698" type="line"/>
    </contour>
  </outline>
</glyph>
<glyph name="m" format="1">
  <advance width="584"/>
  <unicode hex="006D"/>
  <outline>
    <contour>
      <point x="323.364" y="25" type="line"/>
      <point x="260.636" y="25" type="line"/>
      <point x="260.636" y="372" type="line" smooth="yes"/>
      <point x="260.636" y="387.42"/>
      <point x="250.325" y="411.85"/>
      <point x="224.186" y="420.612" type="curve"/>
      <point x="224.186" y="492.838" type="line"/>
      <point x="246.738" y="489.491"/>
      <point x="264.283" y="479.449"/>
      <point x="279.177" y="466.096" type="curve" smooth="yes"/>
      <point x="292.334" y="454.3" type="line"/>
      <point x="305.238" y="466.479" type="line" smooth="yes"/>
      <point x="319.765" y="480.188"/>
      <point x="337.99" y="489.859"/>
      <point x="359.814" y="492.92" type="curve"/>
      <point x="359.814" y="420.642" type="line"/>
      <point x="330.384" y="410.785"/>
      <point x="323.364" y="385.003"/>
      <point x="323.364" y="372" type="curve" smooth="yes"/>
    </contour>
    <contour>
      <point x="480" y="25" type="line"/>
      <point x="480" y="372" type="line" smooth="yes"/>
      <point x="480" y="385.981"/>
      <point x="469.351" y="411.576"/>
      <point x="438" y="420.594" type="curve"/>
      <point x="438" y="492.739" type="line"/>
      <point x="515.646" y="481.784"/>
      <point x="554" y="406.151"/>
      <point x="554" y="377" type="curve" smooth="yes"/>
      <point x="554" y="25" type="line"/>
    </contour>
    <contour>
      <point x="145" y="420.528" type="line"/>
      <point x="109.843" y="409.665"/>
      <point x="104" y="383.233"/>
      <point x="104" y="372" type="curve" smooth="yes"/>
      <point x="104" y="25" type="line"/>
      <point x="30" y="25" type="line"/>
      <point x="30" y="377" type="line" smooth="yes"/>
      <point x="30" y="409.545"/>
      <point x="69.4131" y="482.311"/>
      <point x="145" y="492.756" type="curve"/>
    </contour>
  </outline>
</glyph>
<glyph name="n" format="1">
  <advance width="384"/>
  <unicode hex="006E"/>
  <outline>
    <contour>
      <point x="146" y="420.357" type="line"/>
      <point x="113.144" y="411.029"/>
      <point x="104" y="384.914"/>
      <point x="104" y="372" type="curve" smooth="yes"/>
      <point x="104" y="25" type="line"/>
      <point x="30" y="25" type="line"/>
      <point x="30" y="377" type="line" smooth="yes"/>
      <point x="30" y="409.31"/>
      <point x="68.7178" y="481.731"/>
      <point x="146" y="492.678" type="curve"/>
    </contour>
    <contour>
      <point x="280" y="25" type="line"/>
      <point x="280" y="372" type="line" smooth="yes"/>
      <point x="280" y="387.335"/>
      <point x="269.289" y="410.359"/>
      <point x="238" y="420.363" type="curve"/>
      <point x="238" y="492.63" type="line"/>
      <point x="316.132" y="481.188"/>
      <point x="354" y="405.966"/>
      <point x="354" y="377" type="curve" smooth="yes"/>
      <point x="354" y="25" type="line"/>
    </contour>
  </outline>
</glyph>
<glyph name="o" format="1">
  <advance width="370"/>
  <unicode hex="006F"/>
  <outline>
    <contour>
      <point x="259.883" y="405.811" type="curve" smooth="yes"/>
      <point x="252.833" y="413.22"/>
      <point x="242.568" y="418.392"/>
      <point x="233" y="420.887" type="curve"/>
      <point x="233" y="489.674" type="line"/>
      <point x="306.376" y="478.905"/>
      <point x="342" y="406.04"/>
      <point x="342" y="376" type="curve" smooth="yes"/>
      <point x="342" y="141" type="line" smooth="yes"/>
      <point x="342" y="110.016"/>
      <point x="305.719" y="36.0566"/>
      <point x="233" y="25.3311" type="curve"/>
      <point x="233" y="94.7402" type="line"/>
      <point x="269.44" y="105.541"/>
      <point x="275" y="138.151"/>
      <point x="275" y="152" type="curve" smooth="yes"/>
      <point x="275" y="363" type="line" smooth="yes"/>
      <point x="275" y="374.877"/>
      <point x="273.102" y="391.917"/>
    </contour>
    <contour>
      <point x="28" y="141" type="curve" smooth="yes"/>
      <point x="28" y="376" type="line" smooth="yes"/>
      <point x="28" y="406.195"/>
      <point x="65.7041" y="479.747"/>
      <point x="142" y="489.788" type="curve"/>
      <point x="142" y="420.729" type="line"/>
      <point x="104.201" y="411.021"/>
      <point x="98" y="376.071"/>
      <point x="98" y="363" type="curve" smooth="yes"/>
      <point x="98" y="154" type="line" smooth="yes"/>
      <point x="98" y="131.887"/>
      <point x="109.936" y="101.783"/>
      <point x="142" y="94.0957" type="curve"/>
      <point x="142" y="25.2314" type="line"/>
      <point x="64.1943" y="35.666"/>
      <point x="28" y="111.794"/>
    </contour>
  </outline>
</glyph>
<glyph name="q" format="1">
  <advance width="366"/>
  <unicode hex="0071"/>
  <outline>
    <contour>
      <point x="261.036" y="466" type="line"/>
      <point x="335.036" y="466" type="line"/>
      <point x="335.964" y="-182" type="line"/>
      <point x="261.964" y="-182" type="line"/>
    </contour>
    <contour>
      <point x="96" y="373" type="curve" smooth="yes"/>
      <point x="96" y="143" type="line" smooth="yes"/>
      <point x="96" y="127.078"/>
      <point x="111.929" y="94.335"/>
      <point x="162.671" y="93" type="curve"/>
      <point x="169" y="93" type="line"/>
      <point x="169" y="25" type="line"/>
      <point x="165" y="25" type="line" smooth="yes"/>
      <point x="67.3652" y="25"/>
      <point x="26.9795" y="106.104"/>
      <point x="26" y="139.301" type="curve"/>
      <point x="26" y="375" type="line" smooth="yes"/>
      <point x="26" y="407.853"/>
      <point x="67.6797" y="491"/>
      <point x="158" y="491" type="curve" smooth="yes"/>
      <point x="164" y="491" type="line"/>
      <point x="164" y="423" type="line"/>
      <point x="158" y="423" type="line" smooth="yes"/>
      <point x="110.496" y="423"/>
      <point x="96" y="387.163"/>
    </contour>
  </outline>
</glyph>
<glyph name="r" format="1">
  <advance width="266"/>
  <unicode hex="0072"/>
  <outline>
    <contour>
      <point x="36" y="25" type="line"/>
      <point x="36" y="491" type="line"/>
      <point x="110" y="491" type="line"/>
      <point x="110" y="381.137" type="line"/>
      <point x="154.733" y="438.651" type="line" smooth="yes"/>
      <point x="171.847" y="460.654"/>
      <point x="214.438" y="491"/>
      <point x="259" y="491" type="curve" smooth="yes"/>
      <point x="260.555" y="491" type="line"/>
      <point x="243.714" y="418.228" type="line"/>
      <point x="171.882" y="406.535"/>
      <point x="110" y="340.672"/>
      <point x="110" y="271" type="curve" smooth="yes"/>
      <point x="110" y="25" type="line"/>
    </contour>
  </outline>
</glyph>
<glyph name="s" format="1">
  <advance width="368"/>
  <unicode hex="0073"/>
  <outline>
    <contour>
      <point x="127.982" y="489.456" type="curve"/>
      <point x="127.982" y="426.756" type="line"/>
      <point x="87.0596" y="413.394"/>
      <point x="83.9824" y="376.104"/>
      <point x="83.9824" y="362" type="curve" smooth="yes"/>
      <point x="83.9824" y="319.106"/>
      <point x="125.01" y="297.349"/>
      <point x="260.262" y="271.45" type="curve" smooth="yes"/>
      <point x="301.783" y="263.465"/>
      <point x="342.982" y="230.972"/>
      <point x="342.982" y="160" type="curve" smooth="yes"/>
      <point x="342.982" y="79.0586"/>
      <point x="290.893" y="30.3496"/>
      <point x="220.982" y="21.3525" type="curve"/>
      <point x="220.982" y="87.8145" type="line"/>
      <point x="240.947" y="93.6846"/>
      <point x="275.982" y="111.467"/>
      <point x="275.982" y="153" type="curve" smooth="yes"/>
      <point x="275.982" y="228.685"/>
      <point x="129.293" y="238.163"/>
      <point x="92.6729" y="254.602" type="curve"/>
      <point x="48.0215" y="276.601"/>
      <point x="21.9824" y="296.977"/>
      <point x="21.9824" y="371" type="curve" smooth="yes"/>
      <point x="21.9824" y="441.482"/>
      <point x="80.3203" y="479.215"/>
    </contour>
    <contour>
      <point x="219.748" y="490.354" type="line"/>
      <point x="279.163" y="481.213"/>
      <point x="321.514" y="435.106"/>
      <point x="331.583" y="394.709" type="curve"/>
      <point x="266.233" y="383.623" type="line"/>
      <point x="254.815" y="410.519"/>
      <point x="232.565" y="421.174"/>
      <point x="219.173" y="425.331" type="curve"/>
    </contour>
    <contour>
      <point x="129.982" y="21.6504" type="line"/>
      <point x="71.4727" y="30.6826"/>
      <point x="31.9053" y="75.0908"/>
      <point x="21" y="116.005" type="curve"/>
      <point x="86.5957" y="128.305" type="line"/>
      <point x="96.083" y="111.136"/>
      <point x="112.927" y="97.2256"/>
      <point x="129.982" y="90.6934" type="curve"/>
    </contour>
  </outline>
</glyph>
<glyph name="t" format="1">
  <advance width="274"/>
  <unicode hex="0074"/>
  <outline>
    <contour>
      <point x="161" y="184" type="line" smooth="yes"/>
      <point x="161" y="164.205"/>
      <point x="173.251" y="126.618"/>
      <point x="218.554" y="125" type="curve" smooth="yes"/>
      <point x="225.823" y="125" type="line"/>
      <point x="242.023" y="50" type="line"/>
      <point x="218.103" y="50" type="line"/>
      <point x="111.381" y="50.875"/>
      <point x="89" y="97.8516"/>
      <point x="89" y="193" type="curve" smooth="yes"/>
      <point x="89" y="448" type="line"/>
      <point x="26" y="448" type="line"/>
      <point x="26" y="516" type="line"/>
      <point x="89" y="516" type="line"/>
      <point x="89" y="700" type="line"/>
      <point x="161" y="700" type="line"/>
      <point x="161" y="516" type="line"/>
      <point x="221" y="516" type="line"/>
      <point x="221" y="448" type="line"/>
      <point x="161" y="448" type="line"/>
    </contour>
  </outline>
</glyph>
<glyph name="u" format="1">
  <advance width="384"/>
  <unicode hex="0075"/>
  <outline>
    <contour>
      <point x="30" y="137" type="curve" smooth="yes"/>
      <point x="30" y="489" type="line"/>
      <point x="104" y="489" type="line"/>
      <point x="104" y="142" type="line" smooth="yes"/>
      <point x="104" y="127.874"/>
      <point x="113.788" y="103.466"/>
      <point x="146" y="93.5439" type="curve"/>
      <point x="146" y="21.3223" type="line"/>
      <point x="67.5771" y="32.4297"/>
      <point x="30" y="105.195"/>
    </contour>
    <contour>
      <point x="238" y="21.3701" type="curve"/>
      <point x="238" y="93.6426" type="line"/>
      <point x="270.856" y="102.971"/>
      <point x="280" y="129.086"/>
      <point x="280" y="142" type="curve" smooth="yes"/>
      <point x="280" y="489" type="line"/>
      <point x="354" y="489" type="line"/>
      <point x="354" y="137" type="line" smooth="yes"/>
      <point x="354" y="107.527"/>
      <point x="314.983" y="32.6436"/>
    </contour>
  </outline>
</glyph>
<glyph name="v" format="1">
  <advance width="350"/>
  <unicode hex="0076"/>
  <outline>
    <contour>
      <point x="224.528" y="394.485" type="line"/>
      <point x="253.756" y="490.858" type="line"/>
      <point x="332.742" y="490.255" type="line"/>
      <point x="267.028" y="270.969" type="line"/>
    </contour>
    <contour>
      <point x="191.658" y="25" type="line"/>
      <point x="158.736" y="25" type="line"/>
      <point x="16" y="490.249" type="line"/>
      <point x="99.4121" y="490.867" type="line"/>
      <point x="225.773" y="120.206" type="line"/>
    </contour>
  </outline>
</glyph>
<glyph name="w" format="1">
  <advance width="477"/>
  <unicode hex="0077"/>
  <outline>
    <contour>
      <point x="349.714" y="394.072" type="line"/>
      <point x="378.272" y="490.852" type="line"/>
      <point x="451.49" y="490.271" type="line"/>
      <point x="384.209" y="279.501" type="line"/>
    </contour>
    <contour>
      <point x="313.896" y="25" type="line"/>
      <point x="292.291" y="25" type="line"/>
      <point x="178.365" y="490.244" type="line"/>
      <point x="246.843" y="490.865" type="line"/>
      <point x="339.477" y="120.033" type="line"/>
    </contour>
    <contour>
      <point x="162.475" y="25" type="line"/>
      <point x="142.402" y="25" type="line"/>
      <point x="8" y="490.245" type="line"/>
      <point x="91.9863" y="490.862" type="line"/>
      <point x="187.211" y="120.353" type="line"/>
    </contour>
  </outline>
</glyph>
<glyph name="x" format="1">
  <advance width="331"/>
  <unicode hex="0078"/>
  <outline>
    <contour>
      <point x="18" y="25" type="line"/>
      <point x="121.112" y="261.977" type="line"/>
      <point x="21.9287" y="491" type="line"/>
      <point x="92.7373" y="491" type="line"/>
      <point x="161.978" y="338.149" type="line"/>
      <point x="230.048" y="490" type="line"/>
      <point x="301.866" y="490" type="line"/>
      <point x="203.635" y="261.995" type="line"/>
      <point x="305.85" y="25" type="line"/>
      <point x="234.987" y="25" type="line"/>
      <point x="161.858" y="186.655" type="line"/>
      <point x="88.7285" y="25" type="line"/>
    </contour>
  </outline>
</glyph>
<glyph name="y" format="1">
  <advance width="333"/>
  <unicode hex="0079"/>
  <outline>
    <contour>
      <point x="205.77" y="392.766" type="line"/>
      <point x="236.012" y="489.859" type="line"/>
      <point x="313.954" y="489.265" type="line"/>
      <point x="240.929" y="272.315" type="line"/>
    </contour>
    <contour>
      <point x="29.3135" y="-182" type="line"/>
      <point x="110.744" y="87.9111" type="line"/>
      <point x="0" y="464.254" type="line"/>
      <point x="79.1572" y="464.858" type="line"/>
      <point x="164.377" y="183.782" type="line"/>
      <point x="192.49" y="86.502" type="line"/>
      <point x="103.601" y="-182" type="line"/>
    </contour>
  </outline>
</glyph>
<glyph name="z" format="1">
  <advance width="298"/>
  <unicode hex="007A"/>
  <outline>
    <contour>
      <point x="272" y="489" type="line"/>
      <point x="272" y="406.345" type="line"/>
      <point x="102.142" y="93.2734" type="line"/>
      <point x="272" y="92.1631" type="line"/>
      <point x="272" y="25" type="line"/>
      <point x="26" y="25" type="line"/>
      <point x="26" y="109.429" type="line"/>
      <point x="200.83" y="419" type="line"/>
      <point x="26" y="419" type="line"/>
      <point x="26" y="489" type="line"/>
    </contour>
  </outline>
</glyph>
<glyph name="braceleft" format="1">
  <advance width="407"/>
  <unicode hex="007B"/>
  <outline>
    <contour>
      <point x="108.994" y="349.273" type="curve" smooth="yes"/>
      <point x="187.381" y="324.189" type="line" smooth="yes"/>
      <point x="209.424" y="317.135"/>
      <point x="214" y="307.433"/>
      <point x="214" y="304" type="curve" smooth="yes"/>
      <point x="214" y="207" type="line" smooth="yes"/>
      <point x="214" y="106.768"/>
      <point x="222.865" y="49.6533"/>
      <point x="282" y="38.0909" type="curve"/>
      <point x="282" y="-12.9815" type="line"/>
      <point x="203.145" y="-12.4689"/>
      <point x="137" y="-13.3722"/>
      <point x="137" y="192" type="curve" smooth="yes"/>
      <point x="137" y="290" type="line" smooth="yes"/>
      <point x="137" y="316.86"/>
      <point x="121.138" y="336.166"/>
      <point x="105.461" y="346.72" type="curve"/>
      <point x="107.988" y="348.485"/>
      <point x="107.625" y="348.234"/>
    </contour>
    <contour>
      <point x="114.159" y="353.559" type="line"/>
      <point x="128.287" y="366.438"/>
      <point x="136.403" y="384.967"/>
      <point x="137" y="407.671" type="curve"/>
      <point x="137" y="504" type="line" smooth="yes"/>
      <point x="137" y="688.362"/>
      <point x="196.478" y="705.855"/>
      <point x="282" y="709.536" type="curve"/>
      <point x="282" y="657.863" type="line"/>
      <point x="208.612" y="643.287"/>
      <point x="214.811" y="568.103"/>
      <point x="214" y="469.102" type="curve"/>
      <point x="214" y="384.039" type="line"/>
      <point x="211.731" y="381.378"/>
      <point x="202.448" y="375.631"/>
      <point x="188.937" y="372.254" type="curve" smooth="yes"/>
    </contour>
  </outline>
</glyph>
<glyph name="bar" format="1">
  <advance width="205"/>
  <unicode hex="007C"/>
  <outline>
    <contour>
      <point x="75" y="729" type="line"/>
      <point x="130" y="729" type="line"/>
      <point x="130" y="-109" type="line"/>
      <point x="75" y="-109" type="line"/>
    </contour>
  </outline>
</glyph>
<glyph name="braceright" format="1">
  <advance width="407"/>
  <unicode hex="007D"/>
  <outline>
    <contour>
      <point x="298.006" y="349.273" type="line" smooth="yes"/>
      <point x="299.154" y="348.402"/>
      <point x="300.752" y="347.27"/>
      <point x="301.539" y="346.72" type="curve"/>
      <point x="284.346" y="335.146"/>
      <point x="270" y="316.367"/>
      <point x="270" y="290" type="curve" smooth="yes"/>
      <point x="270" y="192" type="line" smooth="yes"/>
      <point x="270" y="-13.861"/>
      <point x="203.062" y="-12.474"/>
      <point x="125" y="-12.9815" type="curve"/>
      <point x="125" y="38.1432" type="line"/>
      <point x="185.149" y="50.1644"/>
      <point x="193" y="108.648"/>
      <point x="193" y="208" type="curve" smooth="yes"/>
      <point x="193" y="304" type="line" smooth="yes"/>
      <point x="193" y="307.612"/>
      <point x="197.348" y="317.063"/>
      <point x="219.619" y="324.189" type="curve" smooth="yes"/>
    </contour>
    <contour>
      <point x="292.841" y="353.559" type="curve"/>
      <point x="218.063" y="372.254" type="line" smooth="yes"/>
      <point x="204.218" y="375.715"/>
      <point x="194.85" y="381.869"/>
      <point x="193" y="384.039" type="curve"/>
      <point x="193" y="469.102" type="line"/>
      <point x="192.181" y="569.001"/>
      <point x="197.522" y="643.459"/>
      <point x="125" y="657.863" type="curve"/>
      <point x="125" y="709.536" type="line"/>
      <point x="211.364" y="705.819"/>
      <point x="270" y="687.847"/>
      <point x="270" y="504" type="curve" smooth="yes"/>
      <point x="270" y="407.671" type="line"/>
      <point x="270.598" y="384.962"/>
      <point x="278.71" y="366.44"/>
    </contour>
  </outline>
</glyph>
<glyph name="asciitilde" format="1">
  <advance width="568"/>
  <unicode hex="007E"/>
  <outline>
    <contour>
      <point x="493" y="295.311" type="line"/>
      <point x="444.703" y="268.064"/>
      <point x="410.176" y="260"/>
      <point x="381" y="260" type="curve" smooth="yes"/>
      <point x="303.683" y="260"/>
      <point x="255.53" y="333"/>
      <point x="157" y="333" type="curve" smooth="yes"/>
      <point x="132.189" y="333"/>
      <point x="104.673" y="327.422"/>
      <point x="75" y="314.166" type="curve"/>
      <point x="75" y="390.225" type="line"/>
      <point x="112.326" y="409.567"/>
      <point x="139.359" y="415"/>
      <point x="163" y="415" type="curve" smooth="yes"/>
      <point x="234.283" y="415"/>
      <point x="283.468" y="342"/>
      <point x="387" y="342" type="curve" smooth="yes"/>
      <point x="418.353" y="342"/>
      <point x="453.32" y="350.54"/>
      <point x="493" y="369.717" type="curve"/>
    </contour>
  </outline>
</glyph>
<glyph name="exclamdown" format="1">
  <advance width="210"/>
  <unicode hex="00A1"/>
  <outline>
    <contour>
      <point x="63" y="509" type="line"/>
      <point x="142" y="509" type="line"/>
      <point x="142" y="25" type="line"/>
      <point x="63" y="25" type="line"/>
    </contour>
    <contour>
      <point x="51" y="647" type="curve" smooth="yes"/>
      <point x="51" y="675.334"/>
      <point x="72.6666" y="697"/>
      <point x="101" y="697" type="curve" smooth="yes"/>
      <point x="129.334" y="697"/>
      <point x="151" y="675.333"/>
      <point x="151" y="647" type="curve" smooth="yes"/>
      <point x="151" y="618.351"/>
      <point x="128.888" y="596"/>
      <point x="101" y="596" type="curve" smooth="yes"/>
      <point x="73.1118" y="596"/>
      <point x="51" y="618.351"/>
    </contour>
  </outline>
</glyph>
<glyph name="cent" format="1">
  <advance width="494"/>
  <unicode hex="00A2"/>
  <outline>
    <contour>
      <point x="308" y="118.375" type="line"/>
      <point x="320.575" y="124.141"/>
      <point x="338.482" y="134.309"/>
      <point x="348.003" y="156.208" type="curve"/>
      <point x="352.084" y="166.001"/>
      <point x="353.694" y="175.215"/>
      <point x="354.46" y="183.446" type="curve"/>
      <point x="441.759" y="162.57" type="line"/>
      <point x="433.847" y="103.6"/>
      <point x="393.398" y="56.6569"/>
      <point x="343.546" y="33.7095" type="curve" smooth="yes"/>
      <point x="329" y="27.0136" type="line"/>
      <point x="329" y="-23" type="line"/>
      <point x="308" y="-23" type="line"/>
    </contour>
    <contour>
      <point x="308" y="724" type="line"/>
      <point x="329" y="724" type="line"/>
      <point x="329" y="671.439" type="line"/>
      <point x="342.962" y="664.569" type="line" smooth="yes"/>
      <point x="392.607" y="640.14"/>
      <point x="433.664" y="587.393"/>
      <point x="441.577" y="534.944" type="curve"/>
      <point x="354.629" y="512.262" type="line"/>
      <point x="353.832" y="523.216"/>
      <point x="352.492" y="531.019"/>
      <point x="348.003" y="541.792" type="curve"/>
      <point x="338.289" y="564.135"/>
      <point x="319.02" y="575.204"/>
      <point x="308" y="580.793" type="curve"/>
    </contour>
    <contour>
      <point x="183" y="724" type="line"/>
      <point x="204" y="724" type="line"/>
      <point x="204" y="585.278" type="line"/>
      <point x="158.686" y="571.522"/>
      <point x="148" y="531.033"/>
      <point x="148" y="518" type="curve" smooth="yes"/>
      <point x="148" y="181" type="line" smooth="yes"/>
      <point x="148" y="166.449"/>
      <point x="159.02" y="128.161"/>
      <point x="204" y="114.325" type="curve"/>
      <point x="204" y="-23" type="line"/>
      <point x="183" y="-23" type="line"/>
      <point x="183" y="24.4609" type="line"/>
      <point x="166.606" y="30.4719" type="line" smooth="yes"/>
      <point x="89.1005" y="58.8907"/>
      <point x="57" y="140.912"/>
      <point x="57" y="181" type="curve" smooth="yes"/>
      <point x="57" y="518" type="line" smooth="yes"/>
      <point x="57" y="558.194"/>
      <point x="89.2414" y="641.161"/>
      <point x="166.606" y="669.528" type="curve" smooth="yes"/>
      <point x="183" y="675.539" type="line"/>
    </contour>
  </outline>
</glyph>
<glyph name="sterling" format="1">
  <advance width="520"/>
  <unicode hex="00A3"/>
  <outline>
    <contour>
      <point x="383.691" y="554.417" type="line"/>
      <point x="368.996" y="582.141"/>
      <point x="341.273" y="609"/>
      <point x="297" y="609" type="curve" smooth="yes"/>
      <point x="253.446" y="609"/>
      <point x="214" y="580.391"/>
      <point x="214" y="517" type="curve" smooth="yes"/>
      <point x="214" y="371" type="line"/>
      <point x="353" y="371" type="line"/>
      <point x="353" y="314" type="line"/>
      <point x="213" y="314" type="line"/>
      <point x="213" y="83" type="line"/>
      <point x="437" y="83" type="line"/>
      <point x="437" y="25" type="line"/>
      <point x="131" y="25" type="line"/>
      <point x="131" y="313" type="line"/>
      <point x="75" y="313" type="line"/>
      <point x="75" y="370" type="line"/>
      <point x="131" y="370" type="line"/>
      <point x="131" y="514" type="line" smooth="yes"/>
      <point x="131" y="607.453"/>
      <point x="176.441" y="680"/>
      <point x="291" y="680" type="curve" smooth="yes"/>
      <point x="293" y="680" type="line" smooth="yes"/>
      <point x="318.1" y="680"/>
      <point x="338.218" y="675.708"/>
      <point x="356.466" y="667.887" type="curve"/>
      <point x="399.26" y="650.917"/>
      <point x="426.752" y="617.467"/>
      <point x="440.023" y="582.867" type="curve"/>
    </contour>
  </outline>
</glyph>
<glyph name="currency" format="1">
  <advance width="656"/>
  <unicode hex="00A4"/>
  <outline>
    <contour>
      <point x="85.3095" y="542.323" type="line"/>
      <point x="124.258" y="586.682" type="line"/>
      <point x="198.357" y="521.358" type="line"/>
      <point x="214.926" y="536.602" type="line" smooth="yes"/>
      <point x="232.199" y="552.492"/>
      <point x="256.206" y="564.914"/>
      <point x="285" y="568.781" type="curve"/>
      <point x="285" y="499.837" type="line"/>
      <point x="248.508" y="489.993"/>
      <point x="241" y="464.228"/>
      <point x="241" y="452" type="curve" smooth="yes"/>
      <point x="241" y="276" type="line" smooth="yes"/>
      <point x="241" y="258.606"/>
      <point x="255.633" y="236.197"/>
      <point x="285" y="228.307" type="curve"/>
      <point x="285" y="159.243" type="line"/>
      <point x="254.426" y="163.443"/>
      <point x="231.719" y="176.325"/>
      <point x="214.313" y="193.035" type="curve" smooth="yes"/>
      <point x="197.736" y="208.949" type="line"/>
      <point x="124.289" y="144.316" type="line"/>
      <point x="86.1119" y="187.87" type="line"/>
      <point x="171" y="263.822" type="line"/>
      <point x="171" y="467.344" type="line"/>
    </contour>
    <contour>
      <point x="376" y="499.594" type="curve"/>
      <point x="376" y="568.637" type="line"/>
      <point x="404.083" y="564.344"/>
      <point x="424.657" y="552.625"/>
      <point x="442.074" y="536.602" type="curve" smooth="yes"/>
      <point x="458.753" y="521.257" type="line"/>
      <point x="531.851" y="586.557" type="line"/>
      <point x="570.691" y="542.323" type="line"/>
      <point x="485" y="467.344" type="line"/>
      <point x="485" y="263.822" type="line"/>
      <point x="569.888" y="187.87" type="line"/>
      <point x="531.696" y="144.299" type="line"/>
      <point x="459.249" y="207.935" type="line"/>
      <point x="442.687" y="192.035" type="line" smooth="yes"/>
      <point x="425.292" y="175.336"/>
      <point x="402.485" y="163.058"/>
      <point x="376" y="159.306" type="curve"/>
      <point x="376" y="224.774" type="line"/>
      <point x="409.967" y="234.535"/>
      <point x="418" y="262.44"/>
      <point x="418" y="274" type="curve" smooth="yes"/>
      <point x="418" y="451" type="line" smooth="yes"/>
      <point x="418" y="464.981"/>
      <point x="407.35" y="490.576"/>
    </contour>
  </outline>
</glyph>
<glyph name="yen" format="1">
  <advance width="542"/>
  <unicode hex="00A5"/>
  <outline>
    <contour>
      <point x="106.858" y="673" type="line"/>
      <point x="191.324" y="673" type="line"/>
      <point x="273.586" y="394.876" type="line"/>
      <point x="351.931" y="673" type="line"/>
      <point x="436.288" y="673" type="line"/>
      <point x="348.288" y="383" type="line"/>
      <point x="467" y="383" type="line"/>
      <point x="467" y="375" type="line"/>
      <point x="345.566" y="375" type="line"/>
      <point x="318.839" y="270" type="line"/>
      <point x="467" y="270" type="line"/>
      <point x="467" y="261" type="line"/>
      <point x="315" y="261" type="line"/>
      <point x="315" y="25" type="line"/>
      <point x="228" y="25" type="line"/>
      <point x="228" y="263" type="line"/>
      <point x="75" y="263" type="line"/>
      <point x="75" y="270" type="line"/>
      <point x="226.143" y="270" type="line"/>
      <point x="195.858" y="376" type="line"/>
      <point x="75" y="376" type="line"/>
      <point x="75" y="384" type="line"/>
      <point x="195.858" y="384" type="line"/>
    </contour>
  </outline>
</glyph>
<glyph name="brokenbar" format="1">
  <advance width="222"/>
  <unicode hex="00A6"/>
  <outline>
    <contour>
      <point x="75" y="196" type="line"/>
      <point x="147" y="196" type="line"/>
      <point x="147" y="-109" type="line"/>
      <point x="75" y="-109" type="line"/>
    </contour>
    <contour>
      <point x="75" y="729" type="line"/>
      <point x="147" y="729" type="line"/>
      <point x="147" y="424" type="line"/>
      <point x="75" y="424" type="line"/>
    </contour>
  </outline>
</glyph>
<glyph name="section" format="1">
  <advance width="547"/>
  <unicode hex="00A7"/>
  <outline>
    <contour>
      <point x="265" y="734" type="curve" smooth="yes"/>
      <point x="352" y="734" type="line"/>
      <point x="352" y="652" type="line"/>
      <point x="273" y="652" type="line" smooth="yes"/>
      <point x="227.902" y="652"/>
      <point x="194" y="619.823"/>
      <point x="194" y="576" type="curve" smooth="yes"/>
      <point x="194" y="550.33"/>
      <point x="206.461" y="530.154"/>
      <point x="221" y="515.771" type="curve"/>
      <point x="221" y="409.03" type="line"/>
      <point x="209.885" y="414.983"/>
      <point x="203.699" y="417.655"/>
      <point x="196.141" y="421.854" type="curve" smooth="yes"/>
      <point x="181.48" y="429.999" type="line"/>
      <point x="168.383" y="419.522" type="line" smooth="yes"/>
      <point x="152.272" y="406.633"/>
      <point x="142" y="385.356"/>
      <point x="142" y="357" type="curve" smooth="yes"/>
      <point x="142" y="303.44"/>
      <point x="184.078" y="273.85"/>
      <point x="221" y="255.899" type="curve"/>
      <point x="221" y="162.139" type="line"/>
      <point x="199.537" y="170.862"/>
      <point x="182.241" y="178.324"/>
      <point x="166.706" y="187.53" type="curve" smooth="yes"/>
      <point x="106.315" y="223.171"/>
      <point x="51" y="262.638"/>
      <point x="51" y="351" type="curve" smooth="yes"/>
      <point x="51" y="405.195"/>
      <point x="75.0673" y="449.685"/>
      <point x="113.286" y="479.218" type="curve" smooth="yes"/>
      <point x="127.552" y="490.242" type="line"/>
      <point x="121.596" y="507.259" type="line" smooth="yes"/>
      <point x="115.92" y="523.477"/>
      <point x="113" y="544.731"/>
      <point x="113" y="571" type="curve" smooth="yes"/>
      <point x="113" y="693.211"/>
      <point x="206.742" y="734"/>
    </contour>
    <contour>
      <point x="378.617" y="203.478" type="line" smooth="yes"/>
      <point x="394.728" y="216.367"/>
      <point x="405" y="237.644"/>
      <point x="405" y="266" type="curve" smooth="yes"/>
      <point x="405" y="320.53"/>
      <point x="362.355" y="349.675"/>
      <point x="325" y="367.28" type="curve"/>
      <point x="325" y="460.88" type="line"/>
      <point x="345.995" y="452.389"/>
      <point x="364.573" y="444.45"/>
      <point x="380.444" y="435.381" type="curve"/>
      <point x="440.549" y="399.909"/>
      <point x="496" y="360.332"/>
      <point x="496" y="272" type="curve" smooth="yes"/>
      <point x="496" y="217.805"/>
      <point x="471.933" y="173.315"/>
      <point x="433.714" y="143.782" type="curve" smooth="yes"/>
      <point x="419.448" y="132.758" type="line"/>
      <point x="425.404" y="115.741" type="line" smooth="yes"/>
      <point x="431.08" y="99.5231"/>
      <point x="434" y="78.2694"/>
      <point x="434" y="52" type="curve" smooth="yes"/>
      <point x="434" y="-70.211"/>
      <point x="340.258" y="-111"/>
      <point x="282" y="-111" type="curve" smooth="yes"/>
      <point x="195" y="-111" type="line"/>
      <point x="195" y="-29" type="line"/>
      <point x="274" y="-29" type="line" smooth="yes"/>
      <point x="319.098" y="-29"/>
      <point x="353" y="3.17698"/>
      <point x="353" y="47" type="curve" smooth="yes"/>
      <point x="353" y="72.6841"/>
      <point x="340.672" y="93.5101"/>
      <point x="325" y="108.557" type="curve"/>
      <point x="325" y="214.514" type="line"/>
      <point x="336.511" y="208.278"/>
      <point x="343.046" y="205.486"/>
      <point x="350.859" y="201.146" type="curve" smooth="yes"/>
      <point x="365.52" y="193.001" type="line"/>
    </contour>
  </outline>
</glyph>
<glyph name="dieresis" format="1">
  <advance width="320"/>
  <unicode hex="00A8"/>
  <outline>
    <contour>
      <point x="25" y="678" type="curve" smooth="yes"/>
      <point x="25" y="706.649"/>
      <point x="47.1121" y="729"/>
      <point x="75" y="729" type="curve" smooth="yes"/>
      <point x="102.888" y="729"/>
      <point x="125" y="706.649"/>
      <point x="125" y="678" type="curve" smooth="yes"/>
      <point x="125" y="649.666"/>
      <point x="103.333" y="628"/>
      <point x="75" y="628" type="curve" smooth="yes"/>
      <point x="46.6663" y="628"/>
      <point x="25" y="649.667"/>
    </contour>
    <contour>
      <point x="195" y="678" type="curve" smooth="yes"/>
      <point x="195" y="706.649"/>
      <point x="217.112" y="729"/>
      <point x="245" y="729" type="curve" smooth="yes"/>
      <point x="272.888" y="729"/>
      <point x="295" y="706.649"/>
      <point x="295" y="678" type="curve" smooth="yes"/>
      <point x="295" y="649.666"/>
      <point x="273.333" y="628"/>
      <point x="245" y="628" type="curve" smooth="yes"/>
      <point x="216.666" y="628"/>
      <point x="195" y="649.667"/>
    </contour>
  </outline>
</glyph>
<glyph name="copyright" format="1">
  <advance width="859"/>
  <unicode hex="00A9"/>
  <outline>
    <contour>
      <point x="472" y="21.1611" type="line"/>
      <point x="621.422" y="40.9692"/>
      <point x="741.9" y="173.659"/>
      <point x="745" y="331.755" type="curve"/>
      <point x="745" y="339" type="line" smooth="yes"/>
      <point x="745" y="519.592"/>
      <point x="607.067" y="644.255"/>
      <point x="472" y="659.531" type="curve"/>
      <point x="472" y="699.467" type="line"/>
      <point x="607.268" y="684.185"/>
      <point x="784" y="558.652"/>
      <point x="784" y="339" type="curve" smooth="yes"/>
      <point x="784" y="327.324" type="line"/>
      <point x="778.172" y="129.014"/>
      <point x="623.609" y="-3.18032"/>
      <point x="472" y="-21.9785" type="curve"/>
    </contour>
    <contour>
      <point x="387" y="538.292" type="curve"/>
      <point x="387" y="496.101" type="line"/>
      <point x="357.31" y="482.848"/>
      <point x="352" y="458.339"/>
      <point x="352" y="447" type="curve" smooth="yes"/>
      <point x="352" y="231" type="line" smooth="yes"/>
      <point x="352" y="218.6"/>
      <point x="359.82" y="194.706"/>
      <point x="387" y="182.786" type="curve"/>
      <point x="387" y="139.708" type="line"/>
      <point x="333.214" y="152.356"/>
      <point x="312" y="206.555"/>
      <point x="312" y="231" type="curve" smooth="yes"/>
      <point x="312" y="447" type="line" smooth="yes"/>
      <point x="312" y="471.872"/>
      <point x="334.185" y="525.872"/>
    </contour>
    <contour>
      <point x="472" y="184.925" type="line"/>
      <point x="482.654" y="191.543"/>
      <point x="491.464" y="198.345"/>
      <point x="497.099" y="212.432" type="curve"/>
      <point x="499.219" y="217.379"/>
      <point x="500.925" y="225.575"/>
      <point x="501.313" y="228.557" type="curve"/>
      <point x="538.047" y="215.199" type="line"/>
      <point x="530.529" y="182.788"/>
      <point x="501.929" y="152.451"/>
      <point x="472" y="141.608" type="curve"/>
    </contour>
    <contour>
      <point x="472" y="492.205" type="curve"/>
      <point x="472" y="536.392" type="line"/>
      <point x="503.256" y="525.068"/>
      <point x="530.794" y="494.069"/>
      <point x="538.092" y="462.609" type="curve"/>
      <point x="501.291" y="448.809" type="line"/>
      <point x="500.426" y="455.326"/>
      <point x="499.52" y="459.146"/>
      <point x="497.408" y="464.778" type="curve" smooth="yes"/>
      <point x="497.206" y="465.318" type="line"/>
      <point x="496.979" y="465.848" type="line" smooth="yes"/>
      <point x="490.664" y="480.582"/>
      <point x="477.705" y="488.881"/>
    </contour>
    <contour>
      <point x="387" y="21.1611" type="curve"/>
      <point x="387" y="-21.9785" type="line"/>
      <point x="233.682" y="-2.96844"/>
      <point x="80.7762" y="130.791"/>
      <point x="75" y="327.324" type="curve"/>
      <point x="75" y="339" type="line" smooth="yes"/>
      <point x="75" y="559.233"/>
      <point x="252.853" y="684.312"/>
      <point x="387" y="699.467" type="curve"/>
      <point x="387" y="659.531" type="line"/>
      <point x="250.628" y="644.108"/>
      <point x="114" y="518.903"/>
      <point x="114" y="339" type="curve" smooth="yes"/>
      <point x="114" y="331.755" type="line"/>
      <point x="117.113" y="172.99"/>
      <point x="238.908" y="40.7928"/>
    </contour>
  </outline>
</glyph>
<glyph name="ordfeminine" format="1">
  <advance width="227"/>
  <unicode hex="00AA"/>
  <outline>
    <contour>
      <point x="51" y="405" type="line"/>
      <point x="176" y="405" type="line"/>
      <point x="176" y="387" type="line"/>
      <point x="51" y="387" type="line"/>
    </contour>
    <contour>
      <point x="74" y="667.283" type="line"/>
      <point x="67.0882" y="662.283"/>
      <point x="65.2727" y="659.605"/>
      <point x="62.9681" y="656.418" type="curve" smooth="yes"/>
      <point x="60.5216" y="657.366" type="line"/>
      <point x="63.6677" y="661.944"/>
      <point x="68.45" y="666.228"/>
      <point x="74" y="669.574" type="curve"/>
    </contour>
    <contour>
      <point x="53" y="520.462" type="curve"/>
      <point x="56.4425" y="512.081"/>
      <point x="66.8302" y="502.706"/>
      <point x="73.3091" y="500.144" type="curve"/>
      <point x="57.5651" y="505.372"/>
      <point x="53" y="514.238"/>
    </contour>
    <contour>
      <point x="152.798" y="607.145" type="line"/>
      <point x="157.939" y="614.398"/>
      <point x="159" y="617.611"/>
      <point x="159" y="626" type="curve" smooth="yes"/>
      <point x="159" y="631" type="line" smooth="yes"/>
      <point x="159" y="637.784"/>
      <point x="158.139" y="657.346"/>
      <point x="141" y="668.186" type="curve"/>
      <point x="141" y="670.147" type="line"/>
      <point x="156.24" y="661.008"/>
      <point x="163" y="642.984"/>
      <point x="163" y="639" type="curve" smooth="yes"/>
      <point x="163" y="535" type="line" smooth="yes"/>
      <point x="163" y="529.673"/>
      <point x="163.252" y="518.97"/>
      <point x="175" y="506.256" type="curve"/>
      <point x="175" y="502.24" type="line"/>
      <point x="174.349" y="502.734" type="line"/>
      <point x="159.504" y="514.279" type="line"/>
      <point x="144.296" y="503.218" type="line" smooth="yes"/>
      <point x="143.543" y="502.671"/>
      <point x="142.352" y="501.881"/>
      <point x="142" y="501.654" type="curve" smooth="yes"/>
      <point x="142" y="504.77" type="line"/>
      <point x="159.659" y="518.843"/>
      <point x="159" y="529.168"/>
      <point x="159" y="537" type="curve" smooth="yes"/>
      <point x="159" y="610.409" type="line"/>
    </contour>
  </outline>
</glyph>
<glyph name="guillemotleft" format="1">
  <advance width="475"/>
  <unicode hex="00AB"/>
  <outline>
    <contour>
      <point x="424" y="427.426" type="line"/>
      <point x="424" y="365.297" type="line"/>
      <point x="317.16" y="293.27" type="line"/>
      <point x="424" y="211.639" type="line"/>
      <point x="424" y="151.763" type="line"/>
      <point x="263" y="271.559" type="line"/>
      <point x="263" y="308.393" type="line"/>
    </contour>
    <contour>
      <point x="213" y="427.426" type="line"/>
      <point x="213" y="365.297" type="line"/>
      <point x="106.16" y="293.27" type="line"/>
      <point x="213" y="211.639" type="line"/>
      <point x="213" y="151.763" type="line"/>
      <point x="52" y="271.559" type="line"/>
      <point x="52" y="308.393" type="line"/>
    </contour>
  </outline>
</glyph>
<glyph name="logicalnot" format="1">
  <advance width="502"/>
  <unicode hex="00AC"/>
  <outline>
    <contour>
      <point x="451" y="233" type="line"/>
      <point x="383" y="233" type="line"/>
      <point x="383" y="352" type="line"/>
      <point x="51" y="352" type="line"/>
      <point x="51" y="417" type="line"/>
      <point x="451" y="417" type="line"/>
    </contour>
  </outline>
</glyph>
<glyph name="degree" format="1">
  <advance width="282"/>
  <unicode hex="00B0"/>
  <outline>
    <contour>
      <point x="50" y="583" type="curve" smooth="yes"/>
      <point x="50" y="633.079"/>
      <point x="90.6897" y="673"/>
      <point x="140" y="673" type="curve" smooth="yes"/>
      <point x="190.478" y="673"/>
      <point x="231" y="632.981"/>
      <point x="231" y="583" type="curve" smooth="yes"/>
      <point x="231" y="533.982"/>
      <point x="190.286" y="493"/>
      <point x="140" y="493" type="curve" smooth="yes"/>
      <point x="90.8828" y="493"/>
      <point x="50" y="533.883"/>
    </contour>
    <contour>
      <point x="77" y="583" type="curve" smooth="yes"/>
      <point x="77" y="548.203"/>
      <point x="105.196" y="520"/>
      <point x="140" y="520" type="curve" smooth="yes"/>
      <point x="175.295" y="520"/>
      <point x="204" y="547.885"/>
      <point x="204" y="583" type="curve" smooth="yes"/>
      <point x="204" y="618.592"/>
      <point x="175.628" y="647"/>
      <point x="140" y="647" type="curve" smooth="yes"/>
      <point x="104.906" y="647"/>
      <point x="77" y="618.31"/>
    </contour>
  </outline>
</glyph>
<glyph name="plusminus" format="1">
  <advance width="575"/>
  <unicode hex="00B1"/>
  <outline>
    <contour>
      <point x="451" y="142" type="line"/>
      <point x="451" y="65" type="line"/>
      <point x="125" y="65" type="line"/>
      <point x="125" y="142" type="line"/>
    </contour>
    <component base="plus" yOffset="161"/>
  </outline>
</glyph>
<glyph name="uni00B2" format="1">
  <advance width="245"/>
  <unicode hex="00B2"/>
  <outline>
    <contour>
      <point x="147" y="660.704" type="curve"/>
      <point x="147" y="673.138" type="line"/>
      <point x="181.848" y="665.144"/>
      <point x="194" y="632.237"/>
      <point x="194" y="609" type="curve" smooth="yes"/>
      <point x="194" y="570.887"/>
      <point x="182.135" y="566.832"/>
      <point x="155.39" y="547.287" type="curve"/>
      <point x="128.683" y="528.334"/>
      <point x="109.503" y="514.063"/>
      <point x="94.5025" y="494" type="curve"/>
      <point x="78.211" y="494" type="line"/>
      <point x="100.566" y="522.053"/>
      <point x="121.738" y="532.739"/>
      <point x="135.098" y="543.873" type="curve"/>
      <point x="145.884" y="553.041"/>
      <point x="184" y="566.076"/>
      <point x="184" y="608" type="curve" smooth="yes"/>
      <point x="184" y="620.724"/>
      <point x="180.976" y="634.404"/>
      <point x="171.575" y="645.284" type="curve" smooth="yes"/>
      <point x="164.71" y="653.229"/>
      <point x="155.315" y="658.045"/>
    </contour>
    <contour>
      <point x="191" y="426" type="line"/>
      <point x="191" y="414" type="line"/>
      <point x="59" y="414" type="line"/>
      <point x="59" y="426" type="line"/>
    </contour>
    <contour>
      <point x="80" y="653.365" type="line"/>
      <point x="74.5116" y="648.764"/>
      <point x="67.9503" y="639.963"/>
      <point x="65.0888" y="633.562" type="curve"/>
      <point x="55.6489" y="635.482" type="line"/>
      <point x="61.1407" y="648.928"/>
      <point x="69.5406" y="659.264"/>
      <point x="80" y="666.377" type="curve"/>
    </contour>
  </outline>
</glyph>
<glyph name="uni00B3" format="1">
  <advance width="247"/>
  <unicode hex="00B3"/>
  <outline>
    <contour>
      <point x="73.2724" y="654.924" type="curve" smooth="yes"/>
      <point x="63.2655" y="660.889" type="line"/>
      <point x="68.8785" y="665.82"/>
      <point x="75.3262" y="669.635"/>
      <point x="82" y="672.18" type="curve"/>
      <point x="82" y="659.964" type="line"/>
      <point x="77.4831" y="657.812"/>
      <point x="73.6575" y="655.199"/>
    </contour>
    <contour>
      <point x="151" y="432.061" type="line"/>
      <point x="172.307" y="443.168"/>
      <point x="182" y="462.21"/>
      <point x="182" y="483" type="curve" smooth="yes"/>
      <point x="182" y="492.894"/>
      <point x="181.836" y="506.155"/>
      <point x="172.617" y="518.783" type="curve" smooth="yes"/>
      <point x="160.392" y="535.53"/>
      <point x="140.209" y="538.965"/>
      <point x="122" y="540.342" type="curve"/>
      <point x="122" y="552.744" type="line"/>
      <point x="142.739" y="554.522"/>
      <point x="159.991" y="558.513"/>
      <point x="171.893" y="574.202" type="curve" smooth="yes"/>
      <point x="182.02" y="587.551"/>
      <point x="182" y="601.816"/>
      <point x="182" y="612" type="curve" smooth="yes"/>
      <point x="182" y="625.578"/>
      <point x="177.451" y="638.169"/>
      <point x="169.577" y="647.278" type="curve" smooth="yes"/>
      <point x="163.704" y="654.071"/>
      <point x="156.667" y="658.265"/>
      <point x="150" y="661.141" type="curve"/>
      <point x="150" y="672.247" type="line"/>
      <point x="179.513" y="662.055"/>
      <point x="194" y="633.091"/>
      <point x="194" y="616" type="curve" smooth="yes"/>
      <point x="194" y="582.406"/>
      <point x="184.282" y="570.296"/>
      <point x="179.757" y="566.816" type="curve" smooth="yes"/>
      <point x="155.012" y="547.781" type="line"/>
      <point x="178.995" y="527.794" type="line" smooth="yes"/>
      <point x="185.268" y="522.567"/>
      <point x="196" y="508.805"/>
      <point x="196" y="482" type="curve" smooth="yes"/>
      <point x="196" y="452.854"/>
      <point x="174.204" y="430.779"/>
      <point x="151" y="421.413" type="curve"/>
    </contour>
    <contour>
      <point x="73.5657" y="438.251" type="line"/>
      <point x="77.5393" y="435.68"/>
      <point x="79.2031" y="434.967"/>
      <point x="82" y="433.68" type="curve"/>
      <point x="82" y="419.829" type="line"/>
      <point x="73.6856" y="422.254"/>
      <point x="67.329" y="426.047"/>
      <point x="61.7951" y="431.234" type="curve"/>
    </contour>
  </outline>
</glyph>
<glyph name="acute" format="1">
  <advance width="263"/>
  <unicode hex="00B4"/>
  <outline>
    <contour>
      <point x="125.273" y="630" type="line"/>
      <point x="81.8155" y="630" type="line"/>
      <point x="106.644" y="732" type="line"/>
      <point x="174.26" y="732" type="line"/>
    </contour>
  </outline>
</glyph>
<glyph name="mu" format="1">
  <advance width="468"/>
  <unicode hex="00B5"/>
  <outline>
    <contour>
      <point x="301" y="675" type="line"/>
      <point x="375" y="675" type="line"/>
      <point x="375" y="328" type="line" smooth="yes"/>
      <point x="375" y="313.874"/>
      <point x="384.788" y="289.466"/>
      <point x="417" y="279.544" type="curve"/>
      <point x="417" y="207.304" type="line"/>
      <point x="391.085" y="210.834"/>
      <point x="370.905" y="220.153"/>
      <point x="354.127" y="232.904" type="curve" smooth="yes"/>
      <point x="338.908" y="244.47" type="line"/>
      <point x="323.757" y="232.816" type="line" smooth="yes"/>
      <point x="305.815" y="219.014"/>
      <point x="283.57" y="208.778"/>
      <point x="259" y="205.349" type="curve"/>
      <point x="259" y="277.642" type="line"/>
      <point x="291.856" y="286.971"/>
      <point x="301" y="313.086"/>
      <point x="301" y="326" type="curve" smooth="yes"/>
    </contour>
    <contour>
      <point x="51" y="673" type="line"/>
      <point x="125" y="673" type="line"/>
      <point x="125" y="326" type="line" smooth="yes"/>
      <point x="125" y="311.874"/>
      <point x="134.788" y="287.466"/>
      <point x="167" y="277.544" type="curve"/>
      <point x="167" y="205.174" type="line"/>
      <point x="161.709" y="205.924"/>
      <point x="159.879" y="206.3"/>
      <point x="156.063" y="207.254" type="curve" smooth="yes"/>
      <point x="125" y="215.019" type="line"/>
      <point x="125" y="25" type="line"/>
      <point x="51" y="25" type="line"/>
    </contour>
  </outline>
</glyph>
<glyph name="paragraph" format="1">
  <advance width="444"/>
  <unicode hex="00B6"/>
  <outline>
    <contour>
      <point x="393" y="680" type="line"/>
      <point x="393" y="20" type="line"/>
      <point x="360" y="20" type="line"/>
      <point x="360" y="680" type="line"/>
    </contour>
    <contour>
      <point x="253" y="680" type="line"/>
      <point x="253" y="20" type="line"/>
      <point x="220" y="20" type="line"/>
      <point x="220" y="354" type="line"/>
      <point x="195" y="354" type="line" smooth="yes"/>
      <point x="106.051" y="354"/>
      <point x="51" y="413.459"/>
      <point x="51" y="517" type="curve" smooth="yes"/>
      <point x="51" y="606.71"/>
      <point x="109.702" y="680"/>
      <point x="195" y="680" type="curve" smooth="yes"/>
    </contour>
  </outline>
</glyph>
<glyph name="cedilla" format="1">
  <advance width="219"/>
  <unicode hex="00B8"/>
  <outline>
    <contour>
      <point x="124.437" y="98" type="curve"/>
      <point x="167.259" y="98" type="line"/>
      <point x="159.498" y="44.6566"/>
      <point x="129.338" y="-1.20235"/>
      <point x="51" y="-9.72512" type="curve"/>
      <point x="51" y="31.9859" type="line"/>
      <point x="82.2358" y="37.3807"/>
      <point x="114.736" y="56.0867"/>
    </contour>
  </outline>
</glyph>
<glyph name="uni00B9" format="1">
  <advance width="186"/>
  <unicode hex="00B9"/>
  <outline>
    <contour>
      <point x="85" y="635.524" type="line"/>
      <point x="85" y="660.711" type="line"/>
      <point x="103.522" y="675" type="line"/>
      <point x="136" y="675" type="line"/>
      <point x="136" y="416" type="line"/>
      <point x="118" y="416" type="line"/>
      <point x="118" y="661.524" type="line"/>
    </contour>
  </outline>
</glyph>
<glyph name="ordmasculine" format="1">
  <advance width="230"/>
  <unicode hex="00BA"/>
  <outline>
    <contour>
      <point x="57" y="637" type="line" smooth="yes"/>
      <point x="57" y="642.355"/>
      <point x="65.7484" y="662.712"/>
      <point x="83" y="670.819" type="curve"/>
      <point x="83" y="665.542" type="line"/>
      <point x="65.4944" y="655.394"/>
      <point x="63" y="645.518"/>
      <point x="63" y="635" type="curve" smooth="yes"/>
      <point x="63" y="534" type="line" smooth="yes"/>
      <point x="63" y="518.528"/>
      <point x="71.3262" y="511.273"/>
      <point x="83" y="504.447" type="curve"/>
      <point x="83" y="499.116" type="line"/>
      <point x="64.4434" y="507.949"/>
      <point x="57" y="528.315"/>
      <point x="57" y="533" type="curve" smooth="yes"/>
    </contour>
    <contour>
      <point x="148" y="664.641" type="curve"/>
      <point x="148" y="669.702" type="line"/>
      <point x="163.767" y="660.697"/>
      <point x="171" y="641.712"/>
      <point x="171" y="637" type="curve" smooth="yes"/>
      <point x="171" y="533" type="line" smooth="yes"/>
      <point x="171" y="528.494"/>
      <point x="162.823" y="508.514"/>
      <point x="148" y="500.223" type="curve"/>
      <point x="148" y="503.359" type="line"/>
      <point x="164.129" y="514.016"/>
      <point x="166" y="522.817"/>
      <point x="166" y="533" type="curve" smooth="yes"/>
      <point x="166" y="635" type="line" smooth="yes"/>
      <point x="166" y="645.808"/>
      <point x="160.773" y="656.201"/>
    </contour>
    <contour>
      <point x="51" y="407" type="line"/>
      <point x="179" y="407" type="line"/>
      <point x="179" y="386" type="line"/>
      <point x="51" y="386" type="line"/>
    </contour>
  </outline>
</glyph>
<glyph name="guillemotright" format="1">
  <advance width="414"/>
  <unicode hex="00BB"/>
  <outline>
    <contour>
      <point x="262" y="427.426" type="line"/>
      <point x="423" y="308.393" type="line"/>
      <point x="423" y="271.559" type="line"/>
      <point x="262" y="151.763" type="line"/>
      <point x="262" y="211.639" type="line"/>
      <point x="368.84" y="293.27" type="line"/>
      <point x="262" y="365.297" type="line"/>
    </contour>
    <contour>
      <point x="51" y="427.426" type="line"/>
      <point x="212" y="308.393" type="line"/>
      <point x="212" y="271.559" type="line"/>
      <point x="51" y="151.763" type="line"/>
      <point x="51" y="211.639" type="line"/>
      <point x="157.84" y="293.27" type="line"/>
      <point x="51" y="365.297" type="line"/>
    </contour>
  </outline>
</glyph>
<glyph name="onequarter" format="1">
  <advance width="560"/>
  <unicode hex="00BC"/>
  <outline>
    <contour>
      <point x="70.6725" y="23" type="line"/>
      <point x="471.991" y="677" type="line"/>
      <point x="489.705" y="677" type="line"/>
      <point x="94.89" y="23" type="line"/>
    </contour>
    <contour>
      <point x="343" y="112" type="line"/>
      <point x="343" y="96" type="line"/>
      <point x="295" y="96" type="line"/>
      <point x="295" y="130.241" type="line"/>
      <point x="343" y="212.527" type="line"/>
      <point x="343" y="181.715" type="line"/>
      <point x="302.639" y="112" type="line"/>
    </contour>
    <contour>
      <point x="463" y="112" type="line"/>
      <point x="463" y="96" type="line"/>
      <point x="436" y="96" type="line"/>
      <point x="436" y="24" type="line"/>
      <point x="418" y="24" type="line"/>
      <point x="418" y="327" type="line"/>
      <point x="436" y="327" type="line"/>
      <point x="436" y="112" type="line"/>
    </contour>
    <contour>
      <point x="100" y="618.589" type="line"/>
      <point x="100" y="658.936" type="line"/>
      <point x="122.726" y="677" type="line"/>
      <point x="156" y="677" type="line"/>
      <point x="156" y="374" type="line"/>
      <point x="138" y="374" type="line"/>
      <point x="138" y="648.589" type="line"/>
    </contour>
  </outline>
</glyph>
<glyph name="onehalf" format="1">
  <advance width="581"/>
  <unicode hex="00BD"/>
  <outline>
    <contour>
      <point x="101" y="618.589" type="line"/>
      <point x="101" y="659.131" type="line"/>
      <point x="122.904" y="677" type="line"/>
      <point x="157" y="677" type="line"/>
      <point x="157" y="374" type="line"/>
      <point x="139" y="374" type="line"/>
      <point x="139" y="648.589" type="line"/>
    </contour>
    <contour>
      <point x="473" y="309.426" type="curve"/>
      <point x="473" y="327.047" type="line"/>
      <point x="514.433" y="318.275"/>
      <point x="528.105" y="279.327"/>
      <point x="529.001" y="250.62" type="curve"/>
      <point x="528.667" y="206.866"/>
      <point x="514.746" y="200.539"/>
      <point x="484.566" y="179.413" type="curve"/>
      <point x="453.606" y="157.299"/>
      <point x="431.503" y="139.972"/>
      <point x="414.29" y="117" type="curve"/>
      <point x="392.512" y="117" type="line"/>
      <point x="418.239" y="150.112"/>
      <point x="444.719" y="164.56"/>
      <point x="459.771" y="176.601" type="curve"/>
      <point x="474.493" y="188.762"/>
      <point x="515" y="203.411"/>
      <point x="515" y="251" type="curve" smooth="yes"/>
      <point x="515" y="278.735"/>
      <point x="498.522" y="301.49"/>
    </contour>
    <contour>
      <point x="526" y="40" type="line"/>
      <point x="526" y="24" type="line"/>
      <point x="371" y="24" type="line"/>
      <point x="371" y="40" type="line"/>
    </contour>
    <contour>
      <point x="70.6725" y="23" type="line"/>
      <point x="471.991" y="677" type="line"/>
      <point x="489.705" y="677" type="line"/>
      <point x="94.89" y="23" type="line"/>
    </contour>
    <contour>
      <point x="399" y="302.822" type="line"/>
      <point x="392.464" y="297.491"/>
      <point x="384.039" y="286.775"/>
      <point x="380.232" y="277.606" type="curve"/>
      <point x="367.704" y="280.191" type="line"/>
      <point x="374.376" y="297.63"/>
      <point x="385.464" y="310.957"/>
      <point x="399" y="319.174" type="curve"/>
    </contour>
  </outline>
</glyph>
<glyph name="threequarters" format="1">
  <advance width="584"/>
  <unicode hex="00BE"/>
  <outline>
    <contour>
      <point x="94.6725" y="23" type="line"/>
      <point x="495.991" y="677" type="line"/>
      <point x="513.705" y="677" type="line"/>
      <point x="118.89" y="23" type="line"/>
    </contour>
    <contour>
      <point x="367" y="112" type="line"/>
      <point x="367" y="96" type="line"/>
      <point x="319" y="96" type="line"/>
      <point x="319" y="130.241" type="line"/>
      <point x="367" y="212.527" type="line"/>
      <point x="367" y="181.715" type="line"/>
      <point x="326.639" y="112" type="line"/>
    </contour>
    <contour>
      <point x="487" y="112" type="line"/>
      <point x="487" y="96" type="line"/>
      <point x="460" y="96" type="line"/>
      <point x="460" y="24" type="line"/>
      <point x="442" y="24" type="line"/>
      <point x="442" y="327" type="line"/>
      <point x="460" y="327" type="line"/>
      <point x="460" y="112" type="line"/>
    </contour>
    <contour>
      <point x="77.2608" y="647.811" type="curve"/>
      <point x="63.2445" y="656.07" type="line"/>
      <point x="71.0216" y="663.002"/>
      <point x="80.1828" y="668.16"/>
      <point x="89" y="671.096" type="curve"/>
      <point x="89" y="654.664" type="line"/>
      <point x="82.3787" y="651.563"/>
      <point x="80.2717" y="649.988"/>
    </contour>
    <contour>
      <point x="166" y="392.178" type="line"/>
      <point x="190.623" y="403.968"/>
      <point x="202" y="426.865"/>
      <point x="202" y="450" type="curve" smooth="yes"/>
      <point x="202" y="462.678"/>
      <point x="200.75" y="477.991"/>
      <point x="190.332" y="491.551" type="curve" smooth="yes"/>
      <point x="177.055" y="508.834"/>
      <point x="155.375" y="514.093"/>
      <point x="133" y="516.066" type="curve"/>
      <point x="133" y="532.883" type="line"/>
      <point x="156.953" y="534.928"/>
      <point x="176.561" y="540.054"/>
      <point x="189.738" y="556.557" type="curve" smooth="yes"/>
      <point x="201.175" y="570.88"/>
      <point x="202" y="587.15"/>
      <point x="202" y="600" type="curve" smooth="yes"/>
      <point x="202" y="629.614"/>
      <point x="183.703" y="648.776"/>
      <point x="165" y="656.696" type="curve"/>
      <point x="165" y="670.878" type="line"/>
      <point x="200.783" y="659.193"/>
      <point x="218" y="624.908"/>
      <point x="218" y="604" type="curve" smooth="yes"/>
      <point x="218" y="561.154"/>
      <point x="205.243" y="548.9"/>
      <point x="201.138" y="546.437" type="curve" smooth="yes"/>
      <point x="168.883" y="527.084" type="line"/>
      <point x="199.216" y="504.84" type="line" smooth="yes"/>
      <point x="207.423" y="498.821"/>
      <point x="220" y="484.204"/>
      <point x="220" y="450" type="curve" smooth="yes"/>
      <point x="220" y="414.648"/>
      <point x="193.075" y="387.964"/>
      <point x="166" y="377.58" type="curve"/>
    </contour>
    <contour>
      <point x="78.0227" y="400.638" type="line"/>
      <point x="81.4405" y="398.166"/>
      <point x="85.2752" y="396.08"/>
      <point x="89" y="394.336" type="curve"/>
      <point x="89" y="375.932" type="line"/>
      <point x="77.8387" y="378.966"/>
      <point x="69.4326" y="383.934"/>
      <point x="62.0213" y="391.209" type="curve"/>
    </contour>
  </outline>
</glyph>
<glyph name="questiondown" format="1">
  <advance width="460"/>
  <unicode hex="00BF"/>
  <outline>
    <contour>
      <point x="147" y="636" type="curve" smooth="yes"/>
      <point x="147" y="664.334"/>
      <point x="168.667" y="686"/>
      <point x="197" y="686" type="curve" smooth="yes"/>
      <point x="225.649" y="686"/>
      <point x="248" y="663.888"/>
      <point x="248" y="636" type="curve" smooth="yes"/>
      <point x="248" y="607.797"/>
      <point x="225.202" y="585"/>
      <point x="197" y="585" type="curve" smooth="yes"/>
      <point x="169.112" y="585"/>
      <point x="147" y="607.351"/>
    </contour>
    <contour>
      <point x="111.579" y="126.556" type="line"/>
      <point x="137.786" y="103.238"/>
      <point x="170.405" y="89"/>
      <point x="210" y="89" type="curve" smooth="yes"/>
      <point x="266.302" y="89"/>
      <point x="327" y="126.456"/>
      <point x="327" y="196" type="curve" smooth="yes"/>
      <point x="327" y="300.214"/>
      <point x="260.244" y="323.701"/>
      <point x="159" y="327.376" type="curve"/>
      <point x="159" y="498" type="line"/>
      <point x="238" y="498" type="line"/>
      <point x="238" y="389.91" type="line"/>
      <point x="260.971" y="388.082" type="line"/>
      <point x="265.711" y="387.655"/>
      <point x="405" y="375.605"/>
      <point x="405" y="208" type="curve" smooth="yes"/>
      <point x="405" y="83.6698"/>
      <point x="335.308" y="11"/>
      <point x="218" y="11" type="curve" smooth="yes"/>
      <point x="133.9" y="11"/>
      <point x="91.711" y="45.3692"/>
      <point x="63.5604" y="76.7803" type="curve"/>
    </contour>
  </outline>
</glyph>
<glyph name="Aring" format="1">
  <advance width="416"/>
  <unicode hex="00C5"/>
  <outline>
    <contour>
      <point x="26" y="25" type="line"/>
      <point x="131.066" y="499.02" type="line"/>
      <point x="165.461" y="302.052" type="line"/>
      <point x="112.726" y="25" type="line"/>
    </contour>
    <contour>
      <point x="209.356" y="847" type="curve" smooth="yes"/>
      <point x="187.862" y="847"/>
      <point x="170.612" y="821.63"/>
      <point x="170.612" y="790" type="curve" smooth="yes"/>
      <point x="170.612" y="758.378"/>
      <point x="187.857" y="733"/>
      <point x="209.356" y="733" type="curve" smooth="yes"/>
      <point x="230.85" y="733"/>
      <point x="248.1" y="758.37"/>
      <point x="248.1" y="790" type="curve" smooth="yes"/>
      <point x="248.1" y="821.622"/>
      <point x="230.856" y="847"/>
    </contour>
    <contour>
      <point x="174.471" y="740.678" type="line" smooth="yes"/>
      <point x="166.219" y="752.819"/>
      <point x="161.096" y="770.402"/>
      <point x="161.096" y="790" type="curve" smooth="yes"/>
      <point x="161.096" y="829.193"/>
      <point x="182.716" y="861"/>
      <point x="209.356" y="861" type="curve" smooth="yes"/>
      <point x="235.997" y="861"/>
      <point x="258.852" y="829.192"/>
      <point x="258.852" y="790" type="curve" smooth="yes"/>
      <point x="258.852" y="770.526"/>
      <point x="252.615" y="753.721"/>
      <point x="244.563" y="741.134" type="curve" smooth="yes"/>
      <point x="238.441" y="731.565" type="line"/>
      <point x="377.875" y="50" type="line"/>
      <point x="291.652" y="50" type="line"/>
      <point x="271.652" y="135" type="line"/>
      <point x="210.049" y="135" type="line"/>
      <point x="223.052" y="223" type="line"/>
      <point x="254.986" y="223" type="line"/>
      <point x="177.978" y="735.52" type="line"/>
    </contour>
  </outline>
</glyph>
<glyph name="AE" format="1">
  <advance width="627"/>
  <unicode hex="00C6"/>
  <outline>
    <contour>
      <point x="384.215" y="116" type="line"/>
      <point x="593.758" y="116" type="line"/>
      <point x="593.758" y="25" type="line"/>
      <point x="305.446" y="25" type="line"/>
      <point x="305.446" y="173" type="line"/>
      <point x="255.036" y="173" type="line"/>
      <point x="269.679" y="243" type="line"/>
      <point x="305.446" y="243" type="line"/>
      <point x="305.446" y="585" type="line"/>
      <point x="252.137" y="585" type="line"/>
      <point x="130.171" y="25" type="line"/>
      <point x="26" y="25" type="line"/>
      <point x="187.193" y="675" type="line"/>
      <point x="593.758" y="675" type="line"/>
      <point x="593.758" y="585" type="line"/>
      <point x="384.215" y="585" type="line"/>
      <point x="384.215" y="393" type="line"/>
      <point x="499.758" y="393" type="line"/>
      <point x="499.758" y="302" type="line"/>
      <point x="384.215" y="302" type="line"/>
    </contour>
  </outline>
</glyph>
<glyph name="Eth" format="1">
  <advance width="401"/>
  <unicode hex="00D0"/>
  <outline>
    <contour>
      <point x="165.804" y="675" type="line"/>
      <point x="165.804" y="395" type="line"/>
      <point x="203.532" y="395" type="line"/>
      <point x="203.532" y="317" type="line"/>
      <point x="165.804" y="317" type="line"/>
      <point x="165.804" y="25" type="line"/>
      <point x="83" y="25" type="line"/>
      <point x="83" y="317" type="line"/>
      <point x="26" y="317" type="line"/>
      <point x="26" y="395" type="line"/>
      <point x="83" y="395" type="line"/>
      <point x="83" y="675" type="line"/>
    </contour>
    <contour>
      <point x="375" y="197" type="line" smooth="yes"/>
      <point x="375" y="87.1719"/>
      <point x="287.911" y="39.6152"/>
      <point x="235.87" y="27.7314" type="curve"/>
      <point x="235.87" y="121.174" type="line"/>
      <point x="250.617" y="129.098"/>
      <point x="283.032" y="150.303"/>
      <point x="284" y="196.739" type="curve"/>
      <point x="284" y="503" type="line" smooth="yes"/>
      <point x="284" y="513.691"/>
      <point x="277.352" y="562.617"/>
      <point x="235.87" y="579.96" type="curve"/>
      <point x="235.87" y="673.379" type="line"/>
      <point x="333.452" y="658.838"/>
      <point x="375" y="553.232"/>
      <point x="375" y="503" type="curve" smooth="yes"/>
    </contour>
  </outline>
</glyph>
<glyph name="multiply" format="1">
  <advance width="597"/>
  <unicode hex="00D7"/>
  <outline>
    <contour>
      <point x="249.683" y="417" type="line"/>
      <point x="100" y="595.623" type="line"/>
      <point x="153.699" y="649.322" type="line"/>
      <point x="288.553" y="471.645" type="line"/>
      <point x="422.699" y="648.322" type="line"/>
      <point x="476.345" y="594.678" type="line"/>
      <point x="327.346" y="418" type="line"/>
      <point x="476.245" y="259.099" type="line"/>
      <point x="421.798" y="205.257" type="line"/>
      <point x="288.514" y="363.411" type="line"/>
      <point x="154.645" y="203.411" type="line"/>
      <point x="101" y="257.056" type="line"/>
    </contour>
  </outline>
</glyph>
<glyph name="Oslash" format="1">
  <advance width="562"/>
  <unicode hex="00D8"/>
  <outline>
    <contour>
      <point x="437.216" y="568.085" type="line"/>
      <point x="496.916" y="622.455" type="line"/>
      <point x="541.702" y="571.927" type="line"/>
      <point x="445.817" y="485.087" type="line"/>
      <point x="445.817" y="195" type="line" smooth="yes"/>
      <point x="445.817" y="87.9307"/>
      <point x="367.494" y="36.2793"/>
      <point x="316.162" y="23.0596" type="curve"/>
      <point x="316.162" y="118.262" type="line"/>
      <point x="334.396" y="127.17"/>
      <point x="363.214" y="148.806"/>
      <point x="364.068" y="194.729" type="curve"/>
      <point x="364.068" y="403.285" type="line"/>
      <point x="179.287" y="208.104" type="line"/>
      <point x="179.287" y="195" type="line" smooth="yes"/>
      <point x="179.287" y="148.188"/>
      <point x="210.757" y="125.785"/>
      <point x="226.338" y="118.278" type="curve"/>
      <point x="226.338" y="23.0811" type="line"/>
      <point x="191.717" y="32.0547"/>
      <point x="146.627" y="59.0293"/>
      <point x="121.119" y="107.086" type="curve" smooth="yes"/>
      <point x="105.453" y="132.589" type="line"/>
      <point x="44.8652" y="78.3789" type="line"/>
      <point x="0" y="128.996" type="line"/>
      <point x="97.8174" y="216.851" type="line"/>
      <point x="97.8174" y="524" type="line" smooth="yes"/>
      <point x="97.8174" y="568.491"/>
      <point x="144.145" y="664.603"/>
      <point x="227.193" y="678.291" type="curve"/>
      <point x="227.193" y="584.753" type="line"/>
      <point x="185.098" y="566.804"/>
      <point x="179.287" y="519.406"/>
      <point x="179.287" y="508" type="curve" smooth="yes"/>
      <point x="179.287" y="299.967" type="line"/>
      <point x="364.068" y="493.846" type="line"/>
      <point x="364.068" y="508" type="line" smooth="yes"/>
      <point x="364.068" y="520.073"/>
      <point x="356.69" y="567.472"/>
      <point x="316.162" y="584.753" type="curve"/>
      <point x="316.162" y="678.277" type="line"/>
      <point x="366.226" y="669.772"/>
      <point x="400.179" y="634.196"/>
      <point x="421.454" y="594.015" type="curve" smooth="yes"/>
    </contour>
  </outline>
</glyph>
<glyph name="Thorn" format="1">
  <advance width="374"/>
  <unicode hex="00DE"/>
  <outline>
    <contour>
      <point x="26" y="25" type="line"/>
      <point x="26" y="675" type="line"/>
      <point x="117" y="675" type="line"/>
      <point x="117" y="25" type="line"/>
    </contour>
    <contour>
      <point x="192.435" y="233.484" type="curve"/>
      <point x="192.435" y="322" type="line"/>
      <point x="197.267" y="322" type="line" smooth="yes"/>
      <point x="201.529" y="322"/>
      <point x="255" y="325.196"/>
      <point x="255" y="398" type="curve" smooth="yes"/>
      <point x="255" y="470.509"/>
      <point x="203.63" y="476"/>
      <point x="197.267" y="476" type="curve" smooth="yes"/>
      <point x="192.435" y="476" type="line"/>
      <point x="192.435" y="564.476" type="line"/>
      <point x="319.628" y="557.842"/>
      <point x="348" y="500.021"/>
      <point x="348" y="402" type="curve" smooth="yes"/>
      <point x="348" y="279.467"/>
      <point x="300.085" y="238.73"/>
    </contour>
  </outline>
</glyph>
<glyph name="germandbls" format="1">
  <advance width="422"/>
  <unicode hex="00DF"/>
  <outline>
    <contour>
      <point x="105" y="523" type="curve" smooth="yes"/>
      <point x="105" y="50" type="line"/>
      <point x="26" y="50" type="line"/>
      <point x="26" y="481.831" type="line"/>
      <point x="27.0645" y="560.594"/>
      <point x="15.167" y="705"/>
      <point x="186.044" y="705" type="curve" smooth="yes"/>
      <point x="300.138" y="705"/>
      <point x="306" y="598.559"/>
      <point x="306" y="543" type="curve" smooth="yes"/>
      <point x="306" y="455.394" type="line"/>
      <point x="267.334" y="456.034" type="line"/>
      <point x="265.658" y="455.619" type="line" smooth="yes"/>
      <point x="227.763" y="446.24"/>
      <point x="224.548" y="395.432"/>
      <point x="224.548" y="386" type="curve" smooth="yes"/>
      <point x="224.548" y="358.617"/>
      <point x="239.091" y="327.849"/>
      <point x="308.023" y="300.307" type="curve"/>
      <point x="352.612" y="285.146"/>
      <point x="396" y="254.189"/>
      <point x="396" y="185" type="curve" smooth="yes"/>
      <point x="396" y="97.3877"/>
      <point x="334.442" y="50"/>
      <point x="258.061" y="50" type="curve" smooth="yes"/>
      <point x="184.618" y="50" type="line"/>
      <point x="184.618" y="109" type="line"/>
      <point x="258.654" y="109" type="line"/>
      <point x="259.246" y="109.056" type="line" smooth="yes"/>
      <point x="270.994" y="110.153"/>
      <point x="329" y="121.607"/>
      <point x="329" y="178" type="curve" smooth="yes"/>
      <point x="329" y="246.537"/>
      <point x="259.7" y="253.919"/>
      <point x="229.726" y="275.32" type="curve"/>
      <point x="199.203" y="296.724"/>
      <point x="178.913" y="321.492"/>
      <point x="178.913" y="396" type="curve" smooth="yes"/>
      <point x="178.913" y="457.149"/>
      <point x="208.993" y="492.536"/>
      <point x="240.568" y="508.478" type="curve" smooth="yes"/>
      <point x="252.356" y="514.43" type="line"/>
      <point x="252.356" y="544" type="line" smooth="yes"/>
      <point x="252.356" y="613.737"/>
      <point x="214.615" y="636"/>
      <point x="185.331" y="636" type="curve" smooth="yes"/>
      <point x="131.865" y="636"/>
      <point x="105" y="584.771"/>
    </contour>
  </outline>
</glyph>
<glyph name="ae" format="1">
  <advance width="566"/>
  <unicode hex="00E6"/>
  <outline>
    <contour>
      <point x="475" y="369" type="line" smooth="yes"/>
      <point x="475" y="403.91"/>
      <point x="447.366" y="420.838"/>
      <point x="428" y="424.963" type="curve"/>
      <point x="428" y="489.095" type="line"/>
      <point x="484.627" y="477.876"/>
      <point x="539" y="424.886"/>
      <point x="539" y="378" type="curve" smooth="yes"/>
      <point x="539" y="233" type="line"/>
      <point x="304.823" y="233" type="line"/>
      <point x="304.823" y="143" type="line" smooth="yes"/>
      <point x="304.823" y="104.353"/>
      <point x="331.957" y="84.332"/>
      <point x="360" y="83" type="curve"/>
      <point x="410.122" y="83" type="line" smooth="yes"/>
      <point x="443.517" y="83"/>
      <point x="467.649" y="103.778"/>
      <point x="480.118" y="125.035" type="curve"/>
      <point x="533.229" y="105.186" type="line"/>
      <point x="511.163" y="59.6025"/>
      <point x="459.56" y="25"/>
      <point x="410.122" y="25" type="curve" smooth="yes"/>
      <point x="360.421" y="25" type="line" smooth="yes"/>
      <point x="324.963" y="25"/>
      <point x="301.269" y="33.6611"/>
      <point x="286.681" y="48.8145" type="curve" smooth="yes"/>
      <point x="273.561" y="62.4414" type="line"/>
      <point x="259.834" y="49.6875" type="line" smooth="yes"/>
      <point x="248.044" y="38.7354"/>
      <point x="233.236" y="30.959"/>
      <point x="216.372" y="27.7002" type="curve"/>
      <point x="216.372" y="92.4355" type="line"/>
      <point x="245.439" y="106.768"/>
      <point x="249.226" y="139.579"/>
      <point x="249.226" y="149" type="curve" smooth="yes"/>
      <point x="249.226" y="270.361" type="line"/>
      <point x="217.614" y="248.636" type="line" smooth="yes"/>
      <point x="189.936" y="229.613"/>
      <point x="125.405" y="216.653"/>
      <point x="102.819" y="205.36" type="curve" smooth="yes"/>
      <point x="89.0752" y="198.488"/>
      <point x="77" y="182.839"/>
      <point x="77" y="162" type="curve" smooth="yes"/>
      <point x="77" y="149" type="line" smooth="yes"/>
      <point x="77" y="121.594"/>
      <point x="93.7568" y="92.6289"/>
      <point x="130" y="88.3682" type="curve"/>
      <point x="130" y="27.3467" type="line"/>
      <point x="57.6084" y="35.4385"/>
      <point x="26" y="75.5371"/>
      <point x="26" y="110" type="curve" smooth="yes"/>
      <point x="26" y="180" type="line" smooth="yes"/>
      <point x="26" y="206.947"/>
      <point x="26.0039" y="214.494"/>
      <point x="62.4844" y="235.34" type="curve"/>
      <point x="75.832" y="243.101"/>
      <point x="113.716" y="255.229"/>
      <point x="150.849" y="267.942" type="curve" smooth="yes"/>
      <point x="186.408" y="282.252"/>
      <point x="249.226" y="299.487"/>
      <point x="249.226" y="351" type="curve" smooth="yes"/>
      <point x="249.226" y="363" type="line" smooth="yes"/>
      <point x="249.226" y="376.422"/>
      <point x="250.228" y="397.608"/>
      <point x="236.563" y="414.919" type="curve" smooth="yes"/>
      <point x="226.586" y="427.561"/>
      <point x="212.194" y="432"/>
      <point x="196.997" y="432" type="curve" smooth="yes"/>
      <point x="152.351" y="432" type="line" smooth="yes"/>
      <point x="124.158" y="432"/>
      <point x="100.083" y="412.121"/>
      <point x="91.9375" y="383.776" type="curve"/>
      <point x="34.4746" y="405.667" type="line"/>
      <point x="44.2432" y="453.167"/>
      <point x="101.965" y="494"/>
      <point x="152.351" y="494" type="curve" smooth="yes"/>
      <point x="198.682" y="494" type="line" smooth="yes"/>
      <point x="226.901" y="494"/>
      <point x="248.725" y="481.802"/>
      <point x="265.683" y="464.186" type="curve" smooth="yes"/>
      <point x="278.878" y="450.48" type="line"/>
      <point x="292.623" y="463.398" type="line" smooth="yes"/>
      <point x="306.112" y="476.075"/>
      <point x="322.999" y="485.776"/>
      <point x="342.731" y="489.498" type="curve"/>
      <point x="342.731" y="422.101" type="line"/>
      <point x="321.95" y="415.17"/>
      <point x="309.266" y="397.17"/>
      <point x="305.452" y="379.063" type="curve" smooth="yes"/>
      <point x="304.823" y="376.078" type="line"/>
      <point x="304.823" y="299" type="line"/>
      <point x="475" y="299" type="line"/>
    </contour>
  </outline>
</glyph>
<glyph name="igrave" format="1">
  <advance width="149"/>
  <unicode hex="00EC"/>
  <outline>
    <contour>
      <point x="72.4111" y="627" type="line"/>
      <point x="29.6582" y="627" type="line"/>
      <point x="-20" y="729" type="line"/>
      <point x="48.2529" y="729" type="line"/>
    </contour>
    <contour>
      <point x="96.0234" y="491" type="line"/>
      <point x="96.0234" y="25" type="line"/>
      <point x="24.0234" y="25" type="line"/>
      <point x="24.0234" y="491" type="line"/>
    </contour>
  </outline>
</glyph>
<glyph name="iacute" format="1">
  <advance width="149"/>
  <unicode hex="00ED"/>
  <outline>
    <contour>
      <point x="153.023" y="729" type="line"/>
      <point x="103.366" y="627" type="line"/>
      <point x="60.6123" y="627" type="line"/>
      <point x="84.7705" y="729" type="line"/>
    </contour>
    <contour>
      <point x="111" y="491" type="line"/>
      <point x="111" y="25" type="line"/>
      <point x="39" y="25" type="line"/>
      <point x="39" y="491" type="line"/>
    </contour>
  </outline>
</glyph>
<glyph name="idieresis" format="1">
  <advance width="149"/>
  <unicode hex="00EF"/>
  <outline>
    <contour>
      <point x="-11" y="626" type="curve" smooth="yes"/>
      <point x="-39.334" y="626"/>
      <point x="-61" y="647.667"/>
      <point x="-61" y="676" type="curve" smooth="yes"/>
      <point x="-61" y="704.649"/>
      <point x="-38.8877" y="727"/>
      <point x="-11" y="727" type="curve" smooth="yes"/>
      <point x="16.8877" y="727"/>
      <point x="39" y="704.649"/>
      <point x="39" y="676" type="curve" smooth="yes"/>
      <point x="39" y="647.666"/>
      <point x="17.333" y="626"/>
    </contour>
    <contour>
      <point x="159" y="626" type="curve" smooth="yes"/>
      <point x="130.666" y="626"/>
      <point x="109" y="647.667"/>
      <point x="109" y="676" type="curve" smooth="yes"/>
      <point x="109" y="704.649"/>
      <point x="131.112" y="727"/>
      <point x="159" y="727" type="curve" smooth="yes"/>
      <point x="186.888" y="727"/>
      <point x="209" y="704.649"/>
      <point x="209" y="676" type="curve" smooth="yes"/>
      <point x="209" y="647.666"/>
      <point x="187.333" y="626"/>
    </contour>
    <contour>
      <point x="111" y="491" type="line"/>
      <point x="111" y="25" type="line"/>
      <point x="39" y="25" type="line"/>
      <point x="39" y="491" type="line"/>
    </contour>
  </outline>
</glyph>
<glyph name="eth" format="1">
  <advance width="370"/>
  <unicode hex="00F0"/>
  <outline>
    <contour>
      <point x="28" y="141" type="curve" smooth="yes"/>
      <point x="28" y="376" type="line" smooth="yes"/>
      <point x="28" y="406.195"/>
      <point x="65.7041" y="479.747"/>
      <point x="142" y="489.788" type="curve"/>
      <point x="142" y="420.729" type="line"/>
      <point x="104.201" y="411.021"/>
      <point x="98" y="376.071"/>
      <point x="98" y="363" type="curve" smooth="yes"/>
      <point x="98" y="154" type="line" smooth="yes"/>
      <point x="98" y="131.887"/>
      <point x="109.936" y="101.783"/>
      <point x="142" y="94.0957" type="curve"/>
      <point x="142" y="25.2314" type="line"/>
      <point x="64.1943" y="35.666"/>
      <point x="28" y="111.794"/>
    </contour>
    <contour>
      <point x="266.359" y="588.621" type="curve" smooth="yes"/>
      <point x="260.372" y="614.567" type="line"/>
      <point x="201.431" y="596.988" type="line"/>
      <point x="198.339" y="606.779" type="line"/>
      <point x="261.969" y="627.142" type="line"/>
      <point x="235.37" y="655.957" type="line" smooth="yes"/>
      <point x="223.58" y="668.729"/>
      <point x="206.985" y="679.859"/>
      <point x="192" y="687.654" type="curve"/>
      <point x="192" y="707.271" type="line"/>
      <point x="232.775" y="694.982"/>
      <point x="262.939" y="676.306"/>
      <point x="286.124" y="649.607" type="curve" smooth="yes"/>
      <point x="296.928" y="637.168" type="line"/>
      <point x="338.599" y="650.503" type="line"/>
      <point x="341.802" y="640.183" type="line"/>
      <point x="304.191" y="628.015" type="line"/>
      <point x="316.418" y="602.273" type="line" smooth="yes"/>
      <point x="333.373" y="566.578"/>
      <point x="342" y="522.483"/>
      <point x="342" y="467" type="curve" smooth="yes"/>
      <point x="342" y="166" type="line" smooth="yes"/>
      <point x="342" y="135.016"/>
      <point x="305.719" y="61.0566"/>
      <point x="233" y="50.3311" type="curve"/>
      <point x="233" y="119.74" type="line"/>
      <point x="269.44" y="130.541"/>
      <point x="275" y="163.151"/>
      <point x="275" y="177" type="curve" smooth="yes"/>
      <point x="275" y="388" type="line" smooth="yes"/>
      <point x="275" y="399.877"/>
      <point x="273.102" y="416.917"/>
      <point x="259.883" y="430.811" type="curve" smooth="yes"/>
      <point x="252.833" y="438.22"/>
      <point x="242.568" y="443.392"/>
      <point x="233" y="445.887" type="curve"/>
      <point x="233" y="514.687" type="line"/>
      <point x="236.391" y="514.134"/>
      <point x="238.584" y="513.655"/>
      <point x="241.422" y="512.881" type="curve" smooth="yes"/>
      <point x="276.909" y="503.202" type="line"/>
      <point x="272.847" y="539.761" type="line" smooth="yes"/>
      <point x="270.917" y="557.131"/>
      <point x="270.034" y="572.699"/>
    </contour>
  </outline>
</glyph>
<glyph name="divide" format="1">
  <advance width="550"/>
  <unicode hex="00F7"/>
  <outline>
    <contour>
      <point x="100" y="330" type="line"/>
      <point x="450" y="330" type="line"/>
      <point x="450" y="253" type="line"/>
      <point x="100" y="253" type="line"/>
    </contour>
    <component base="period" xOffset="196" yOffset="415"/>
    <component base="period" xOffset="196" yOffset="62"/>
  </outline>
</glyph>
<glyph name="oslash" format="1">
  <advance width="398"/>
  <unicode hex="00F8"/>
  <outline>
    <contour>
      <point x="312.539" y="413.24" type="line"/>
      <point x="357.992" y="454.465" type="line"/>
      <point x="377.918" y="431.906" type="line"/>
      <point x="320.959" y="380.048" type="line"/>
      <point x="320.959" y="141" type="line" smooth="yes"/>
      <point x="320.959" y="110.016"/>
      <point x="284.678" y="36.0566"/>
      <point x="223.784" y="25.3311" type="curve"/>
      <point x="223.784" y="94.7402" type="line"/>
      <point x="250.222" y="105.541"/>
      <point x="254.255" y="138.151"/>
      <point x="254.255" y="152" type="curve" smooth="yes"/>
      <point x="254.255" y="317.997" type="line"/>
      <point x="125.477" y="154.585" type="line"/>
      <point x="126.724" y="141.696" type="line" smooth="yes"/>
      <point x="128.698" y="121.292"/>
      <point x="139.672" y="100.418"/>
      <point x="157.762" y="94.1377" type="curve"/>
      <point x="157.762" y="25.2178" type="line"/>
      <point x="127.511" y="30.9658"/>
      <point x="101.701" y="52.5127"/>
      <point x="83.1006" y="77.8096" type="curve" smooth="yes"/>
      <point x="66.6494" y="100.183" type="line"/>
      <point x="19.8887" y="57.5781" type="line"/>
      <point x="0" y="80.0938" type="line"/>
      <point x="56.959" y="131.952" type="line"/>
      <point x="56.959" y="376" type="line" smooth="yes"/>
      <point x="56.959" y="406.195"/>
      <point x="94.6641" y="479.747"/>
      <point x="157.762" y="489.788" type="curve"/>
      <point x="157.762" y="420.729" type="line"/>
      <point x="130.338" y="411.021"/>
      <point x="125.839" y="376.071"/>
      <point x="125.839" y="363" type="curve" smooth="yes"/>
      <point x="125.839" y="195.977" type="line"/>
      <point x="255.567" y="360.521" type="line"/>
      <point x="254.073" y="373.535" type="line" smooth="yes"/>
      <point x="252.253" y="391.094"/>
      <point x="243.828" y="413.33"/>
      <point x="223.784" y="420.856" type="curve"/>
      <point x="223.784" y="489.684" type="line"/>
      <point x="252.06" y="484.072"/>
      <point x="278.871" y="462.339"/>
      <point x="296.341" y="436.861" type="curve" smooth="yes"/>
    </contour>
  </outline>
</glyph>
<glyph name="thorn" format="1">
  <advance width="372"/>
  <unicode hex="00FE"/>
  <outline>
    <contour>
      <point x="30" y="-182" type="line"/>
      <point x="30" y="700" type="line"/>
      <point x="105" y="700" type="line"/>
      <point x="105" y="-182" type="line"/>
    </contour>
    <contour>
      <point x="346" y="139" type="line" smooth="yes"/>
      <point x="346" y="99.376"/>
      <point x="305.605" y="25"/>
      <point x="207" y="25" type="curve" smooth="yes"/>
      <point x="203" y="25" type="line"/>
      <point x="203" y="93" type="line"/>
      <point x="209.338" y="93" type="line"/>
      <point x="254.812" y="94.2295"/>
      <point x="276" y="119.04"/>
      <point x="276" y="143" type="curve" smooth="yes"/>
      <point x="276" y="372" type="line" smooth="yes"/>
      <point x="276" y="409.422"/>
      <point x="235.394" y="423"/>
      <point x="203" y="423" type="curve" smooth="yes"/>
      <point x="196" y="423" type="line"/>
      <point x="196" y="491" type="line"/>
      <point x="203" y="491" type="line" smooth="yes"/>
      <point x="296.412" y="491"/>
      <point x="346" y="415.978"/>
      <point x="346" y="375" type="curve" smooth="yes"/>
    </contour>
  </outline>
</glyph>
<glyph name="dotlessi" format="1">
  <advance width="124"/>
  <unicode hex="0131"/>
  <outline>
    <contour>
      <point x="98" y="491" type="line"/>
      <point x="98" y="25" type="line"/>
      <point x="26" y="25" type="line"/>
      <point x="26" y="491" type="line"/>
    </contour>
  </outline>
</glyph>
<glyph name="Lslash" format="1">
  <advance width="430"/>
  <unicode hex="0141"/>
  <outline>
    <contour>
      <point x="192.32" y="440.712" type="line"/>
      <point x="262.462" y="517.831" type="line"/>
      <point x="299.935" y="464.393" type="line"/>
      <point x="192.32" y="355.206" type="line"/>
      <point x="192.32" y="114" type="line"/>
      <point x="394.951" y="114" type="line"/>
      <point x="394.951" y="25" type="line"/>
      <point x="118.951" y="25" type="line"/>
      <point x="118.951" y="283.972" type="line"/>
      <point x="67.415" y="244.072" type="line"/>
      <point x="26" y="297.567" type="line"/>
      <point x="118.951" y="369.763" type="line"/>
      <point x="118.951" y="675" type="line"/>
      <point x="192.32" y="675" type="line"/>
    </contour>
  </outline>
</glyph>
<glyph name="lslash" format="1">
  <advance width="374"/>
  <unicode hex="0142"/>
  <outline>
    <contour>
      <point x="217.982" y="472.354" type="line"/>
      <point x="286.574" y="525.855" type="line"/>
      <point x="327.966" y="472.393" type="line"/>
      <point x="217.982" y="386.605" type="line"/>
      <point x="217.982" y="50" type="line"/>
      <point x="136.982" y="50" type="line"/>
      <point x="136.982" y="323.426" type="line"/>
      <point x="67.3916" y="269.145" type="line"/>
      <point x="26" y="322.607" type="line"/>
      <point x="136.982" y="409.175" type="line"/>
      <point x="136.982" y="698" type="line"/>
      <point x="217.982" y="698" type="line"/>
    </contour>
  </outline>
</glyph>
<glyph name="OE" format="1">
  <advance width="624"/>
  <unicode hex="0152"/>
  <outline>
    <contour>
      <point x="168.927" y="123.278" type="curve"/>
      <point x="168.927" y="28.0723" type="line"/>
      <point x="111.186" y="41.5469"/>
      <point x="26" y="93.3379"/>
      <point x="26" y="200" type="curve" smooth="yes"/>
      <point x="26" y="519" type="line" smooth="yes"/>
      <point x="26" y="563.491"/>
      <point x="75.9219" y="659.603"/>
      <point x="169.795" y="673.291" type="curve"/>
      <point x="169.795" y="579.753" type="line"/>
      <point x="123.792" y="561.804"/>
      <point x="117" y="514.406"/>
      <point x="117" y="503" type="curve" smooth="yes"/>
      <point x="117" y="200" type="line" smooth="yes"/>
      <point x="117" y="153.188"/>
      <point x="153.135" y="130.785"/>
    </contour>
    <contour>
      <point x="388.305" y="116" type="line"/>
      <point x="598" y="116" type="line"/>
      <point x="598" y="25" type="line"/>
      <point x="259.974" y="25" type="line"/>
      <point x="259.974" y="117" type="line"/>
      <point x="309.399" y="117" type="line"/>
      <point x="309.399" y="584" type="line"/>
      <point x="259.974" y="584" type="line"/>
      <point x="259.974" y="675" type="line"/>
      <point x="598" y="675" type="line"/>
      <point x="598" y="585" type="line"/>
      <point x="388.305" y="585" type="line"/>
      <point x="388.305" y="393" type="line"/>
      <point x="504" y="393" type="line"/>
      <point x="504" y="302" type="line"/>
      <point x="388.305" y="302" type="line"/>
    </contour>
  </outline>
</glyph>
<glyph name="oe" format="1">
  <advance width="571"/>
  <unicode hex="0153"/>
  <outline>
    <contour>
      <point x="26" y="141" type="curve" smooth="yes"/>
      <point x="26" y="376" type="line" smooth="yes"/>
      <point x="26" y="406.195"/>
      <point x="63.7041" y="479.747"/>
      <point x="140" y="489.788" type="curve"/>
      <point x="140" y="420.837" type="line"/>
      <point x="103.508" y="410.993"/>
      <point x="96" y="385.229"/>
      <point x="96" y="373" type="curve" smooth="yes"/>
      <point x="96" y="142" type="line" smooth="yes"/>
      <point x="96" y="126.87"/>
      <point x="108.055" y="100.106"/>
      <point x="140" y="90.5664" type="curve"/>
      <point x="140" y="25.2314" type="line"/>
      <point x="62.1943" y="35.666"/>
      <point x="26" y="111.794"/>
    </contour>
    <contour>
      <point x="480" y="369" type="line" smooth="yes"/>
      <point x="480" y="403.91"/>
      <point x="452.366" y="420.838"/>
      <point x="433" y="424.963" type="curve"/>
      <point x="433" y="489.095" type="line"/>
      <point x="489.627" y="477.876"/>
      <point x="544" y="424.886"/>
      <point x="544" y="378" type="curve" smooth="yes"/>
      <point x="544" y="233" type="line"/>
      <point x="314.569" y="233" type="line"/>
      <point x="314.569" y="141" type="line" smooth="yes"/>
      <point x="314.569" y="129.923"/>
      <point x="323.293" y="84.7578"/>
      <point x="364.882" y="83" type="curve"/>
      <point x="415.105" y="83" type="line" smooth="yes"/>
      <point x="447.734" y="83"/>
      <point x="473.255" y="103.953"/>
      <point x="485.582" y="124.861" type="curve"/>
      <point x="538.27" y="105.17" type="line"/>
      <point x="517.585" y="60.3594"/>
      <point x="464.623" y="25"/>
      <point x="415.105" y="25" type="curve" smooth="yes"/>
      <point x="365.259" y="25" type="line" smooth="yes"/>
      <point x="336.643" y="25"/>
      <point x="315.519" y="36.3164"/>
      <point x="297.349" y="53.5215" type="curve" smooth="yes"/>
      <point x="283.883" y="66.2734" type="line"/>
      <point x="270.634" y="53.2051" type="line" smooth="yes"/>
      <point x="256.908" y="39.667"/>
      <point x="239.206" y="29.1865"/>
      <point x="218.258" y="25.376" type="curve"/>
      <point x="218.258" y="90.7734" type="line"/>
      <point x="246.954" y="100.535"/>
      <point x="253.741" y="128.44"/>
      <point x="253.741" y="140" type="curve" smooth="yes"/>
      <point x="253.741" y="372" type="line" smooth="yes"/>
      <point x="253.741" y="385.981"/>
      <point x="244.744" y="411.576"/>
      <point x="218.258" y="420.594" type="curve"/>
      <point x="218.258" y="489.707" type="line"/>
      <point x="239.433" y="486.18"/>
      <point x="256.163" y="476.235"/>
      <point x="269.789" y="462.795" type="curve" smooth="yes"/>
      <point x="283.038" y="449.727" type="line"/>
      <point x="296.504" y="462.479" type="line" smooth="yes"/>
      <point x="310.749" y="475.967"/>
      <point x="328.04" y="485.836"/>
      <point x="347.518" y="489.489" type="curve"/>
      <point x="347.518" y="421.804" type="line"/>
      <point x="321.911" y="412.218"/>
      <point x="314.569" y="384.909"/>
      <point x="314.569" y="369" type="curve" smooth="yes"/>
      <point x="314.569" y="299" type="line"/>
      <point x="480" y="299" type="line"/>
    </contour>
  </outline>
</glyph>
<glyph name="florin" format="1">
  <advance width="332"/>
  <unicode hex="0192"/>
  <outline>
    <contour>
      <point x="133.758" y="510.812" type="line"/>
      <point x="133.758" y="577" type="line" smooth="yes"/>
      <point x="133.758" y="610.218"/>
      <point x="177.316" y="695.169"/>
      <point x="262.88" y="696" type="curve"/>
      <point x="292.332" y="696" type="line"/>
      <point x="276.87" y="629" type="line"/>
      <point x="263.312" y="629" type="line"/>
      <point x="217.032" y="627.347"/>
      <point x="205.758" y="589.521"/>
      <point x="205.758" y="577" type="curve" smooth="yes"/>
      <point x="205.758" y="509.259" type="line"/>
      <point x="271.758" y="510.345" type="line"/>
      <point x="271.758" y="439.089" type="line"/>
      <point x="205.758" y="439.089" type="line"/>
      <point x="205.758" y="-55" type="line" smooth="yes"/>
      <point x="205.758" y="-105.63"/>
      <point x="174.24" y="-168"/>
      <point x="76.7578" y="-168" type="curve" smooth="yes"/>
      <point x="26" y="-168" type="line"/>
      <point x="40.1426" y="-113" type="line"/>
      <point x="76.2041" y="-113" type="line"/>
      <point x="122.483" y="-111.347"/>
      <point x="133.758" y="-73.5205"/>
      <point x="133.758" y="-61" type="curve" smooth="yes"/>
      <point x="133.758" y="439.2" type="line"/>
      <point x="70.7578" y="439.2" type="line"/>
      <point x="70.7578" y="510.812" type="line"/>
    </contour>
  </outline>
</glyph>
<glyph name="circumflex" format="1">
  <advance width="270"/>
  <unicode hex="02C6"/>
  <outline>
    <contour>
      <point x="66.2132" y="539" type="line"/>
      <point x="116.542" y="641" type="line"/>
      <point x="151.64" y="641" type="line"/>
      <point x="203.311" y="539" type="line"/>
      <point x="177.573" y="539" type="line"/>
      <point x="133.591" y="628.535" type="line"/>
      <point x="91.1792" y="539" type="line"/>
    </contour>
  </outline>
</glyph>
<glyph name="caron" format="1">
  <advance width="270"/>
  <unicode hex="02C7"/>
  <outline>
    <contour>
      <point x="66.2132" y="641" type="line"/>
      <point x="91.1792" y="641" type="line"/>
      <point x="133.591" y="551.465" type="line"/>
      <point x="177.573" y="641" type="line"/>
      <point x="203.311" y="641" type="line"/>
      <point x="151.64" y="539" type="line"/>
      <point x="116.542" y="539" type="line"/>
    </contour>
  </outline>
</glyph>
<glyph name="breve" format="1">
  <advance width="244"/>
  <unicode hex="02D8"/>
  <outline>
    <contour>
      <point x="188.476" y="501" type="line"/>
      <point x="178.259" y="473.994"/>
      <point x="152.357" y="455"/>
      <point x="122" y="455" type="curve" smooth="yes"/>
      <point x="91.2915" y="455"/>
      <point x="65.4211" y="474.84"/>
      <point x="55.5244" y="501" type="curve"/>
      <point x="70.6355" y="501" type="line"/>
      <point x="80.6206" y="480.893"/>
      <point x="99.7563" y="469"/>
      <point x="122" y="469" type="curve" smooth="yes"/>
      <point x="144.976" y="469"/>
      <point x="164.364" y="482.877"/>
      <point x="173.365" y="501" type="curve"/>
    </contour>
  </outline>
</glyph>
<glyph name="dotaccent" format="1">
  <advance width="202"/>
  <unicode hex="02D9"/>
  <outline>
    <contour>
      <point x="51" y="678" type="curve" smooth="yes"/>
      <point x="51" y="706.649"/>
      <point x="73.1121" y="729"/>
      <point x="101" y="729" type="curve" smooth="yes"/>
      <point x="128.888" y="729"/>
      <point x="151" y="706.649"/>
      <point x="151" y="678" type="curve" smooth="yes"/>
      <point x="151" y="649.666"/>
      <point x="129.333" y="628"/>
      <point x="101" y="628" type="curve" smooth="yes"/>
      <point x="72.6663" y="628"/>
      <point x="51" y="649.667"/>
    </contour>
  </outline>
</glyph>
<glyph name="ring" format="1">
  <advance width="244"/>
  <unicode hex="02DA"/>
  <outline>
    <contour>
      <point x="51" y="526" type="curve" smooth="yes"/>
      <point x="51" y="565.193"/>
      <point x="82.8071" y="597"/>
      <point x="122" y="597" type="curve" smooth="yes"/>
      <point x="161.193" y="597"/>
      <point x="193" y="565.193"/>
      <point x="193" y="526" type="curve" smooth="yes"/>
      <point x="193" y="486.807"/>
      <point x="161.193" y="455"/>
      <point x="122" y="455" type="curve" smooth="yes"/>
      <point x="82.8071" y="455"/>
      <point x="51" y="486.807"/>
    </contour>
    <contour>
      <point x="65" y="526" type="curve" smooth="yes"/>
      <point x="65" y="494.378"/>
      <point x="90.3703" y="469"/>
      <point x="122" y="469" type="curve" smooth="yes"/>
      <point x="153.622" y="469"/>
      <point x="179" y="494.37"/>
      <point x="179" y="526" type="curve" smooth="yes"/>
      <point x="179" y="557.622"/>
      <point x="153.63" y="583"/>
      <point x="122" y="583" type="curve" smooth="yes"/>
      <point x="90.3783" y="583"/>
      <point x="65" y="557.63"/>
    </contour>
  </outline>
</glyph>
<glyph name="tilde" format="1">
  <advance width="333"/>
  <unicode hex="02DC"/>
  <outline>
    <contour>
      <point x="282" y="128.386" type="line"/>
      <point x="255.343" y="114.132"/>
      <point x="238.807" y="111"/>
      <point x="223" y="111" type="curve" smooth="yes"/>
      <point x="183.977" y="111"/>
      <point x="155.509" y="151"/>
      <point x="92" y="151" type="curve" smooth="yes"/>
      <point x="79.2912" y="151"/>
      <point x="64.5891" y="148.307"/>
      <point x="51" y="143.692" type="curve"/>
      <point x="51" y="190.937" type="line"/>
      <point x="71.5391" y="200.674"/>
      <point x="84.4102" y="203"/>
      <point x="96" y="203" type="curve" smooth="yes"/>
      <point x="131.92" y="203"/>
      <point x="160.895" y="162"/>
      <point x="227" y="162" type="curve" smooth="yes"/>
      <point x="244.431" y="162"/>
      <point x="262.896" y="166.223"/>
      <point x="282" y="174.022" type="curve"/>
    </contour>
  </outline>
</glyph>
<glyph name="hungarumlaut" format="1">
  <advance width="336"/>
  <unicode hex="02DD"/>
  <outline>
    <contour>
      <point x="234.781" y="630" type="line"/>
      <point x="199.221" y="630" type="line"/>
      <point x="218.681" y="732" type="line"/>
      <point x="273.702" y="732" type="line"/>
    </contour>
    <contour>
      <point x="91.7813" y="630" type="line"/>
      <point x="56.2207" y="630" type="line"/>
      <point x="75.6812" y="732" type="line"/>
      <point x="130.702" y="732" type="line"/>
    </contour>
  </outline>
</glyph>
<glyph name="endash" format="1">
  <advance width="532"/>
  <unicode hex="2013"/>
  <outline>
    <contour>
      <point x="481" y="332" type="line"/>
      <point x="481" y="255" type="line"/>
      <point x="51" y="255" type="line"/>
      <point x="51" y="332" type="line"/>
    </contour>
  </outline>
</glyph>
<glyph name="emdash" format="1">
  <advance width="906"/>
  <unicode hex="2014"/>
  <outline>
    <contour>
      <point x="855" y="332" type="line"/>
      <point x="855" y="255" type="line"/>
      <point x="51" y="255" type="line"/>
      <point x="51" y="332" type="line"/>
    </contour>
  </outline>
</glyph>
<glyph name="dagger" format="1">
  <advance width="453"/>
  <unicode hex="2020"/>
  <outline>
    <contour>
      <point x="402" y="552" type="line"/>
      <point x="402" y="475" type="line"/>
      <point x="272" y="475" type="line"/>
      <point x="272" y="-31" type="line"/>
      <point x="181" y="-31" type="line"/>
      <point x="181" y="475" type="line"/>
      <point x="51" y="475" type="line"/>
      <point x="51" y="552" type="line"/>
      <point x="181" y="552" type="line"/>
      <point x="181" y="739" type="line"/>
      <point x="272" y="739" type="line"/>
      <point x="272" y="552" type="line"/>
    </contour>
  </outline>
</glyph>
<glyph name="daggerdbl" format="1">
  <advance width="453"/>
  <unicode hex="2021"/>
  <outline>
    <contour>
      <point x="181" y="739" type="line"/>
      <point x="272" y="739" type="line"/>
      <point x="272" y="552" type="line"/>
      <point x="402" y="552" type="line"/>
      <point x="402" y="475" type="line"/>
      <point x="272" y="475" type="line"/>
      <point x="272" y="233" type="line"/>
      <point x="402" y="233" type="line"/>
      <point x="402" y="156" type="line"/>
      <point x="272" y="156" type="line"/>
      <point x="272" y="-31" type="line"/>
      <point x="181" y="-31" type="line"/>
      <point x="181" y="156" type="line"/>
      <point x="51" y="156" type="line"/>
      <point x="51" y="233" type="line"/>
      <point x="181" y="233" type="line"/>
      <point x="181" y="475" type="line"/>
      <point x="51" y="475" type="line"/>
      <point x="51" y="552" type="line"/>
      <point x="181" y="552" type="line"/>
    </contour>
  </outline>
</glyph>
<glyph name="bullet" format="1">
  <advance width="352"/>
  <unicode hex="2022"/>
  <outline>
    <contour>
      <point x="51" y="344" type="curve" smooth="yes"/>
      <point x="51" y="414.649"/>
      <point x="106.114" y="471"/>
      <point x="176" y="471" type="curve" smooth="yes"/>
      <point x="245.888" y="471"/>
      <point x="301" y="414.648"/>
      <point x="301" y="344" type="curve" smooth="yes"/>
      <point x="301" y="273.666"/>
      <point x="246.332" y="219"/>
      <point x="176" y="219" type="curve" smooth="yes"/>
      <point x="105.666" y="219"/>
      <point x="51" y="273.668"/>
    </contour>
  </outline>
</glyph>
<glyph name="perthousand" format="1">
  <advance width="897"/>
  <unicode hex="2030"/>
  <outline>
    <contour>
      <point x="723" y="319.141" type="curve"/>
      <point x="723" y="303.183" type="line"/>
      <point x="689.202" y="276.05"/>
      <point x="694" y="227.04"/>
      <point x="694" y="201" type="curve" smooth="yes"/>
      <point x="694" y="171" type="line" smooth="yes"/>
      <point x="694" y="133.029"/>
      <point x="689.364" y="76.6557"/>
      <point x="722" y="49.6612" type="curve"/>
      <point x="722" y="32.7667" type="line"/>
      <point x="703.136" y="44.6815"/>
      <point x="676" y="78.2363"/>
      <point x="676" y="178" type="curve" smooth="yes"/>
      <point x="676" y="268.749"/>
      <point x="701.94" y="305.963"/>
    </contour>
    <contour>
      <point x="799" y="319.398" type="line"/>
      <point x="820.881" y="306.275"/>
      <point x="847" y="269.441"/>
      <point x="847" y="178" type="curve" smooth="yes"/>
      <point x="847" y="77.017"/>
      <point x="818.376" y="43.8717"/>
      <point x="800" y="32.6285" type="curve"/>
      <point x="800" y="49.6304" type="line"/>
      <point x="833.648" y="77.1741"/>
      <point x="829" y="133.378"/>
      <point x="829" y="171" type="curve" smooth="yes"/>
      <point x="829" y="201" type="line" smooth="yes"/>
      <point x="829" y="228.153"/>
      <point x="831.486" y="277.42"/>
      <point x="799" y="303.209" type="curve"/>
    </contour>
    <contour>
      <point x="465" y="319.141" type="curve"/>
      <point x="465" y="303.183" type="line"/>
      <point x="431.202" y="276.05"/>
      <point x="436" y="227.04"/>
      <point x="436" y="201" type="curve" smooth="yes"/>
      <point x="436" y="171" type="line" smooth="yes"/>
      <point x="436" y="133.029"/>
      <point x="431.364" y="76.6557"/>
      <point x="464" y="49.6612" type="curve"/>
      <point x="464" y="32.7667" type="line"/>
      <point x="445.136" y="44.6815"/>
      <point x="418" y="78.2363"/>
      <point x="418" y="178" type="curve" smooth="yes"/>
      <point x="418" y="268.749"/>
      <point x="443.94" y="305.963"/>
    </contour>
    <contour>
      <point x="541" y="319.398" type="line"/>
      <point x="562.881" y="306.275"/>
      <point x="589" y="269.441"/>
      <point x="589" y="178" type="curve" smooth="yes"/>
      <point x="589" y="77.017"/>
      <point x="560.376" y="43.8717"/>
      <point x="542" y="32.6285" type="curve"/>
      <point x="542" y="49.6304" type="line"/>
      <point x="575.648" y="77.1741"/>
      <point x="571" y="133.378"/>
      <point x="571" y="171" type="curve" smooth="yes"/>
      <point x="571" y="201" type="line" smooth="yes"/>
      <point x="571" y="228.153"/>
      <point x="573.486" y="277.42"/>
      <point x="541" y="303.209" type="curve"/>
    </contour>
    <contour>
      <point x="97" y="668.505" type="curve"/>
      <point x="97" y="652.381" type="line"/>
      <point x="65.151" y="626.812"/>
      <point x="69" y="576.737"/>
      <point x="69" y="551" type="curve" smooth="yes"/>
      <point x="69" y="522" type="line" smooth="yes"/>
      <point x="69" y="483.974"/>
      <point x="64.3475" y="426.862"/>
      <point x="97" y="399.7" type="curve"/>
      <point x="97" y="383.542" type="line"/>
      <point x="78.3841" y="394.976"/>
      <point x="51" y="427.838"/>
      <point x="51" y="528" type="curve" smooth="yes"/>
      <point x="51" y="617.254"/>
      <point x="76.0587" y="654.714"/>
    </contour>
    <contour>
      <point x="175" y="668.67" type="line"/>
      <point x="196.679" y="654.555"/>
      <point x="221" y="617.499"/>
      <point x="221" y="528" type="curve" smooth="yes"/>
      <point x="221" y="427.21"/>
      <point x="192.977" y="394.584"/>
      <point x="175" y="383.542" type="curve"/>
      <point x="175" y="399.7" type="line"/>
      <point x="208.711" y="427.743"/>
      <point x="203" y="484.715"/>
      <point x="203" y="522" type="curve" smooth="yes"/>
      <point x="203" y="551" type="line" smooth="yes"/>
      <point x="203" y="577.364"/>
      <point x="205.636" y="627.785"/>
      <point x="175" y="652.381" type="curve"/>
    </contour>
    <contour>
      <point x="111.697" y="25" type="line"/>
      <point x="510.983" y="675" type="line"/>
      <point x="525.683" y="675" type="line"/>
      <point x="132.897" y="25" type="line"/>
    </contour>
  </outline>
</glyph>
<glyph name="guilsinglleft" format="1">
  <advance width="338"/>
  <unicode hex="2039"/>
  <outline>
    <contour>
      <point x="170.8" y="475" type="line"/>
      <point x="266.71" y="475" type="line"/>
      <point x="151.554" y="292.157" type="line"/>
      <point x="267.275" y="104" type="line"/>
      <point x="170.974" y="104" type="line"/>
      <point x="55.4463" y="291.843" type="line"/>
    </contour>
  </outline>
</glyph>
<glyph name="guilsinglright" format="1">
  <advance width="338"/>
  <unicode hex="203A"/>
  <outline>
    <contour>
      <point x="167.2" y="475" type="line"/>
      <point x="282.554" y="291.843" type="line"/>
      <point x="167.026" y="104" type="line"/>
      <point x="70.7254" y="104" type="line"/>
      <point x="186.446" y="292.157" type="line"/>
      <point x="71.2903" y="475" type="line"/>
    </contour>
  </outline>
</glyph>
<glyph name="fraction" format="1">
  <advance width="560"/>
  <unicode hex="2044"/>
  <outline>
    <contour>
      <point x="70.6725" y="23" type="line"/>
      <point x="471.991" y="677" type="line"/>
      <point x="489.705" y="677" type="line"/>
      <point x="94.89" y="23" type="line"/>
    </contour>
  </outline>
</glyph>
<glyph name="EURO" format="1">
  <advance width="567"/>
  <unicode hex="20AC"/>
  <outline>
    <contour>
      <point x="363" y="29.9462" type="curve"/>
      <point x="363" y="125.053" type="line"/>
      <point x="391.312" y="139.258"/>
      <point x="406" y="164.048"/>
      <point x="406" y="199.329" type="curve"/>
      <point x="405.965" y="200.658" type="line"/>
      <point x="490.327" y="169.253" type="line"/>
      <point x="485.588" y="142.779"/>
      <point x="470.996" y="107.021"/>
      <point x="446.094" y="81.4466" type="curve" smooth="yes"/>
      <point x="418.177" y="52.7942"/>
      <point x="391.941" y="36.4024"/>
    </contour>
    <contour>
      <point x="363" y="670.054" type="line"/>
      <point x="393.127" y="663.333"/>
      <point x="418.284" y="647.096"/>
      <point x="446.088" y="618.56" type="curve" smooth="yes"/>
      <point x="471.137" y="592.834"/>
      <point x="485.815" y="555.952"/>
      <point x="490.327" y="530.747" type="curve"/>
      <point x="405.965" y="499.342" type="line"/>
      <point x="405.991" y="500.342"/>
      <point x="405.974" y="499.671"/>
      <point x="406" y="500.671" type="curve"/>
      <point x="406" y="536.613"/>
      <point x="389.96" y="561.42"/>
      <point x="363" y="574.947" type="curve"/>
    </contour>
    <contour>
      <point x="253" y="670.035" type="curve"/>
      <point x="253" y="574.462" type="line"/>
      <point x="215.322" y="555.668"/>
      <point x="211" y="525.519"/>
      <point x="211" y="488" type="curve" smooth="yes"/>
      <point x="211" y="411" type="line"/>
      <point x="383" y="411" type="line"/>
      <point x="383" y="401" type="line"/>
      <point x="211" y="401" type="line"/>
      <point x="211" y="292" type="line"/>
      <point x="383" y="292" type="line"/>
      <point x="383" y="283" type="line"/>
      <point x="211" y="283" type="line"/>
      <point x="211" y="202" type="line" smooth="yes"/>
      <point x="211" y="156.954"/>
      <point x="231.553" y="136.337"/>
      <point x="253" y="125.581" type="curve"/>
      <point x="253" y="30.5397" type="line"/>
      <point x="201.685" y="41.3356"/>
      <point x="183.502" y="65.9527"/>
      <point x="154" y="105" type="curve" smooth="yes"/>
      <point x="135.688" y="129.416"/>
      <point x="125.757" y="156.414"/>
      <point x="124" y="182.788" type="curve"/>
      <point x="124" y="283" type="line"/>
      <point x="75" y="283" type="line"/>
      <point x="75" y="292" type="line"/>
      <point x="124" y="292" type="line"/>
      <point x="124" y="402" type="line"/>
      <point x="75" y="402" type="line"/>
      <point x="75" y="411" type="line"/>
      <point x="124" y="411" type="line"/>
      <point x="124" y="496" type="line" smooth="yes"/>
      <point x="124" y="537.474"/>
      <point x="129.621" y="565.784"/>
      <point x="154.13" y="598.171" type="curve"/>
      <point x="183.814" y="639.572"/>
      <point x="214.657" y="662.02"/>
    </contour>
  </outline>
</glyph>
<glyph name="fi" format="1">
  <advance width="394"/>
  <unicode hex="FB01"/>
  <outline>
    <contour>
      <point x="89" y="516" type="line"/>
      <point x="89" y="577" type="line" smooth="yes"/>
      <point x="89" y="610.218"/>
      <point x="132.559" y="695.169"/>
      <point x="194.447" y="696" type="curve"/>
      <point x="213.83" y="696" type="line"/>
      <point x="203.655" y="629" type="line"/>
      <point x="194.732" y="629" type="line"/>
      <point x="164.276" y="627.347"/>
      <point x="156.856" y="589.521"/>
      <point x="156.856" y="577" type="curve" smooth="yes"/>
      <point x="156.856" y="516" type="line"/>
      <point x="357" y="516" type="line"/>
      <point x="357" y="50" type="line"/>
      <point x="285" y="50" type="line"/>
      <point x="285" y="450" type="line"/>
      <point x="156.856" y="450" type="line"/>
      <point x="156.856" y="50" type="line"/>
      <point x="89" y="50" type="line"/>
      <point x="89" y="450" type="line"/>
      <point x="26" y="450" type="line"/>
      <point x="26" y="516" type="line"/>
    </contour>
    <contour>
      <point x="320" y="703" type="curve" smooth="yes"/>
      <point x="346.119" y="703"/>
      <point x="368" y="681.119"/>
      <point x="368" y="655" type="curve" smooth="yes"/>
      <point x="368" y="630.149"/>
      <point x="346.277" y="608"/>
      <point x="320" y="608" type="curve" smooth="yes"/>
      <point x="293.723" y="608"/>
      <point x="272" y="630.149"/>
      <point x="272" y="655" type="curve" smooth="yes"/>
      <point x="272" y="681.119"/>
      <point x="293.881" y="703"/>
    </contour>
  </outline>
</glyph>
